<?xml version="1.0" encoding="UTF-8" standalone="no"?>
<!DOCTYPE svg PUBLIC "-//W3C//DTD SVG 1.1//EN" "http://www.w3.org/Graphics/SVG/1.1/DTD/svg11.dtd">
<svg width="100%" height="100%" viewBox="0 0 273 80" version="1.1" xmlns="http://www.w3.org/2000/svg" xmlns:xlink="http://www.w3.org/1999/xlink" xml:space="preserve" xmlns:serif="http://www.serif.com/" style="fill-rule:evenodd;clip-rule:evenodd;stroke-linejoin:round;stroke-miterlimit:1.41421;">
    <g transform="matrix(0.124629,0,0,0.11286,-6.38572,-12.0981)">
        <path d="M259.179,351.722C265.179,328.311 271.057,299.515 276.811,265.334C282.565,231.152 285.442,207.274 285.442,193.7C285.442,186.52 286.008,181.65 287.139,179.093C288.27,176.536 290.631,174.322 294.221,172.453C297.812,170.585 301.722,169.65 305.951,169.65C308.705,169.65 311.066,171.617 313.033,175.552C315.001,179.486 315.984,184.159 315.984,189.569C315.984,193.798 314.411,201.274 311.263,211.996C305.066,236.39 298.967,265.334 292.967,298.827C286.967,332.32 283.967,351.673 283.967,356.886C283.967,367.411 284.114,374.05 284.409,376.805C284.803,381.92 283.155,385.953 279.467,388.903C275.778,391.854 270.934,393.33 264.933,393.33C261.392,393.33 259.007,392.863 257.777,391.928C256.548,390.994 253.99,388.362 250.105,384.034C246.22,379.706 243.785,375.526 242.802,371.493C242.015,367.755 239.015,362.837 233.801,356.738C205.472,320.54 179.996,280.998 157.372,238.111C150.979,260.834 145.028,292.359 139.519,332.688L135.831,357.329C135.437,359.788 135.265,364.73 135.314,372.157C135.363,379.583 134.97,384.575 134.134,387.133C133.298,389.69 131.331,392.617 128.232,395.912C125.134,399.207 122.158,400.855 119.306,400.855C112.715,400.855 108.83,398.027 107.649,392.371C106.469,386.715 105.879,382.362 105.879,379.313C105.879,372.132 108.043,360.427 112.371,344.197C116.699,328.065 122.035,303.228 128.38,269.686C134.724,236.144 137.896,214.848 137.896,205.799L137.749,197.684C137.847,194.831 138.413,192.298 139.446,190.085C140.478,187.872 142.446,185.979 145.347,184.405C148.249,182.831 151.126,182.044 153.979,182.044C156.635,182.044 159.094,182.61 161.356,183.741C163.618,184.872 165.241,186.593 166.225,188.905C167.209,191.216 168.389,195.52 169.766,201.815C173.701,220.898 185.873,246.399 206.284,278.318C226.694,310.237 244.326,334.705 259.179,351.722Z" style="fill-rule:nonzero;"/>
        <path d="M475.334,339.328C475.334,349.361 466.457,361.46 448.702,375.624C430.947,389.789 412.627,396.871 393.741,396.871C377.904,396.871 365.683,392.199 357.076,382.854C348.469,373.509 344.166,360.476 344.166,343.754C344.166,315.622 353.658,288.867 372.642,263.489C391.626,238.111 412.381,225.422 434.906,225.422C442.284,225.422 448.309,227.832 452.981,232.652C457.653,237.472 459.989,243.276 459.989,250.063C459.989,265.211 452.563,279.719 437.71,293.589C422.857,307.458 402.987,321.081 378.101,334.459C372.986,337.115 370.429,340.558 370.429,344.787C370.429,352.951 372.79,359.493 377.511,364.411C382.232,369.329 389.216,371.788 398.463,371.788C419.611,371.788 441.202,360.083 463.235,336.672C466.481,333.426 468.94,331.803 470.613,331.803C473.76,331.803 475.334,334.311 475.334,339.328ZM372.79,316.311C414.496,291.523 435.349,271.604 435.349,256.555C435.349,250.653 432.693,247.702 427.382,247.702C418.332,247.702 408.127,254.341 396.766,267.621C385.405,280.9 377.413,297.13 372.79,316.311Z" style="fill-rule:nonzero;"/>
        <path d="M610.339,325.164C597.748,346.312 584.862,362.689 571.682,374.296C558.501,385.903 546.254,391.707 534.943,391.707C528.451,391.707 521.836,387.92 515.098,380.346C508.36,372.772 504.991,361.116 504.991,345.377C504.991,332.492 508.089,313.507 514.286,288.425C519.499,267.473 522.106,252.768 522.106,244.308C524.959,238.407 529.434,235.456 535.533,235.456C539.664,235.456 542.959,236.906 545.418,239.808C547.877,242.71 549.107,245.735 549.107,248.882C549.107,255.768 546.697,265.555 541.877,278.244C532.729,302.933 528.155,324.131 528.155,341.836C528.155,357.968 531.893,366.034 539.369,366.034C548.91,366.034 561.058,357.919 575.813,341.689C590.567,325.459 603.207,302.835 613.732,273.818C617.863,262.211 621.232,254.661 623.839,251.169C626.446,247.677 629.962,245.931 634.389,245.931C641.077,245.931 644.422,250.358 644.422,259.211C644.422,260.293 643.487,263.883 641.618,269.981C635.717,291.523 632.766,311.884 632.766,331.065C632.766,354.083 636.553,368.985 644.127,375.772C648.061,379.411 650.028,382.362 650.028,384.625C650.028,387.379 648.037,389.887 644.053,392.149C640.069,394.412 636.454,395.543 633.208,395.543C626.323,395.543 620.765,390.428 616.536,380.198C612.306,369.968 610.191,354.869 610.191,334.902L610.191,330.033C610.191,328.459 610.24,326.836 610.339,325.164Z" style="fill-rule:nonzero;"/>
        <path d="M816.755,339.328C816.755,349.361 807.878,361.46 790.123,375.624C772.369,389.789 754.048,396.871 735.163,396.871C719.326,396.871 707.104,392.199 698.497,382.854C689.891,373.509 685.587,360.476 685.587,343.754C685.587,315.622 695.079,288.867 714.063,263.489C733.048,238.111 753.803,225.422 776.328,225.422C783.705,225.422 789.73,227.832 794.402,232.652C799.075,237.472 801.411,243.276 801.411,250.063C801.411,265.211 793.984,279.719 779.131,293.589C764.278,307.458 744.409,321.081 719.523,334.459C714.408,337.115 711.85,340.558 711.85,344.787C711.85,352.951 714.211,359.493 718.932,364.411C723.654,369.329 730.638,371.788 739.884,371.788C761.032,371.788 782.623,360.083 804.657,336.672C807.903,333.426 810.362,331.803 812.034,331.803C815.182,331.803 816.755,334.311 816.755,339.328ZM714.211,316.311C755.917,291.523 776.771,271.604 776.771,256.555C776.771,250.653 774.115,247.702 768.803,247.702C759.754,247.702 749.548,254.341 738.187,267.621C726.826,280.9 718.834,297.13 714.211,316.311Z" style="fill-rule:nonzero;"/>
        <path d="M948.071,275.883C942.956,275.883 937.374,279.228 931.325,285.916C925.276,292.605 916.054,307.606 903.66,330.918C887.332,362.198 876.782,380.002 872.011,384.33C867.241,388.658 863.282,390.822 860.134,390.822C848.527,390.822 842.724,385.215 842.724,374.001C842.724,369.28 843.51,362.591 845.084,353.935C850.494,324.229 853.199,292.9 853.199,259.948C853.199,256.21 854.798,252.055 857.995,247.481C861.191,242.907 864.216,240.62 867.069,240.62C872.184,240.62 875.823,242.194 877.987,245.341C880.151,248.489 881.233,254.833 881.233,264.375C881.233,274.309 878.282,294.769 872.38,325.754C870.413,335.984 869.429,342.476 869.429,345.23C869.429,346.804 869.823,347.591 870.61,347.591C872.085,347.591 878.922,335.836 891.119,312.327C903.414,288.425 914.185,271.604 923.431,261.866C932.677,252.128 942.858,247.259 953.973,247.259C962.826,247.259 970.031,251.292 975.589,259.358C981.146,267.424 985.204,282.129 987.761,303.474C990.515,327.77 992.999,342.894 995.212,348.845C997.426,354.796 1000.94,357.771 1005.76,357.771C1008.81,357.771 1012.65,356.689 1017.27,354.525C1018.06,354.132 1018.65,353.935 1019.04,353.935C1023.27,353.935 1025.39,356.394 1025.39,361.312C1025.39,365.64 1022.48,370.239 1016.68,375.108C1010.88,379.977 1003.89,382.411 995.729,382.411C987.368,382.411 980.9,379.092 976.326,372.452C971.753,365.812 968.138,348.082 965.482,319.262C962.728,290.343 956.924,275.883 948.071,275.883Z" style="fill-rule:nonzero;"/>
        <path d="M1314.13,224.685C1314.13,211.602 1310.74,203.61 1303.95,200.709C1297.16,197.807 1288.71,196.356 1278.57,196.356C1257.72,196.356 1238.81,200.463 1221.84,208.676C1204.88,216.889 1196.39,226.75 1196.39,238.259C1196.39,246.522 1200.15,253.727 1207.68,259.874C1215.2,266.022 1231.61,272.785 1256.88,280.162C1281.38,287.244 1298.81,294.548 1309.19,302.073C1319.57,309.597 1324.76,318.672 1324.76,329.295C1324.76,340.017 1317.53,351.599 1303.07,364.042C1288.61,376.485 1271.17,385.953 1250.76,392.445C1230.35,398.937 1213.02,402.183 1198.75,402.183C1186.85,402.183 1177.83,400.781 1171.68,397.978C1165.53,395.174 1162.46,391.658 1162.46,387.428C1162.46,384.477 1163.37,380.862 1165.18,376.583C1167.01,372.305 1168.85,370.165 1170.72,370.165C1172.69,370.165 1174.7,370.509 1176.77,371.198C1187.29,375.132 1197.72,377.1 1208.05,377.1C1226.64,377.1 1246.36,371.665 1267.21,360.796C1288.07,349.927 1298.49,339.771 1298.49,330.328C1298.49,326.295 1295.32,322.434 1288.98,318.745C1282.63,315.057 1266.57,309.13 1240.8,300.966C1208.83,290.835 1189.19,280.974 1181.86,271.383C1174.53,261.793 1170.87,251.686 1170.87,241.062C1170.87,220.603 1182.62,204.102 1206.13,191.561C1229.64,179.019 1254.23,172.749 1279.9,172.749C1296.92,172.749 1310,175.626 1319.15,181.38C1328.3,187.134 1332.87,193.503 1332.87,200.487C1332.87,203.832 1331.84,208.701 1329.77,215.094C1327.71,221.488 1322.49,224.685 1314.13,224.685Z" style="fill-rule:nonzero;"/>
        <path d="M1390.27,372.231C1385.45,389.936 1380.92,414.773 1376.69,446.741L1372.56,474.628C1371.87,478.562 1370.05,482.472 1367.1,486.358C1364.15,490.243 1361.45,492.186 1358.99,492.186C1355.94,492.186 1352.47,490.636 1348.59,487.538C1344.7,484.439 1342.76,481.956 1342.76,480.087C1342.76,474.677 1343.99,467.201 1346.45,457.66C1364.45,384.969 1373.45,321.131 1373.45,266.145L1373.3,253.751C1373.1,243.128 1374.97,235.406 1378.91,230.587C1382.84,225.767 1387.37,223.357 1392.48,223.357C1394.84,223.357 1397.1,225.201 1399.27,228.89C1401.43,232.578 1402.51,237.816 1402.51,244.603C1402.51,254.145 1401.53,265.703 1399.56,279.277C1397.01,296.392 1395.68,306.228 1395.58,308.786C1410.24,283.211 1425.78,263.243 1442.2,248.882C1458.63,234.521 1473.88,227.341 1487.94,227.341C1497.88,227.341 1506.26,231.054 1513.1,238.48C1519.93,245.907 1523.35,255.128 1523.35,266.145C1523.35,298.212 1511.06,327.328 1486.47,353.492C1461.88,379.657 1437.92,392.74 1414.61,392.74C1408.81,392.74 1404.21,391.264 1400.82,388.313C1397.42,385.362 1393.91,380.002 1390.27,372.231ZM1481.89,253.456C1468.02,253.456 1450.86,266.44 1430.4,292.408C1409.94,318.376 1399.71,338.59 1399.71,353.05C1399.71,356.591 1401.73,360.034 1405.76,363.378C1409.79,366.722 1414.91,368.395 1421.1,368.395C1435.17,368.395 1451.35,357.993 1469.65,337.189C1487.94,316.385 1497.09,295.949 1497.09,275.883C1497.09,268.703 1495.64,263.17 1492.74,259.284C1489.84,255.399 1486.22,253.456 1481.89,253.456Z" style="fill-rule:nonzero;"/>
        <path d="M1604.65,191.782C1602.59,191.782 1601.01,189.569 1599.93,185.142C1599.54,183.765 1599,182.241 1598.31,180.568C1595.65,174.175 1594.32,168.617 1594.32,163.896C1594.32,159.961 1596.66,155.953 1601.33,151.871C1606,147.789 1611.19,145.748 1616.9,145.748C1619.75,145.748 1622.95,146.854 1626.49,149.067C1630.03,151.281 1631.8,153.42 1631.8,155.486C1631.8,158.732 1630.6,164.24 1628.18,172.011C1625.78,179.782 1621.94,185.019 1616.68,187.724C1611.41,190.429 1607.4,191.782 1604.65,191.782ZM1585.32,356.591C1585.32,364.067 1586.36,372.477 1588.42,381.821C1588.82,383.592 1589.01,385.067 1589.01,386.248C1589.01,388.018 1587.39,390.305 1584.14,393.109C1580.9,395.912 1577.45,397.314 1573.81,397.314C1564.27,397.314 1559.5,388.559 1559.5,371.05C1559.5,352.951 1563.24,324.327 1570.72,285.179C1573.27,271.506 1574.55,263.096 1574.55,259.948C1574.55,253.751 1575.68,248.464 1577.94,244.087C1580.21,239.71 1583.4,237.521 1587.54,237.521C1592.55,237.521 1596.51,238.726 1599.41,241.136C1602.32,243.546 1603.77,246.226 1603.77,249.177C1603.77,252.128 1603.08,256.014 1601.7,260.834C1594.32,286.802 1589.75,305.392 1587.98,316.606C1586.21,327.819 1585.32,341.148 1585.32,356.591Z" style="fill-rule:nonzero;"/>
        <path d="M1770.79,339.328C1770.79,349.361 1761.91,361.46 1744.16,375.624C1726.4,389.789 1708.08,396.871 1689.19,396.871C1673.36,396.871 1661.14,392.199 1652.53,382.854C1643.92,373.509 1639.62,360.476 1639.62,343.754C1639.62,315.622 1649.11,288.867 1668.1,263.489C1687.08,238.111 1707.84,225.422 1730.36,225.422C1737.74,225.422 1743.76,227.832 1748.43,232.652C1753.11,237.472 1755.44,243.276 1755.44,250.063C1755.44,265.211 1748.02,279.719 1733.16,293.589C1718.31,307.458 1698.44,321.081 1673.56,334.459C1668.44,337.115 1665.88,340.558 1665.88,344.787C1665.88,352.951 1668.24,359.493 1672.97,364.411C1677.69,369.329 1684.67,371.788 1693.92,371.788C1715.07,371.788 1736.66,360.083 1758.69,336.672C1761.93,333.426 1764.39,331.803 1766.07,331.803C1769.21,331.803 1770.79,334.311 1770.79,339.328ZM1668.24,316.311C1709.95,291.523 1730.8,271.604 1730.8,256.555C1730.8,250.653 1728.15,247.702 1722.84,247.702C1713.79,247.702 1703.58,254.341 1692.22,267.621C1680.86,280.9 1672.87,297.13 1668.24,316.311Z" style="fill-rule:nonzero;"/>
        <path d="M1853.27,139.551C1860.35,139.551 1863.89,144.075 1863.89,153.125C1863.89,161.191 1859.61,180.372 1851.05,210.668C1845.64,229.75 1841.46,250.8 1838.51,273.818C1835.56,296.835 1834.09,314.885 1834.09,327.967C1834.09,344.197 1835.12,360.329 1837.18,376.362C1837.58,379.411 1837.77,381.625 1837.77,383.002C1837.77,387.92 1836.1,392.149 1832.76,395.691C1829.41,399.232 1825.87,401.002 1822.13,401.002C1816.92,401.002 1813.31,397.756 1811.29,391.264C1809.27,384.772 1808.27,374.296 1808.27,359.837C1808.27,326.885 1812.22,286.064 1820.14,237.374C1828.06,188.684 1834.36,160.207 1839.03,151.945C1843.7,143.682 1848.45,139.551 1853.27,139.551Z" style="fill-rule:nonzero;"/>
        <path d="M2014.39,339.328C2014.39,349.361 2005.51,361.46 1987.75,375.624C1970,389.789 1951.68,396.871 1932.79,396.871C1916.96,396.871 1904.74,392.199 1896.13,382.854C1887.52,373.509 1883.22,360.476 1883.22,343.754C1883.22,315.622 1892.71,288.867 1911.69,263.489C1930.68,238.111 1951.43,225.422 1973.96,225.422C1981.34,225.422 1987.36,227.832 1992.03,232.652C1996.71,237.472 1999.04,243.276 1999.04,250.063C1999.04,265.211 1991.62,279.719 1976.76,293.589C1961.91,307.458 1942.04,321.081 1917.15,334.459C1912.04,337.115 1909.48,340.558 1909.48,344.787C1909.48,352.951 1911.84,359.493 1916.56,364.411C1921.29,369.329 1928.27,371.788 1937.52,371.788C1958.66,371.788 1980.25,360.083 2002.29,336.672C2005.53,333.426 2007.99,331.803 2009.66,331.803C2012.81,331.803 2014.39,334.311 2014.39,339.328ZM1911.84,316.311C1953.55,291.523 1974.4,271.604 1974.4,256.555C1974.4,250.653 1971.75,247.702 1966.43,247.702C1957.38,247.702 1947.18,254.341 1935.82,267.621C1924.46,280.9 1916.47,297.13 1911.84,316.311Z" style="fill-rule:nonzero;"/>
        <path d="M2075.03,330.77C2076.01,329 2077.19,326.541 2078.57,323.393C2085.26,308.048 2091.41,296.023 2097.01,287.318C2102.62,278.613 2108.79,270.276 2115.53,262.309C2122.27,254.341 2128.41,248.292 2133.97,244.161C2139.53,240.03 2144.57,237.152 2149.1,235.529C2153.62,233.906 2158,233.095 2162.23,233.095C2170.78,233.095 2177.77,235.677 2183.18,240.841C2188.59,246.005 2191.29,252.03 2191.29,258.915C2191.29,261.965 2190.34,264.719 2188.42,267.178C2186.5,269.637 2183.57,270.867 2179.64,270.867C2175.51,270.867 2171.72,269.047 2168.28,265.407C2164.74,261.768 2161.05,259.948 2157.21,259.948C2146.98,259.948 2132.82,272.342 2114.72,297.13C2096.62,321.918 2085.6,349.214 2081.67,379.018C2080.68,386.69 2078.82,391.756 2076.06,394.215C2073.31,396.674 2069.42,397.904 2064.4,397.904C2059.59,397.904 2056.09,394.313 2053.93,387.133C2051.76,379.952 2050.68,367.854 2050.68,350.837C2050.68,346.213 2050.93,336.033 2051.42,320.295C2052.01,301.704 2053.19,286.703 2054.96,275.293C2055.26,273.424 2055.75,269.047 2056.44,262.161C2057.13,254.587 2057.99,249.325 2059.02,246.374C2060.05,243.423 2062.17,240.669 2065.36,238.111C2068.56,235.554 2072.03,234.275 2075.77,234.275C2079.41,234.275 2082.14,235.431 2083.95,237.743C2085.77,240.054 2086.68,242.538 2086.68,245.194C2086.68,249.03 2085.7,254.44 2083.73,261.424C2081.47,269.194 2080.14,274.555 2079.75,277.506C2079.45,280.851 2078.91,284.343 2078.13,287.982C2077.14,292.212 2076.16,303.327 2075.18,321.327L2075.03,326.787L2075.03,330.77Z" style="fill-rule:nonzero;"/>
        <path d="M355.748,654.044C392.339,586.468 422.488,552.68 446.194,552.68C452.489,552.68 457.604,556.27 461.538,563.45C465.473,570.631 468.67,586.566 471.129,611.255C473.588,637.518 479.146,656.503 487.802,668.208C492.228,674.208 494.441,678.635 494.441,681.487C494.441,684.045 492.966,686.405 490.015,688.569C487.064,690.733 483.916,691.815 480.572,691.815C472.9,691.815 466.112,687.512 460.211,678.905C454.309,670.298 450.522,655.175 448.85,633.535C447.177,613.075 445.407,599.698 443.538,593.402C441.669,587.107 438.57,583.959 434.242,583.959C423.914,583.959 403.11,610.96 371.83,664.962C362.486,681.094 355.6,691.643 351.174,696.611C346.748,701.578 342.715,704.062 339.075,704.062C334.747,704.062 331.108,702.783 328.157,700.226C325.206,697.668 323.73,694.52 323.73,690.783C323.73,688.028 324.517,682.717 326.091,674.848C338.19,612.386 347.731,550.614 354.715,489.53C356.289,475.267 358.822,465.775 362.314,461.053C365.806,456.332 368.732,453.971 371.093,453.971C375.322,453.971 379.159,455.693 382.601,459.135C386.044,462.578 387.765,467.349 387.765,473.447C387.765,491.546 383.339,516.383 374.486,547.958C370.158,563.598 365.584,583.467 360.765,607.567C355.945,631.666 353.535,646.568 353.535,652.273C353.535,653.453 354.076,654.044 355.158,654.044L355.748,654.044Z" style="fill-rule:nonzero;"/>
        <path d="M568.214,500.743C566.149,500.743 564.575,498.53 563.493,494.104C563.099,492.727 562.558,491.202 561.87,489.53C559.214,483.136 557.886,477.579 557.886,472.857C557.886,468.923 560.222,464.914 564.894,460.832C569.567,456.75 574.755,454.709 580.461,454.709C583.313,454.709 586.51,455.816 590.051,458.029C593.592,460.242 595.363,462.381 595.363,464.447C595.363,467.693 594.158,473.201 591.748,480.972C589.338,488.743 585.502,493.981 580.239,496.686C574.977,499.391 570.968,500.743 568.214,500.743ZM548.886,665.552C548.886,673.028 549.919,681.438 551.984,690.783C552.378,692.553 552.574,694.029 552.574,695.209C552.574,696.98 550.951,699.266 547.705,702.07C544.459,704.873 541.017,706.275 537.377,706.275C527.836,706.275 523.065,697.521 523.065,680.012C523.065,661.913 526.803,633.289 534.279,594.14C536.836,580.467 538.115,572.057 538.115,568.91C538.115,562.713 539.246,557.426 541.508,553.048C543.771,548.671 546.968,546.483 551.099,546.483C556.115,546.483 560.075,547.688 562.976,550.097C565.878,552.507 567.329,555.188 567.329,558.139C567.329,561.09 566.64,564.975 565.263,569.795C557.886,595.763 553.312,614.354 551.542,625.567C549.771,636.781 548.886,650.109 548.886,665.552Z" style="fill-rule:nonzero;"/>
        <path d="M708.53,584.845C703.416,584.845 697.833,588.189 691.784,594.878C685.735,601.566 676.513,616.567 664.119,639.879C647.791,671.159 637.241,688.963 632.471,693.291C627.7,697.619 623.741,699.783 620.593,699.783C608.986,699.783 603.183,694.176 603.183,682.963C603.183,678.241 603.97,671.552 605.543,662.896C610.953,633.19 613.658,601.862 613.658,568.91C613.658,565.172 615.257,561.016 618.454,556.442C621.65,551.868 624.675,549.581 627.528,549.581C632.643,549.581 636.282,551.155 638.446,554.303C640.61,557.45 641.692,563.795 641.692,573.336C641.692,583.271 638.741,603.73 632.839,634.715C630.872,644.945 629.888,651.437 629.888,654.191C629.888,655.765 630.282,656.552 631.069,656.552C632.544,656.552 639.381,644.797 651.578,621.288C663.873,597.386 674.644,580.566 683.89,570.828C693.137,561.09 703.317,556.221 714.432,556.221C723.285,556.221 730.49,560.254 736.048,568.319C741.605,576.385 745.663,591.091 748.22,612.436C750.975,636.732 753.458,651.855 755.671,657.806C757.885,663.757 761.401,666.733 766.221,666.733C769.27,666.733 773.106,665.651 777.73,663.487C778.516,663.093 779.107,662.896 779.5,662.896C783.73,662.896 785.845,665.355 785.845,670.274C785.845,674.602 782.943,679.2 777.139,684.069C771.336,688.938 764.352,691.373 756.188,691.373C747.827,691.373 741.359,688.053 736.786,681.413C732.212,674.774 728.597,657.044 725.941,628.223C723.187,599.304 717.383,584.845 708.53,584.845Z" style="fill-rule:nonzero;"/>
        <path d="M933.686,696.684C931.128,695.602 928.669,694.422 926.308,693.143C917.652,688.815 905.947,686.651 891.192,686.651C882.635,686.651 868.372,688.299 848.404,691.594C828.436,694.889 814.813,699.93 807.534,706.718C802.517,711.144 797.255,713.357 791.746,713.357C788.697,713.357 785.279,712.472 781.492,710.701C777.705,708.931 775.713,706.521 775.516,703.472C780.139,698.357 786.533,691.668 794.697,683.405C839.06,638.355 872.798,600.976 895.914,571.27C895.52,570.385 893.947,569.942 891.192,569.942C885.979,569.942 874.864,571.172 857.847,573.631C850.175,574.811 842.207,575.402 833.945,575.402C813.78,575.402 803.698,570.09 803.698,559.467C803.698,551.401 808.173,547.368 817.124,547.368C817.616,547.368 818.551,547.614 819.928,548.106C827.01,551.057 835.568,552.532 845.601,552.532C858.88,552.532 873.88,551.45 890.602,549.286C892.274,548.991 894.242,548.696 896.504,548.401C898.668,548.204 901.176,547.81 904.029,547.22C909.734,546.237 914.259,545.745 917.603,545.745C920.948,545.745 924.366,546.63 927.858,548.401C931.35,550.171 932.85,553.024 932.358,556.958L932.21,557.549C930.046,566.106 904.029,596.992 854.158,650.207C842.158,663.093 835.715,670.716 834.83,673.077C835.223,674.061 836.207,674.553 837.781,674.553C839.158,674.553 846.043,673.225 858.437,670.569C881.651,665.552 899.258,663.044 911.259,663.044C930.046,663.044 939.44,668.749 939.44,680.159C939.44,687.34 937.522,692.848 933.686,696.684Z" style="fill-rule:nonzero;"/>
        <path d="M1064.41,634.125C1051.82,655.273 1038.93,671.651 1025.75,683.258C1012.57,694.865 1000.33,700.668 989.015,700.668C982.523,700.668 975.908,696.881 969.17,689.307C962.433,681.733 959.064,670.077 959.064,654.339C959.064,641.453 962.162,622.469 968.359,597.386C973.572,576.434 976.179,561.729 976.179,553.27C979.031,547.368 983.507,544.417 989.606,544.417C993.737,544.417 997.032,545.868 999.491,548.77C1001.95,551.671 1003.18,554.696 1003.18,557.844C1003.18,564.729 1000.77,574.516 995.95,587.205C986.802,611.895 982.228,633.092 982.228,650.798C982.228,666.929 985.966,674.995 993.442,674.995C1002.98,674.995 1015.13,666.88 1029.89,650.65C1044.64,634.42 1057.28,611.796 1067.81,582.779C1071.94,571.172 1075.31,563.623 1077.91,560.131C1080.52,556.639 1084.04,554.893 1088.46,554.893C1095.15,554.893 1098.5,559.319 1098.5,568.172C1098.5,569.254 1097.56,572.844 1095.69,578.943C1089.79,600.484 1086.84,620.846 1086.84,640.027C1086.84,663.044 1090.63,677.946 1098.2,684.733C1102.13,688.373 1104.1,691.324 1104.1,693.586C1104.1,696.34 1102.11,698.848 1098.13,701.111C1094.14,703.373 1090.53,704.504 1087.28,704.504C1080.4,704.504 1074.84,699.389 1070.61,689.16C1066.38,678.93 1064.26,663.831 1064.26,643.863L1064.26,638.994C1064.26,637.42 1064.31,635.797 1064.41,634.125Z" style="fill-rule:nonzero;"/>
        <path d="M1173.89,705.095C1173.2,707.554 1171.33,709.619 1168.28,711.291C1165.24,712.964 1162.18,713.8 1159.14,713.8C1149.1,713.8 1144.09,706.472 1144.09,691.815C1144.09,684.832 1146.4,665.06 1151.02,632.502C1153.87,612.534 1155.3,597.386 1155.3,587.058C1155.3,585.287 1153.23,582.976 1149.1,580.123C1144.87,577.369 1142.76,574.664 1142.76,572.008C1142.76,567.778 1145.95,563.204 1152.35,558.286C1157.27,554.45 1160.29,550.171 1161.42,545.45C1162.55,540.728 1163.86,534.187 1165.33,525.826C1170.35,495.333 1178.19,473.349 1188.87,459.873C1199.54,446.397 1213.14,439.659 1229.66,439.659C1238.42,439.659 1245.84,442.635 1251.94,448.586C1258.04,454.537 1261.09,461.939 1261.09,470.791C1261.09,477.972 1259.39,486.112 1256,495.21C1252.61,504.309 1248.75,508.858 1244.42,508.858C1241.17,508.858 1239.55,507.235 1239.55,503.989L1240.58,489.677C1240.58,470.693 1235.27,461.201 1224.65,461.201C1213.14,461.201 1203.6,472.488 1196.02,495.063C1188.45,517.637 1184.66,536.007 1184.66,550.171C1184.66,554.696 1187.61,556.958 1193.51,556.958C1219.19,556.958 1234.31,556.86 1238.88,556.663C1243.46,556.467 1245.75,558.385 1245.75,562.418C1245.75,566.45 1243.26,569.524 1238.29,571.639C1233.33,573.754 1222.48,575.648 1205.76,577.32C1191.5,578.795 1183.43,580.025 1181.56,581.008C1174.97,617.6 1171.68,650.207 1171.68,678.831C1171.68,687.389 1172.07,693.733 1172.86,697.865C1173.55,701.701 1173.89,704.111 1173.89,705.095Z" style="fill-rule:nonzero;"/>
        <path d="M1361.27,634.125C1348.68,655.273 1335.8,671.651 1322.62,683.258C1309.44,694.865 1297.19,700.668 1285.88,700.668C1279.39,700.668 1272.77,696.881 1266.03,689.307C1259.3,681.733 1255.93,670.077 1255.93,654.339C1255.93,641.453 1259.03,622.469 1265.22,597.386C1270.43,576.434 1273.04,561.729 1273.04,553.27C1275.89,547.368 1280.37,544.417 1286.47,544.417C1290.6,544.417 1293.89,545.868 1296.35,548.77C1298.81,551.671 1300.04,554.696 1300.04,557.844C1300.04,564.729 1297.63,574.516 1292.81,587.205C1283.66,611.895 1279.09,633.092 1279.09,650.798C1279.09,666.929 1282.83,674.995 1290.3,674.995C1299.85,674.995 1311.99,666.88 1326.75,650.65C1341.5,634.42 1354.14,611.796 1364.67,582.779C1368.8,571.172 1372.17,563.623 1374.77,560.131C1377.38,556.639 1380.9,554.893 1385.32,554.893C1392.01,554.893 1395.36,559.319 1395.36,568.172C1395.36,569.254 1394.42,572.844 1392.55,578.943C1386.65,600.484 1383.7,620.846 1383.7,640.027C1383.7,663.044 1387.49,677.946 1395.06,684.733C1399,688.373 1400.96,691.324 1400.96,693.586C1400.96,696.34 1398.97,698.848 1394.99,701.111C1391.01,703.373 1387.39,704.504 1384.14,704.504C1377.26,704.504 1371.7,699.389 1367.47,689.16C1363.24,678.93 1361.13,663.831 1361.13,643.863L1361.13,638.994C1361.13,637.42 1361.18,635.797 1361.27,634.125ZM1369.83,515.35C1366.09,515.35 1362.92,514.047 1360.32,511.44C1357.71,508.834 1356.4,505.711 1356.4,502.071C1356.4,498.235 1357.32,495.432 1359.13,493.661C1360.95,491.891 1365.75,490.071 1373.52,488.202L1375.73,487.612C1378.49,486.825 1380.87,487.513 1382.89,489.677C1384.91,491.841 1385.91,494.94 1385.91,498.973C1385.91,509.891 1380.55,515.35 1369.83,515.35ZM1314.5,519.334C1312.24,519.334 1308.97,518.596 1304.69,517.121C1300.41,515.645 1298.27,513.777 1298.27,511.514C1298.27,499.219 1301.66,493.071 1308.45,493.071C1314.75,493.071 1319.79,494.792 1323.58,498.235C1327.36,501.678 1329.26,506.498 1329.26,512.695C1329.26,517.121 1324.34,519.334 1314.5,519.334Z" style="fill-rule:nonzero;"/>
        <path d="M1545.71,644.896C1544.53,644.01 1541.23,646.765 1535.82,653.158C1526.87,663.683 1515.43,673.028 1501.52,681.192C1487.6,689.356 1474.69,693.438 1462.79,693.438C1453.93,693.438 1447,690.66 1441.98,685.102C1436.96,679.544 1434.46,671.848 1434.46,662.011C1434.46,646.765 1440.21,629.772 1451.72,611.034C1463.23,592.296 1479.34,575.943 1500.04,561.975C1520.75,548.007 1538.87,541.023 1554.41,541.023C1562.58,541.023 1569.76,543.384 1575.95,548.106C1577.43,549.286 1578.71,550.27 1579.79,551.057C1581.56,552.335 1583.23,554.917 1584.81,558.803C1586.38,562.688 1587.17,565.811 1587.17,568.172C1587.17,569.647 1586.63,571.91 1585.54,574.959C1579.54,591.287 1575.46,604.812 1573.3,615.534C1571.13,626.256 1568.77,644.306 1566.22,669.683C1563.86,692.504 1561.3,710.062 1558.54,722.357C1555.79,734.653 1550.82,746.555 1543.64,758.064C1536.46,769.572 1527.85,778.204 1517.82,783.958C1507.79,789.712 1497.46,792.589 1486.84,792.589C1468.44,792.589 1450.29,786.245 1432.39,773.556C1414.49,760.867 1405.54,750.686 1405.54,743.014C1405.54,738.194 1407.36,735.784 1411,735.784C1412.77,735.784 1418.03,738.686 1426.78,744.489C1449.9,759.932 1470.7,767.654 1489.2,767.654C1505.33,767.654 1517.6,759.047 1526.01,741.833C1534.42,724.62 1540.15,698.898 1543.2,664.667C1543.89,656.896 1544.72,650.306 1545.71,644.896ZM1545.41,563.893C1537.05,563.893 1526.6,568.221 1514.06,576.877C1501.52,585.533 1489.34,598.222 1477.54,614.944C1465.74,631.666 1459.84,645.683 1459.84,656.995C1459.84,660.831 1461.04,663.855 1463.45,666.069C1465.86,668.282 1468.54,669.388 1471.49,669.388C1480.25,669.388 1491.68,664.864 1505.8,655.814C1519.91,646.765 1532.06,634.199 1542.24,618.116C1552.42,602.034 1557.51,589.418 1557.51,580.271C1557.51,569.352 1553.48,563.893 1545.41,563.893Z" style="fill-rule:nonzero;"/>
        <path d="M1741.2,648.289C1741.2,658.322 1732.33,670.421 1714.57,684.586C1696.82,698.75 1678.5,705.832 1659.61,705.832C1643.78,705.832 1631.55,701.16 1622.95,691.815C1614.34,682.471 1610.04,669.438 1610.04,652.716C1610.04,624.584 1619.53,597.829 1638.51,572.451C1657.5,547.073 1678.25,534.384 1700.78,534.384C1708.15,534.384 1714.18,536.794 1718.85,541.614C1723.52,546.433 1725.86,552.237 1725.86,559.024C1725.86,574.172 1718.43,588.681 1703.58,602.55C1688.73,616.419 1668.86,630.043 1643.97,643.42C1638.86,646.076 1636.3,649.519 1636.3,653.749C1636.3,661.913 1638.66,668.454 1643.38,673.372C1648.1,678.29 1655.09,680.749 1664.33,680.749C1685.48,680.749 1707.07,669.044 1729.11,645.633C1732.35,642.387 1734.81,640.764 1736.48,640.764C1739.63,640.764 1741.2,643.273 1741.2,648.289ZM1638.66,625.272C1680.37,600.484 1701.22,580.566 1701.22,565.516C1701.22,559.614 1698.56,556.663 1693.25,556.663C1684.2,556.663 1674,563.303 1662.64,576.582C1651.28,589.861 1643.28,606.091 1638.66,625.272Z" style="fill-rule:nonzero;"/>
        <path d="M1872.52,584.845C1867.41,584.845 1861.82,588.189 1855.77,594.878C1849.73,601.566 1840.5,616.567 1828.11,639.879C1811.78,671.159 1801.23,688.963 1796.46,693.291C1791.69,697.619 1787.73,699.783 1784.58,699.783C1772.98,699.783 1767.17,694.176 1767.17,682.963C1767.17,678.241 1767.96,671.552 1769.53,662.896C1774.94,633.19 1777.65,601.862 1777.65,568.91C1777.65,565.172 1779.25,561.016 1782.44,556.442C1785.64,551.868 1788.67,549.581 1791.52,549.581C1796.63,549.581 1800.27,551.155 1802.44,554.303C1804.6,557.45 1805.68,563.795 1805.68,573.336C1805.68,583.271 1802.73,603.73 1796.83,634.715C1794.86,644.945 1793.88,651.437 1793.88,654.191C1793.88,655.765 1794.27,656.552 1795.06,656.552C1796.54,656.552 1803.37,644.797 1815.57,621.288C1827.86,597.386 1838.63,580.566 1847.88,570.828C1857.13,561.09 1867.31,556.221 1878.42,556.221C1887.28,556.221 1894.48,560.254 1900.04,568.319C1905.6,576.385 1909.65,591.091 1912.21,612.436C1914.97,636.732 1917.45,651.855 1919.66,657.806C1921.88,663.757 1925.39,666.733 1930.21,666.733C1933.26,666.733 1937.1,665.651 1941.72,663.487C1942.51,663.093 1943.1,662.896 1943.49,662.896C1947.72,662.896 1949.84,665.355 1949.84,670.274C1949.84,674.602 1946.93,679.2 1941.13,684.069C1935.33,688.938 1928.34,691.373 1920.18,691.373C1911.82,691.373 1905.35,688.053 1900.78,681.413C1896.2,674.774 1892.59,657.044 1889.93,628.223C1887.18,599.304 1881.37,584.845 1872.52,584.845Z" style="fill-rule:nonzero;"/>
    </g>
</svg>
