<?xml version="1.0" encoding="UTF-8" standalone="no"?>
<!DOCTYPE svg PUBLIC "-//W3C//DTD SVG 1.1//EN" "http://www.w3.org/Graphics/SVG/1.1/DTD/svg11.dtd">
<svg width="100%" height="100%" viewBox="0 0 210 75" version="1.1" xmlns="http://www.w3.org/2000/svg" xmlns:xlink="http://www.w3.org/1999/xlink" xml:space="preserve" xmlns:serif="http://www.serif.com/" style="fill-rule:evenodd;clip-rule:evenodd;stroke-linejoin:round;stroke-miterlimit:1.41421;">
    <g transform="matrix(0.11686,0,0,0.105824,-3.25731,-12.2952)">
        <path d="M228.047,178.208C228.932,178.896 229.375,181.306 229.375,185.438C229.375,189.667 228.932,192.864 228.047,195.028L229.965,201.225C233.211,212.832 236.408,222.373 239.556,229.849C243.49,239.882 247.375,250.653 251.212,262.161C259.966,288.621 269.089,311.27 278.581,330.106C288.074,348.943 296.754,362.198 304.623,369.87C309.541,374.69 312.615,378.01 313.845,379.829C315.074,381.649 315.689,383.789 315.689,386.248C315.689,390.576 314.238,394.24 311.337,397.24C308.435,400.24 304.968,401.74 300.935,401.74C288.344,401.74 273.098,381.92 255.195,342.279C248.015,326.639 243.687,318.819 242.211,318.819C237.49,318.819 227.334,320.245 211.743,323.098C196.152,325.95 181.914,329.295 169.029,333.131C161.651,335.393 156.979,336.525 155.012,336.525C152.553,336.525 149.995,335.295 147.339,332.836C146.847,332.443 146.257,332.246 145.569,332.246C143.405,332.246 138.732,338.639 131.552,351.427C119.748,372.575 112.297,385.19 109.199,389.272C106.1,393.354 102.682,395.395 98.944,395.395C96.288,395.395 93.092,393.846 89.354,390.748C85.616,387.649 83.747,384.477 83.747,381.231C83.747,378.083 85.517,373.829 89.059,368.468C92.6,363.107 99.829,352.312 110.748,336.082C130.224,307.261 146.651,280.211 160.028,254.932C181.176,214.701 194.603,190.97 200.308,183.741C206.013,176.511 210.391,172.896 213.44,172.896C219.932,172.896 224.801,174.667 228.047,178.208ZM237.047,295.507C233.604,287.638 228.539,273.227 221.85,252.276C214.571,229.947 209.948,216.373 207.981,211.553C202.571,222.963 194.21,239.144 182.898,260.096L156.192,310.704C158.258,309.13 163.717,307.852 172.57,306.868C179.357,306.179 185.259,305.294 190.275,304.212C217.129,298.802 232.719,295.9 237.047,295.507Z" style="fill-rule:nonzero;"/>
        <path d="M448.481,328.262C435.3,349.41 421.332,365.714 406.578,377.174C391.823,388.633 378.249,394.363 365.855,394.363C356.314,394.363 348.764,390.699 343.207,383.37C337.649,376.042 334.87,366.28 334.87,354.083C334.87,329.196 344.977,303.671 365.191,277.506C385.405,251.341 407.217,238.259 430.628,238.259C440.857,238.259 450.35,242.636 459.104,251.391L479.76,154.895C481.236,148.305 483.965,143.879 487.949,141.616C491.933,139.354 495.056,138.223 497.318,138.223C504.204,138.223 507.647,144.321 507.647,156.518C507.647,158.682 505.384,166.748 500.859,180.716C493.679,202.356 486.867,228.939 480.424,260.465C473.982,291.99 470.76,317.294 470.76,336.377C470.76,356.05 475.039,365.886 483.597,365.886C489.105,365.886 494.81,364.067 500.712,360.427C503.171,358.657 505.483,357.771 507.647,357.771C510.794,357.771 512.368,359.837 512.368,363.968C512.368,368.985 507.966,374.788 499.163,381.379C490.359,387.969 481.334,391.264 472.088,391.264C455.858,391.264 447.743,375.624 447.743,344.345C447.743,339.033 447.989,333.672 448.481,328.262ZM429.152,259.211C413.217,259.211 397.43,270.006 381.79,291.597C366.15,313.188 358.33,333.131 358.33,351.427C358.33,363.722 362.412,369.87 370.576,369.87C378.249,369.87 387.569,365.837 398.536,357.771C409.504,349.705 420.791,336.844 432.398,319.188C444.005,301.532 449.809,288.277 449.809,279.424C449.809,275.096 447.817,270.645 443.833,266.071C439.849,261.497 434.956,259.211 429.152,259.211Z" style="fill-rule:nonzero;"/>
        <path d="M648.258,328.262C635.077,349.41 621.109,365.714 606.355,377.174C591.6,388.633 578.026,394.363 565.632,394.363C556.091,394.363 548.541,390.699 542.984,383.37C537.426,376.042 534.648,366.28 534.648,354.083C534.648,329.196 544.754,303.671 564.968,277.506C585.182,251.341 606.994,238.259 630.405,238.259C640.635,238.259 650.127,242.636 658.881,251.391L679.538,154.895C681.013,148.305 683.743,143.879 687.726,141.616C691.71,139.354 694.833,138.223 697.096,138.223C703.981,138.223 707.424,144.321 707.424,156.518C707.424,158.682 705.162,166.748 700.637,180.716C693.456,202.356 686.644,228.939 680.202,260.465C673.759,291.99 670.537,317.294 670.537,336.377C670.537,356.05 674.816,365.886 683.374,365.886C688.882,365.886 694.587,364.067 700.489,360.427C702.948,358.657 705.26,357.771 707.424,357.771C710.572,357.771 712.145,359.837 712.145,363.968C712.145,368.985 707.744,374.788 698.94,381.379C690.136,387.969 681.112,391.264 671.865,391.264C655.635,391.264 647.52,375.624 647.52,344.345C647.52,339.033 647.766,333.672 648.258,328.262ZM628.929,259.211C612.994,259.211 597.207,270.006 581.567,291.597C565.927,313.188 558.107,333.131 558.107,351.427C558.107,363.722 562.189,369.87 570.354,369.87C578.026,369.87 587.346,365.837 598.314,357.771C609.281,349.705 620.568,336.844 632.175,319.188C643.782,301.532 649.586,288.277 649.586,279.424C649.586,275.096 647.594,270.645 643.61,266.071C639.626,261.497 634.733,259.211 628.929,259.211Z" style="fill-rule:nonzero;"/>
        <path d="M962.531,335.639C948.76,354.132 935.137,368.001 921.661,377.247C908.185,386.494 895.84,391.117 884.627,391.117C877.053,391.117 870.511,387.92 865.003,381.526C859.495,375.132 856.74,366.919 856.74,356.886C856.74,331.016 868.298,303.155 891.414,273.301C914.529,243.448 937.497,228.521 960.318,228.521C968.58,228.521 974.728,233.242 978.761,242.685C980.04,245.833 982.056,247.407 984.81,247.407C992.679,247.407 996.614,250.456 996.614,256.555C996.614,259.604 996.122,263.784 995.139,269.096C989.827,298.113 987.171,318.573 987.171,330.475C987.171,354.279 991.696,368.542 1000.75,373.264C1005.07,375.624 1007.24,378.526 1007.24,381.969C1007.24,385.018 1005.12,388.092 1000.89,391.19C996.663,394.289 992.581,395.838 988.647,395.838C981.073,395.838 974.826,390.625 969.908,380.198C964.99,369.772 962.531,354.919 962.531,335.639ZM953.531,252.571C940.547,252.571 925.448,264.743 908.234,289.089C891.02,313.434 882.413,333.623 882.413,349.656C882.413,360.968 886.151,366.624 893.627,366.624C904.447,366.624 919.447,355.706 938.628,333.869C957.809,312.032 967.4,291.966 967.4,273.67C967.4,259.604 962.777,252.571 953.531,252.571Z" style="fill-rule:nonzero;"/>
        <path d="M1261.75,275.883C1256.64,275.883 1251.06,279.228 1245.01,285.916C1238.96,292.605 1229.74,307.606 1217.34,330.918C1201.01,362.198 1190.46,380.002 1185.69,384.33C1180.92,388.658 1176.96,390.822 1173.82,390.822C1162.21,390.822 1156.41,385.215 1156.41,374.001C1156.41,369.28 1157.19,362.591 1158.77,353.935C1164.18,324.229 1166.88,292.9 1166.88,259.948C1166.88,256.21 1168.48,252.055 1171.68,247.481C1174.87,242.907 1177.9,240.62 1180.75,240.62C1185.87,240.62 1189.51,242.194 1191.67,245.341C1193.83,248.489 1194.92,254.833 1194.92,264.375C1194.92,274.309 1191.96,294.769 1186.06,325.754C1184.1,335.984 1183.11,342.476 1183.11,345.23C1183.11,346.804 1183.51,347.591 1184.29,347.591C1185.77,347.591 1192.6,335.836 1204.8,312.327C1217.1,288.425 1227.87,271.604 1237.11,261.866C1246.36,252.128 1256.54,247.259 1267.66,247.259C1276.51,247.259 1283.71,251.292 1289.27,259.358C1294.83,267.424 1298.89,282.129 1301.44,303.474C1304.2,327.77 1306.68,342.894 1308.89,348.845C1311.11,354.796 1314.63,357.771 1319.44,357.771C1322.49,357.771 1326.33,356.689 1330.95,354.525C1331.74,354.132 1332.33,353.935 1332.72,353.935C1336.95,353.935 1339.07,356.394 1339.07,361.312C1339.07,365.64 1336.17,370.239 1330.36,375.108C1324.56,379.977 1317.58,382.411 1309.41,382.411C1301.05,382.411 1294.58,379.092 1290.01,372.452C1285.43,365.812 1281.82,348.082 1279.16,319.262C1276.41,290.343 1270.61,275.883 1261.75,275.883Z" style="fill-rule:nonzero;"/>
        <path d="M1487.94,339.328C1487.94,349.361 1479.07,361.46 1461.31,375.624C1443.56,389.789 1425.24,396.871 1406.35,396.871C1390.51,396.871 1378.29,392.199 1369.68,382.854C1361.08,373.509 1356.77,360.476 1356.77,343.754C1356.77,315.622 1366.27,288.867 1385.25,263.489C1404.23,238.111 1424.99,225.422 1447.52,225.422C1454.89,225.422 1460.92,227.832 1465.59,232.652C1470.26,237.472 1472.6,243.276 1472.6,250.063C1472.6,265.211 1465.17,279.719 1450.32,293.589C1435.46,307.458 1415.6,321.081 1390.71,334.459C1385.6,337.115 1383.04,340.558 1383.04,344.787C1383.04,352.951 1385.4,359.493 1390.12,364.411C1394.84,369.329 1401.83,371.788 1411.07,371.788C1432.22,371.788 1453.81,360.083 1475.84,336.672C1479.09,333.426 1481.55,331.803 1483.22,331.803C1486.37,331.803 1487.94,334.311 1487.94,339.328ZM1385.4,316.311C1427.1,291.523 1447.96,271.604 1447.96,256.555C1447.96,250.653 1445.3,247.702 1439.99,247.702C1430.94,247.702 1420.74,254.341 1409.37,267.621C1398.01,280.9 1390.02,297.13 1385.4,316.311Z" style="fill-rule:nonzero;"/>
        <path d="M1635.64,291.671C1632.88,291.769 1626.24,303.228 1615.72,326.049C1607.06,344.836 1598.21,361.583 1589.16,376.288C1580.11,390.994 1573.47,398.346 1569.24,398.346C1557.04,398.346 1545.76,380.223 1535.38,343.976C1525,307.729 1519.81,278.539 1519.81,256.407C1519.81,249.227 1521.61,243.276 1525.2,238.554C1528.79,233.833 1533.04,231.275 1537.96,230.882C1538.65,230.783 1539.88,230.808 1541.65,230.955C1543.42,231.103 1545.58,232.726 1548.14,235.824C1550.7,238.923 1551.98,241.948 1551.98,244.899L1551.98,245.489C1551.98,246.669 1551.44,251.587 1550.35,260.243C1549.47,266.637 1549.03,274.457 1549.03,283.703C1549.03,298.359 1551.83,314.54 1557.44,332.246C1563.04,349.951 1567.77,358.804 1571.6,358.804C1574.36,358.804 1583.45,343.853 1598.9,313.95C1608.63,294.966 1615.62,281.883 1619.85,274.703L1624.57,265.85C1631.36,252.866 1637.8,243.915 1643.9,238.997C1652.36,240.079 1656.59,244.308 1656.59,251.686C1656.59,254.145 1656.39,256.21 1656,257.883C1655.6,259.555 1655.41,261.62 1655.41,264.08C1655.41,282.277 1660.13,301.335 1669.57,321.254C1679.01,341.172 1685.75,351.132 1689.79,351.132C1692.74,351.132 1697.41,340.705 1703.8,319.852C1712.46,291.523 1720.45,270.276 1727.78,256.112C1735.11,241.948 1740.49,233.538 1743.93,230.882C1747.38,228.226 1751.26,226.898 1755.59,226.898C1758.05,226.898 1760.14,227.955 1761.86,230.07C1763.58,232.185 1764.44,234.472 1764.44,236.931C1764.44,240.571 1763.9,243.079 1762.82,244.456C1750.62,260.489 1738.92,285.523 1727.7,319.557C1718.16,348.771 1711.62,367.116 1708.08,374.591C1704.54,382.067 1701.59,385.805 1699.23,385.805C1687.33,385.805 1677.59,381.452 1670.01,372.747C1662.44,364.042 1652.41,340.902 1639.91,303.327C1638.44,298.9 1637.01,295.015 1635.64,291.671Z" style="fill-rule:nonzero;"/>
        <path d="M499.089,681.192C494.269,698.898 489.744,723.735 485.515,755.703L481.383,783.589C480.695,787.524 478.875,791.434 475.924,795.319C472.973,799.204 470.268,801.147 467.809,801.147C464.76,801.147 461.293,799.598 457.407,796.499C453.522,793.401 451.579,790.917 451.579,789.048C451.579,783.638 452.809,776.163 455.268,766.621C473.268,693.93 482.269,630.092 482.269,575.107L482.121,562.713C481.924,552.089 483.793,544.368 487.728,539.548C491.662,534.728 496.187,532.318 501.302,532.318C503.663,532.318 505.925,534.162 508.089,537.851C510.253,541.54 511.335,546.778 511.335,553.565C511.335,563.106 510.352,574.664 508.384,588.238C505.827,605.353 504.499,615.19 504.401,617.747C519.057,592.173 534.598,572.205 551.025,557.844C567.452,543.482 582.698,536.302 596.764,536.302C606.699,536.302 615.085,540.015 621.921,547.442C628.757,554.868 632.175,564.09 632.175,575.107C632.175,607.173 619.88,636.289 595.289,662.454C570.698,688.619 546.746,701.701 523.434,701.701C517.631,701.701 513.032,700.226 509.638,697.275C506.245,694.324 502.728,688.963 499.089,681.192ZM590.715,562.418C576.846,562.418 559.681,575.402 539.221,601.37C518.762,627.338 508.532,647.552 508.532,662.011C508.532,665.552 510.548,668.995 514.581,672.339C518.614,675.684 523.729,677.356 529.926,677.356C543.992,677.356 560.173,666.954 578.469,646.15C596.764,625.346 605.912,604.911 605.912,584.845C605.912,577.664 604.461,572.131 601.56,568.246C598.658,564.36 595.043,562.418 590.715,562.418Z" style="fill-rule:nonzero;"/>
        <path d="M717.605,448.512C724.687,448.512 728.228,453.037 728.228,462.086C728.228,470.152 723.949,489.333 715.391,519.629C709.981,538.712 705.801,559.762 702.85,582.779C699.899,605.796 698.424,623.846 698.424,636.928C698.424,653.158 699.456,669.29 701.522,685.323C701.916,688.373 702.112,690.586 702.112,691.963C702.112,696.881 700.44,701.111 697.096,704.652C693.751,708.193 690.21,709.964 686.472,709.964C681.259,709.964 677.644,706.718 675.628,700.226C673.611,693.733 672.603,683.258 672.603,668.798C672.603,635.846 676.562,595.025 684.48,546.335C692.399,497.645 698.694,469.168 703.366,460.906C708.039,452.643 712.785,448.512 717.605,448.512Z" style="fill-rule:nonzero;"/>
        <path d="M851.871,644.601C838.1,663.093 824.477,676.962 811.001,686.209C797.525,695.455 785.181,700.078 773.967,700.078C766.393,700.078 759.852,696.881 754.344,690.487C748.835,684.094 746.081,675.88 746.081,665.847C746.081,639.978 757.639,612.116 780.754,582.262C803.87,552.409 826.838,537.482 849.658,537.482C857.921,537.482 864.069,542.204 868.101,551.647C869.38,554.794 871.397,556.368 874.151,556.368C882.02,556.368 885.955,559.417 885.955,565.516C885.955,568.565 885.463,572.746 884.479,578.057C879.167,607.075 876.512,627.535 876.512,639.437C876.512,663.241 881.036,677.503 890.086,682.225C894.414,684.586 896.578,687.487 896.578,690.93C896.578,693.979 894.463,697.053 890.233,700.152C886.004,703.25 881.922,704.799 877.987,704.799C870.413,704.799 864.167,699.586 859.249,689.16C854.331,678.733 851.871,663.88 851.871,644.601ZM842.871,561.532C829.887,561.532 814.788,573.705 797.574,598.05C780.361,622.395 771.754,642.584 771.754,658.618C771.754,669.929 775.492,675.585 782.967,675.585C793.787,675.585 808.788,664.667 827.969,642.83C847.15,620.993 856.74,600.927 856.74,582.631C856.74,568.565 852.117,561.532 842.871,561.532Z" style="fill-rule:nonzero;"/>
        <path d="M1038.81,646.224C1020.71,661.962 1004.8,673.397 991.081,680.528C977.359,687.66 966.859,691.225 959.58,691.225C949.842,691.225 942.391,687.168 937.227,679.053C932.063,670.938 929.481,661.47 929.481,650.65C929.481,635.502 932.555,616.788 938.702,594.509C944.85,572.229 949.424,558.999 952.424,554.819C955.424,550.638 960.219,548.548 966.81,548.548C969.564,548.548 971.826,550.171 973.597,553.417C975.367,556.663 976.253,560.352 976.253,564.483C976.253,566.942 975.122,570.139 972.859,574.074C967.547,583.32 964.769,588.435 964.523,589.418C964.277,590.402 962.383,596.329 958.842,607.198C955.301,618.067 953.531,628.272 953.531,637.814C953.531,641.158 954.342,646.371 955.965,653.453C957.588,660.536 960.957,664.077 966.072,664.077C971.482,664.077 978.146,662.429 986.065,659.134C993.983,655.839 1002.91,650.453 1012.84,642.978C1022.78,635.502 1029.47,629.453 1032.91,624.83C1036.35,620.206 1038.79,614.944 1040.21,609.042C1041.64,603.14 1042.65,590.353 1043.24,570.68C1043.83,551.007 1048.6,541.171 1057.55,541.171C1062.86,541.171 1066.31,542.573 1067.88,545.376C1069.45,548.179 1070.24,553.516 1070.24,561.385C1070.24,567.877 1069.8,575.992 1068.91,585.73C1067.83,598.025 1067.14,606.78 1066.85,611.993C1065.47,639.043 1061.95,666.216 1056.3,693.512C1050.64,720.808 1042.4,743.629 1031.58,761.974C1020.76,780.318 1005.86,789.491 986.876,789.491C967.597,789.491 950.457,784.45 935.456,774.367C920.456,764.285 912.955,755.752 912.955,748.768C912.955,745.522 913.718,742.325 915.242,739.178C916.767,736.03 918.71,734.456 921.071,734.456C922.251,734.456 923.53,735.391 924.907,737.26C937.792,757.031 958.055,766.916 985.696,766.916C999.958,766.916 1011.93,754.399 1021.62,729.366C1031.31,704.332 1036.65,680.848 1037.63,658.913C1037.83,654.683 1038.22,650.453 1038.81,646.224Z" style="fill-rule:nonzero;"/>
        <path d="M1234.61,648.289C1234.61,658.322 1225.73,670.421 1207.97,684.586C1190.22,698.75 1171.9,705.832 1153.01,705.832C1137.18,705.832 1124.95,701.16 1116.35,691.815C1107.74,682.471 1103.44,669.438 1103.44,652.716C1103.44,624.584 1112.93,597.829 1131.91,572.451C1150.9,547.073 1171.65,534.384 1194.18,534.384C1201.56,534.384 1207.58,536.794 1212.25,541.614C1216.92,546.433 1219.26,552.237 1219.26,559.024C1219.26,574.172 1211.83,588.681 1196.98,602.55C1182.13,616.419 1162.26,630.043 1137.37,643.42C1132.26,646.076 1129.7,649.519 1129.7,653.749C1129.7,661.913 1132.06,668.454 1136.78,673.372C1141.5,678.29 1148.49,680.749 1157.73,680.749C1178.88,680.749 1200.47,669.044 1222.51,645.633C1225.75,642.387 1228.21,640.764 1229.88,640.764C1233.03,640.764 1234.61,643.273 1234.61,648.289ZM1132.06,625.272C1173.77,600.484 1194.62,580.566 1194.62,565.516C1194.62,559.614 1191.96,556.663 1186.65,556.663C1177.6,556.663 1167.4,563.303 1156.04,576.582C1144.68,589.861 1136.68,606.091 1132.06,625.272Z" style="fill-rule:nonzero;"/>
        <path d="M1295.25,639.732C1296.23,637.961 1297.41,635.502 1298.79,632.354C1305.48,617.01 1311.63,604.985 1317.23,596.279C1322.84,587.574 1329.01,579.238 1335.75,571.27C1342.49,563.303 1348.63,557.253 1354.19,553.122C1359.75,548.991 1364.79,546.114 1369.32,544.491C1373.84,542.868 1378.22,542.056 1382.45,542.056C1391.01,542.056 1397.99,544.638 1403.4,549.802C1408.81,554.966 1411.51,560.991 1411.51,567.877C1411.51,570.926 1410.55,573.68 1408.64,576.139C1406.72,578.598 1403.79,579.828 1399.86,579.828C1395.73,579.828 1391.94,578.008 1388.5,574.369C1384.95,570.729 1381.27,568.91 1377.43,568.91C1367.2,568.91 1353.04,581.303 1334.94,606.091C1316.84,630.879 1305.82,658.175 1301.89,687.979C1300.9,695.652 1299.03,700.717 1296.28,703.176C1293.53,705.636 1289.64,706.865 1284.62,706.865C1279.8,706.865 1276.31,703.275 1274.15,696.094C1271.98,688.914 1270.9,676.815 1270.9,659.798C1270.9,655.175 1271.15,644.994 1271.64,629.256C1272.23,610.665 1273.41,595.665 1275.18,584.254C1275.48,582.385 1275.97,578.008 1276.66,571.123C1277.35,563.549 1278.21,558.286 1279.24,555.335C1280.27,552.384 1282.39,549.63 1285.58,547.073C1288.78,544.515 1292.25,543.237 1295.99,543.237C1299.62,543.237 1302.35,544.392 1304.17,546.704C1305.99,549.015 1306.9,551.499 1306.9,554.155C1306.9,557.991 1305.92,563.401 1303.95,570.385C1301.69,578.156 1300.36,583.517 1299.97,586.468C1299.67,589.812 1299.13,593.304 1298.35,596.943C1297.36,601.173 1296.38,612.288 1295.39,630.289L1295.25,635.748L1295.25,639.732Z" style="fill-rule:nonzero;"/>
    </g>
</svg>
