<?xml version="1.0" encoding="UTF-8" standalone="no"?>
<!DOCTYPE svg PUBLIC "-//W3C//DTD SVG 1.1//EN" "http://www.w3.org/Graphics/SVG/1.1/DTD/svg11.dtd">
<svg width="100%" height="100%" viewBox="0 0 40 60" version="1.1" xmlns="http://www.w3.org/2000/svg" xmlns:xlink="http://www.w3.org/1999/xlink" xml:space="preserve" xmlns:serif="http://www.serif.com/" style="fill-rule:evenodd;clip-rule:evenodd;stroke-linejoin:round;stroke-miterlimit:1.41421;">
    <g transform="matrix(1,0,0,0.985428,0,0.843333)">
        <g transform="matrix(6.93889e-18,-0.125755,0.125755,6.93889e-18,-181.302,245.413)">
            <path d="M1956.17,1606.38L1955.93,1608.06L1955.52,1609.71L1954.95,1611.31L1954.22,1612.85L1953.35,1614.32L1952.33,1615.69L1951.18,1616.95L1949.91,1618.1L1948.53,1619.12L1947.06,1620.01L1945.51,1620.74L1943.89,1621.33L1942.22,1621.75L1940.51,1622.01L1938.79,1622.11L1934.19,1622.14L1929.59,1622.15L1925,1622.14L1920.43,1622.11L1915.89,1622.07L1911.37,1622L1906.87,1621.92L1902.4,1621.82L1897.94,1621.7L1893.51,1621.57L1889.1,1621.42L1884.72,1621.25L1880.35,1621.07L1876.01,1620.87L1871.68,1620.66L1867.38,1620.43L1863.1,1620.18L1858.85,1619.92L1854.61,1619.65L1850.39,1619.36L1846.19,1619.06L1842.02,1618.74L1837.86,1618.41L1833.73,1618.07L1829.61,1617.72L1825.52,1617.35L1821.44,1616.97L1817.39,1616.58L1813.35,1616.18L1809.34,1615.77L1805.34,1615.35L1801.37,1614.91L1797.41,1614.47L1793.47,1614.02L1789.55,1613.55L1785.65,1613.08L1781.77,1612.6L1777.9,1612.11L1774.06,1611.61L1770.23,1611.11L1766.42,1610.59L1762.63,1610.07L1758.86,1609.54L1755.11,1609.01L1751.37,1608.46L1747.65,1607.91L1743.95,1607.36L1740.27,1606.8L1736.6,1606.24L1732.95,1605.67L1729.32,1605.09L1725.7,1604.51L1722.1,1603.93L1718.51,1603.34L1711.41,1602.16L1704.36,1600.96L1697.37,1599.76L1690.45,1598.55L1683.59,1597.33L1676.79,1596.11L1670.05,1594.9L1663.36,1593.68L1656.74,1592.47L1643.67,1590.08L1630.81,1587.74L1624.47,1586.59L1618.17,1585.46L1611.93,1584.35L1605.74,1583.27L1599.59,1582.21L1593.49,1581.19L1590.47,1580.68L1587.45,1580.19L1584.44,1579.7L1581.45,1579.23L1578.47,1578.76L1575.49,1578.3L1572.53,1577.85L1569.58,1577.41L1566.64,1576.98L1563.72,1576.56L1560.8,1576.15L1557.89,1575.75L1555,1575.36L1552.11,1574.99L1549.23,1574.62L1546.37,1574.27L1543.51,1573.93L1540.66,1573.6L1537.83,1573.28L1535,1572.98L1532.18,1572.69L1529.37,1572.41L1526.58,1572.15L1523.79,1571.9L1521,1571.67L1518.23,1571.45L1515.47,1571.25L1512.71,1571.06L1509.96,1570.88L1507.23,1570.72L1504.49,1570.58L1501.77,1570.45L1499.06,1570.34L1496.35,1570.25L1493.65,1570.17L1490.9,1570.11L1489.18,1569.99L1487.48,1569.7L1485.82,1569.25L1484.21,1568.64L1482.66,1567.88L1481.21,1566.98L1479.85,1565.93L1478.6,1564.76L1477.47,1563.48L1476.47,1562.09L1475.62,1560.61L1474.92,1559.06L1474.37,1557.45L1473.99,1555.79L1473.78,1554.11L1473.73,1552.41L1473.86,1550.71L1474.15,1549.04L1474.6,1547.4L1475.22,1545.82L1475.99,1544.3L1476.91,1542.86L1477.97,1541.52L1479.16,1540.29L1480.46,1539.17L1481.87,1538.19L1483.37,1537.35L1484.94,1536.66L1486.58,1536.13L1488.26,1535.75L1489.97,1535.54L1491.69,1535.49L1494.56,1535.56L1497.48,1535.64L1500.4,1535.74L1503.33,1535.86L1506.26,1536L1509.19,1536.15L1512.13,1536.32L1515.06,1536.51L1518.01,1536.71L1520.95,1536.93L1523.9,1537.16L1526.86,1537.41L1529.82,1537.67L1532.78,1537.95L1535.75,1538.24L1538.72,1538.55L1541.7,1538.87L1544.68,1539.2L1547.66,1539.55L1550.66,1539.9L1553.65,1540.27L1556.66,1540.65L1559.66,1541.04L1562.68,1541.45L1565.7,1541.86L1568.73,1542.29L1571.76,1542.72L1574.8,1543.17L1577.84,1543.62L1580.89,1544.09L1583.95,1544.56L1587.02,1545.04L1590.09,1545.53L1593.17,1546.03L1596.26,1546.53L1599.37,1547.05L1605.57,1548.1L1611.82,1549.17L1618.11,1550.27L1624.42,1551.39L1630.78,1552.53L1637.18,1553.68L1650.07,1556.04L1663.15,1558.43L1669.75,1559.63L1676.4,1560.84L1683.09,1562.05L1689.84,1563.26L1696.63,1564.46L1703.47,1565.66L1710.36,1566.85L1717.31,1568.03L1724.32,1569.19L1727.84,1569.77L1731.37,1570.34L1734.92,1570.91L1738.49,1571.47L1742.06,1572.03L1745.66,1572.59L1749.27,1573.13L1752.89,1573.68L1756.53,1574.21L1760.18,1574.74L1763.85,1575.27L1767.54,1575.78L1771.24,1576.29L1774.95,1576.79L1778.69,1577.29L1782.44,1577.77L1786.2,1578.25L1789.99,1578.72L1793.78,1579.18L1797.6,1579.63L1801.43,1580.07L1805.28,1580.5L1809.15,1580.93L1813.04,1581.34L1816.94,1581.74L1820.86,1582.13L1824.8,1582.51L1828.75,1582.87L1832.73,1583.23L1836.72,1583.57L1840.74,1583.9L1844.77,1584.22L1848.82,1584.53L1852.88,1584.82L1856.97,1585.1L1861.08,1585.37L1865.21,1585.62L1869.36,1585.86L1873.52,1586.08L1877.71,1586.29L1881.92,1586.48L1886.14,1586.66L1890.39,1586.82L1894.66,1586.97L1898.95,1587.1L1903.26,1587.21L1907.59,1587.3L1911.94,1587.38L1916.32,1587.44L1920.72,1587.49L1925.13,1587.52L1929.57,1587.52L1934.04,1587.51L1938.56,1587.48L1940.28,1587.55L1941.99,1587.79L1943.66,1588.19L1945.29,1588.76L1946.85,1589.47L1948.34,1590.34L1949.73,1591.34L1951.01,1592.47L1952.18,1593.72L1953.22,1595.08L1954.11,1596.53L1954.86,1598.06L1955.45,1599.66L1955.88,1601.3L1956.15,1602.98L1956.24,1604.68L1956.17,1606.38Z"/>
        </g>
        <g transform="matrix(-0.11834,-0.0425454,0.0425454,-0.11834,159.303,323.082)">
            <path d="M1907.92,2034.77L1907.13,2035L1906.33,2035.2L1905.53,2035.36L1904.71,2035.48L1903.89,2035.56L1903.07,2035.6L1902.24,2035.6L1901.41,2035.56L1900.59,2035.48L1899.77,2035.37L1898.96,2035.21L1898.16,2035.01L1897.36,2034.78L1896.58,2034.51L1895.81,2034.2L1895.06,2033.85L1894.32,2033.47L1893.6,2033.05L1892.9,2032.6L1892.22,2032.12L1891.57,2031.6L1890.94,2031.06L1890.34,2030.48L1889.76,2029.88L1889.22,2029.25L1888.7,2028.59L1888.21,2027.91L1887.76,2027.21L1887.34,2026.49L1886.95,2025.75L1886.6,2024.99L1886.29,2024.21L1886.01,2023.42L1885.77,2022.62L1885.57,2021.81L1885.4,2020.99L1885.28,2020.16L1885.19,2019.33L1885.14,2018.5L1885.13,2017.66L1885.15,2016.59L1885.2,2015.29L1885.28,2013.99L1885.39,2012.7L1885.53,2011.42L1885.7,2010.15L1885.89,2008.88L1886.11,2007.62L1886.35,2006.37L1886.61,2005.12L1886.89,2003.87L1887.19,2002.62L1887.51,2001.38L1887.85,2000.14L1888.2,1998.9L1888.58,1997.66L1888.97,1996.42L1889.38,1995.18L1889.8,1993.95L1890.23,1992.71L1890.69,1991.47L1891.15,1990.24L1891.63,1989L1892.13,1987.76L1892.63,1986.52L1893.15,1985.28L1893.68,1984.03L1894.22,1982.79L1894.78,1981.55L1895.34,1980.3L1895.92,1979.05L1896.51,1977.8L1897.1,1976.56L1897.71,1975.31L1898.33,1974.06L1898.95,1972.8L1899.58,1971.55L1900.23,1970.3L1900.88,1969.05L1901.54,1967.78L1902.87,1965.29L1904.23,1962.79L1905.62,1960.28L1907.03,1957.79L1908.45,1955.29L1909.9,1952.81L1911.35,1950.33L1912.82,1947.87L1914.29,1945.41L1915.77,1942.97L1917.25,1940.55L1918.73,1938.15L1920.2,1935.77L1921.67,1933.4L1924.58,1928.77L1930.18,1919.86L1932.83,1915.62L1934.1,1913.58L1935.34,1911.58L1936.54,1909.63L1937.7,1907.73L1938.81,1905.89L1939.86,1904.12L1940.87,1902.4L1941.82,1900.76L1942.7,1899.19L1943.52,1897.71L1944.29,1896.28L1944.63,1895.64L1944.95,1895L1945.26,1894.38L1945.55,1893.8L1945.82,1893.24L1946.07,1892.71L1946.3,1892.22L1946.5,1891.76L1946.68,1891.34L1946.84,1890.95L1946.97,1890.62L1947.08,1890.32L1947.16,1890.08L1947.17,1890.05L1947.25,1889.29L1947.37,1888.47L1947.53,1887.65L1947.73,1886.84L1947.96,1886.04L1948.24,1885.26L1948.55,1884.49L1948.89,1883.73L1949.28,1883L1949.69,1882.28L1950.14,1881.59L1950.63,1880.91L1951.14,1880.26L1951.68,1879.64L1952.26,1879.05L1952.86,1878.48L1953.48,1877.94L1954.13,1877.43L1954.81,1876.96L1955.51,1876.52L1956.22,1876.11L1956.96,1875.74L1957.71,1875.4L1958.48,1875.11L1959.26,1874.84L1960.05,1874.62L1960.86,1874.44L1961.67,1874.29L1962.49,1874.18L1963.31,1874.12L1964.13,1874.09L1964.96,1874.1L1965.78,1874.15L1966.6,1874.24L1967.42,1874.38L1968.23,1874.55L1969.03,1874.75L1969.82,1875L1970.6,1875.29L1971.36,1875.61L1972.11,1875.96L1972.85,1876.36L1973.56,1876.79L1974.25,1877.25L1974.92,1877.74L1975.57,1878.27L1976.19,1878.82L1976.78,1879.41L1977.35,1880.02L1977.88,1880.66L1978.39,1881.32L1978.87,1882.01L1979.31,1882.72L1979.72,1883.45L1980.09,1884.19L1980.43,1884.96L1980.73,1885.74L1981,1886.53L1981.23,1887.34L1981.42,1888.15L1981.57,1888.97L1981.68,1889.8L1981.76,1890.63L1981.79,1891.47L1981.79,1892.3L1981.76,1893.16L1981.66,1894.44L1981.51,1895.64L1981.31,1896.77L1981.09,1897.83L1980.85,1898.85L1980.58,1899.83L1980.3,1900.78L1980,1901.7L1979.68,1902.6L1979.35,1903.49L1979.01,1904.37L1978.65,1905.23L1978.28,1906.1L1977.9,1906.96L1977.51,1907.82L1977.11,1908.69L1976.69,1909.55L1976.26,1910.42L1975.82,1911.29L1975.37,1912.17L1974.89,1913.08L1973.94,1914.85L1972.94,1916.67L1971.89,1918.52L1970.8,1920.41L1969.67,1922.33L1968.51,1924.28L1967.31,1926.27L1966.08,1928.29L1964.81,1930.35L1963.52,1932.43L1962.2,1934.55L1959.51,1938.85L1953.91,1947.76L1951.06,1952.32L1949.63,1954.62L1948.2,1956.92L1946.77,1959.24L1945.35,1961.56L1943.94,1963.89L1942.55,1966.21L1941.17,1968.54L1939.8,1970.86L1938.46,1973.17L1937.14,1975.48L1935.85,1977.77L1934.59,1980.04L1933.36,1982.3L1932.16,1984.55L1931.58,1985.65L1931.01,1986.75L1930.45,1987.85L1929.9,1988.93L1929.36,1990.02L1928.83,1991.09L1928.31,1992.15L1927.81,1993.21L1927.32,1994.25L1926.84,1995.29L1926.37,1996.31L1925.92,1997.33L1925.49,1998.33L1925.06,1999.32L1924.65,2000.29L1924.26,2001.26L1923.88,2002.21L1923.52,2003.14L1923.18,2004.06L1922.85,2004.96L1922.53,2005.85L1922.24,2006.72L1921.96,2007.57L1921.7,2008.4L1921.45,2009.21L1921.22,2010L1921.02,2010.76L1920.82,2011.51L1920.65,2012.23L1920.49,2012.92L1920.35,2013.59L1920.23,2014.23L1920.13,2014.85L1920.04,2015.43L1919.97,2015.98L1919.91,2016.5L1919.87,2016.99L1919.84,2017.43L1919.82,2017.85L1919.81,2018.47L1919.78,2019.3L1919.71,2020.13L1919.6,2020.96L1919.46,2021.78L1919.27,2022.59L1919.05,2023.39L1918.78,2024.18L1918.49,2024.96L1918.15,2025.72L1917.78,2026.46L1917.37,2027.18L1916.93,2027.88L1916.46,2028.56L1915.96,2029.22L1915.42,2029.85L1914.86,2030.46L1914.27,2031.03L1913.65,2031.58L1913.01,2032.1L1912.34,2032.58L1911.65,2033.03L1910.94,2033.45L1910.21,2033.84L1909.46,2034.18L1908.7,2034.49L1907.92,2034.77ZM1947.13,1890.82L1947.12,1890.88L1947.12,1890.95L1947.13,1890.82Z"/>
        </g>
        <g transform="matrix(-0.11834,-0.0425454,0.0425454,-0.11834,159.303,323.082)">
            <path d="M1912.52,2049.76L1911.68,2049.99L1910.82,2050.17L1909.95,2050.32L1909.08,2050.42L1908.2,2050.47L1907.33,2050.48L1906.45,2050.44L1905.57,2050.36L1904.7,2050.24L1903.84,2050.07L1902.98,2049.85L1902.14,2049.59L1901.31,2049.29L1900.5,2048.95L1899.7,2048.57L1898.92,2048.14L1898.17,2047.68L1897.44,2047.18L1896.73,2046.64L1896.06,2046.07L1895.41,2045.47L1895,2045.06L1894.67,2044.75L1894.3,2044.41L1893.9,2044.05L1893.46,2043.67L1892.99,2043.27L1892.49,2042.86L1891.96,2042.43L1891.4,2041.99L1890.82,2041.53L1890.2,2041.07L1889.56,2040.59L1888.89,2040.1L1888.2,2039.6L1887.48,2039.09L1886.74,2038.57L1885.98,2038.05L1885.19,2037.52L1884.38,2036.98L1883.55,2036.43L1882.7,2035.88L1881.83,2035.32L1880.94,2034.75L1880.03,2034.18L1879.1,2033.61L1878.17,2033.04L1876.2,2031.85L1874.19,2030.67L1872.11,2029.47L1869.98,2028.25L1867.78,2027.03L1865.54,2025.81L1863.25,2024.57L1860.91,2023.34L1858.53,2022.1L1856.12,2020.86L1853.67,2019.62L1851.18,2018.39L1848.67,2017.16L1846.13,2015.94L1843.58,2014.72L1841,2013.52L1838.4,2012.32L1835.8,2011.14L1833.19,2009.97L1830.57,2008.82L1827.94,2007.68L1825.32,2006.56L1822.7,2005.47L1820.09,2004.39L1817.49,2003.33L1814.91,2002.3L1812.34,2001.3L1809.79,2000.32L1807.26,1999.37L1804.77,1998.45L1802.3,1997.56L1799.87,1996.71L1797.47,1995.89L1795.12,1995.11L1792.81,1994.36L1790.54,1993.64L1789.44,1993.31L1788.35,1992.98L1787.27,1992.66L1786.2,1992.36L1785.15,1992.06L1784.12,1991.78L1783.1,1991.5L1782.11,1991.24L1781.12,1990.99L1780.16,1990.75L1779.22,1990.52L1778.3,1990.3L1777.39,1990.1L1776.51,1989.9L1775.66,1989.72L1774.82,1989.56L1774.01,1989.4L1773.23,1989.26L1772.47,1989.13L1771.74,1989.01L1771.04,1988.91L1770.37,1988.82L1769.73,1988.74L1769.12,1988.67L1768.55,1988.62L1768.02,1988.57L1767.52,1988.54L1767.06,1988.52L1766.65,1988.51L1766.1,1988.5L1765.22,1988.47L1764.35,1988.39L1763.48,1988.27L1762.61,1988.11L1761.76,1987.89L1760.91,1987.64L1760.08,1987.35L1759.27,1987.01L1758.47,1986.63L1757.69,1986.21L1756.93,1985.75L1756.2,1985.25L1755.49,1984.72L1754.81,1984.15L1754.16,1983.55L1753.54,1982.91L1752.95,1982.25L1752.39,1981.56L1751.88,1980.83L1751.39,1980.09L1750.95,1979.32L1750.54,1978.52L1750.17,1977.71L1749.85,1976.88L1749.57,1976.04L1749.33,1975.18L1749.13,1974.32L1748.97,1973.44L1748.86,1972.56L1748.8,1971.67L1748.78,1970.78L1748.8,1969.89L1748.87,1969.01L1748.98,1968.13L1749.13,1967.26L1749.33,1966.39L1749.58,1965.54L1749.86,1964.7L1750.19,1963.88L1750.56,1963.08L1750.96,1962.29L1751.41,1961.53L1751.89,1960.8L1752.41,1960.08L1752.97,1959.4L1753.56,1958.75L1754.18,1958.13L1754.83,1957.54L1755.51,1956.98L1756.22,1956.46L1756.96,1955.98L1757.72,1955.54L1758.49,1955.14L1759.29,1954.77L1760.11,1954.45L1760.94,1954.17L1761.79,1953.94L1762.64,1953.75L1763.51,1953.6L1764.38,1953.5L1765.25,1953.44L1766.13,1953.42L1767.02,1953.43L1768.08,1953.46L1769.14,1953.52L1770.2,1953.58L1771.27,1953.67L1772.34,1953.77L1773.41,1953.89L1774.49,1954.03L1775.57,1954.17L1776.66,1954.34L1777.77,1954.51L1778.87,1954.7L1779.99,1954.91L1781.11,1955.12L1782.25,1955.35L1783.39,1955.59L1784.54,1955.84L1785.7,1956.1L1786.87,1956.38L1788.06,1956.66L1789.25,1956.96L1790.45,1957.27L1791.66,1957.59L1792.88,1957.92L1794.1,1958.26L1795.34,1958.61L1796.59,1958.97L1797.84,1959.34L1799.11,1959.72L1800.4,1960.11L1802.95,1960.91L1805.55,1961.75L1808.18,1962.63L1810.84,1963.54L1813.53,1964.48L1816.24,1965.46L1818.97,1966.46L1821.71,1967.49L1824.48,1968.55L1827.26,1969.64L1830.04,1970.75L1832.84,1971.88L1835.64,1973.04L1838.45,1974.22L1841.26,1975.42L1844.07,1976.63L1846.87,1977.87L1849.67,1979.12L1852.45,1980.38L1855.23,1981.66L1857.98,1982.95L1860.73,1984.25L1863.45,1985.57L1866.14,1986.89L1868.82,1988.21L1871.46,1989.55L1874.08,1990.89L1876.66,1992.23L1879.21,1993.58L1881.71,1994.93L1884.18,1996.28L1886.61,1997.63L1888.99,1998.98L1891.32,2000.33L1893.6,2001.67L1895.81,2003.01L1896.93,2003.69L1898.01,2004.36L1899.08,2005.03L1900.13,2005.69L1901.17,2006.36L1902.19,2007.03L1903.2,2007.69L1904.2,2008.36L1905.18,2009.02L1906.15,2009.68L1907.1,2010.35L1908.04,2011.01L1908.95,2011.67L1909.86,2012.34L1910.75,2013L1911.63,2013.67L1912.49,2014.33L1913.33,2015L1914.16,2015.67L1914.97,2016.35L1915.77,2017.03L1916.56,2017.71L1917.33,2018.4L1918.09,2019.1L1918.84,2019.81L1919.46,2020.42L1920.07,2021.05L1920.66,2021.72L1921.21,2022.42L1921.73,2023.14L1922.2,2023.89L1922.64,2024.67L1923.05,2025.46L1923.41,2026.27L1923.73,2027.1L1924.01,2027.95L1924.25,2028.81L1924.44,2029.68L1924.59,2030.55L1924.69,2031.44L1924.76,2032.32L1924.77,2033.21L1924.75,2034.1L1924.67,2034.98L1924.56,2035.86L1924.4,2036.74L1924.19,2037.6L1923.95,2038.45L1923.66,2039.29L1923.33,2040.11L1922.95,2040.91L1922.54,2041.69L1922.09,2042.45L1921.61,2043.18L1921.08,2043.89L1920.52,2044.57L1919.93,2045.22L1919.3,2045.84L1918.65,2046.42L1917.96,2046.98L1917.25,2047.49L1916.52,2047.97L1915.76,2048.41L1914.98,2048.8L1914.17,2049.16L1913.36,2049.48L1912.52,2049.76Z"/>
        </g>
    </g>
</svg>
