<?xml version="1.0" encoding="UTF-8" standalone="no"?><!DOCTYPE svg PUBLIC "-//W3C//DTD SVG 1.1//EN"
    "http://www.w3.org/Graphics/SVG/1.1/DTD/svg11.dtd">
<svg style="fill-rule:evenodd;clip-rule:evenodd;stroke-linejoin:round;stroke-miterlimit:1.41421;"
    height="100%" version="1.1" viewBox="0 0 287 80" width="100%" xmlns="http://www.w3.org/2000/svg"
    xml:space="preserve">
    <g transform="matrix(0.118585,0,0,0.118585,-8.87607,-11.2556)">
        <path style="fill-rule:nonzero;"
            d="M236.472,165.752C237.41,166.481 237.879,169.034 237.879,173.409C237.879,177.888 237.41,181.273 236.472,183.565L238.504,190.127C241.941,202.419 245.327,212.523 248.66,220.44C252.827,231.065 256.941,242.471 261.004,254.659C270.274,282.679 279.936,306.664 289.988,326.612C300.04,346.56 309.233,360.596 317.566,368.721C322.774,373.825 326.03,377.341 327.332,379.268C328.634,381.195 329.285,383.461 329.285,386.065C329.285,390.648 327.748,394.528 324.676,397.705C321.603,400.883 317.931,402.471 313.66,402.471C300.327,402.471 284.181,381.481 265.222,339.502C257.618,322.94 253.035,314.659 251.472,314.659C246.472,314.659 235.717,316.169 219.207,319.19C202.696,322.211 187.618,325.752 173.972,329.815C166.16,332.211 161.212,333.409 159.129,333.409C156.524,333.409 153.816,332.106 151.004,329.502C150.483,329.086 149.858,328.877 149.129,328.877C146.837,328.877 141.889,335.648 134.285,349.19C121.785,371.586 113.894,384.945 110.613,389.268C107.332,393.591 103.712,395.752 99.754,395.752C96.941,395.752 93.556,394.112 89.597,390.83C85.639,387.549 83.66,384.19 83.66,380.752C83.66,377.419 85.535,372.914 89.285,367.237C93.035,361.56 100.691,350.127 112.254,332.94C132.879,302.419 150.274,273.773 164.441,247.002C186.837,204.398 201.056,179.268 207.097,171.612C213.139,163.955 217.774,160.127 221.004,160.127C227.879,160.127 233.035,162.002 236.472,165.752ZM246.004,289.971C242.358,281.638 236.993,266.377 229.91,244.19C222.202,220.544 217.306,206.169 215.222,201.065C209.493,213.148 200.639,230.284 188.66,252.471L160.379,306.065C162.566,304.398 168.347,303.044 177.722,302.002C184.91,301.273 191.16,300.336 196.472,299.19C224.91,293.461 241.42,290.388 246.004,289.971Z" />
        <path style="fill-rule:nonzero;"
            d="M469.91,324.659C455.952,347.054 441.16,364.32 425.535,376.455C409.91,388.591 395.535,394.659 382.41,394.659C372.306,394.659 364.311,390.778 358.426,383.018C352.54,375.258 349.597,364.919 349.597,352.002C349.597,325.648 360.301,298.617 381.707,270.909C403.113,243.2 426.212,229.346 451.004,229.346C461.837,229.346 471.889,233.981 481.16,243.252L503.035,141.065C504.597,134.086 507.488,129.398 511.707,127.002C515.926,124.606 519.233,123.409 521.629,123.409C528.92,123.409 532.566,129.867 532.566,142.784C532.566,145.075 530.17,153.617 525.379,168.409C517.774,191.325 510.561,219.476 503.738,252.862C496.915,286.247 493.504,313.044 493.504,333.252C493.504,354.086 498.035,364.502 507.097,364.502C512.931,364.502 518.972,362.575 525.222,358.721C527.827,356.846 530.274,355.909 532.566,355.909C535.899,355.909 537.566,358.096 537.566,362.471C537.566,367.784 532.905,373.929 523.582,380.909C514.259,387.888 504.702,391.377 494.91,391.377C477.722,391.377 469.129,374.815 469.129,341.69C469.129,336.065 469.389,330.388 469.91,324.659ZM449.441,251.534C432.566,251.534 415.847,262.966 399.285,285.83C382.722,308.695 374.441,329.815 374.441,349.19C374.441,362.211 378.764,368.721 387.41,368.721C395.535,368.721 405.405,364.45 417.019,355.909C428.634,347.367 440.587,333.747 452.879,315.049C465.17,296.351 471.316,282.315 471.316,272.94C471.316,268.356 469.207,263.643 464.988,258.799C460.769,253.955 455.587,251.534 449.441,251.534Z" />
        <path style="fill-rule:nonzero;"
            d="M681.472,324.659C667.514,347.054 652.722,364.32 637.097,376.455C621.472,388.591 607.097,394.659 593.972,394.659C583.868,394.659 575.873,390.778 569.988,383.018C564.103,375.258 561.16,364.919 561.16,352.002C561.16,325.648 571.863,298.617 593.269,270.909C614.676,243.2 637.774,229.346 662.566,229.346C673.399,229.346 683.452,233.981 692.722,243.252L714.597,141.065C716.16,134.086 719.051,129.398 723.269,127.002C727.488,124.606 730.795,123.409 733.191,123.409C740.483,123.409 744.129,129.867 744.129,142.784C744.129,145.075 741.733,153.617 736.941,168.409C729.337,191.325 722.123,219.476 715.301,252.862C708.478,286.247 705.066,313.044 705.066,333.252C705.066,354.086 709.597,364.502 718.66,364.502C724.493,364.502 730.535,362.575 736.785,358.721C739.389,356.846 741.837,355.909 744.129,355.909C747.462,355.909 749.129,358.096 749.129,362.471C749.129,367.784 744.467,373.929 735.144,380.909C725.821,387.888 716.264,391.377 706.472,391.377C689.285,391.377 680.691,374.815 680.691,341.69C680.691,336.065 680.952,330.388 681.472,324.659ZM661.004,251.534C644.129,251.534 627.41,262.966 610.847,285.83C594.285,308.695 586.004,329.815 586.004,349.19C586.004,362.211 590.327,368.721 598.972,368.721C607.097,368.721 616.967,364.45 628.582,355.909C640.196,347.367 652.149,333.747 664.441,315.049C676.733,296.351 682.879,282.315 682.879,272.94C682.879,268.356 680.769,263.643 676.551,258.799C672.332,253.955 667.149,251.534 661.004,251.534Z" />
        <path style="fill-rule:nonzero;"
            d="M1014.28,332.471C999.702,352.054 985.274,366.742 971.004,376.534C956.733,386.325 943.66,391.221 931.785,391.221C923.764,391.221 916.837,387.836 911.004,381.065C905.17,374.294 902.254,365.596 902.254,354.971C902.254,327.575 914.493,298.07 938.972,266.455C963.452,234.841 987.774,219.034 1011.94,219.034C1020.69,219.034 1027.2,224.034 1031.47,234.034C1032.83,237.367 1034.96,239.034 1037.88,239.034C1046.21,239.034 1050.38,242.263 1050.38,248.721C1050.38,251.95 1049.86,256.377 1048.82,262.002C1043.19,292.731 1040.38,314.398 1040.38,327.002C1040.38,352.211 1045.17,367.315 1054.75,372.315C1059.34,374.815 1061.63,377.888 1061.63,381.534C1061.63,384.763 1059.39,388.018 1054.91,391.299C1050.43,394.58 1046.11,396.221 1041.94,396.221C1033.92,396.221 1027.31,390.7 1022.1,379.659C1016.89,368.617 1014.28,352.888 1014.28,332.471ZM1004.75,244.502C991.004,244.502 975.014,257.393 956.785,283.174C938.556,308.955 929.441,330.336 929.441,347.315C929.441,359.294 933.399,365.284 941.316,365.284C952.774,365.284 968.66,353.721 988.972,330.596C1009.28,307.471 1019.44,286.221 1019.44,266.846C1019.44,251.95 1014.55,244.502 1004.75,244.502Z" />
        <path style="fill-rule:nonzero;"
            d="M1331.16,269.19C1325.74,269.19 1319.83,272.731 1313.43,279.815C1307.02,286.898 1297.25,302.784 1284.13,327.471C1266.84,360.596 1255.66,379.45 1250.61,384.034C1245.56,388.617 1241.37,390.909 1238.04,390.909C1225.74,390.909 1219.6,384.971 1219.6,373.096C1219.6,368.096 1220.43,361.013 1222.1,351.846C1227.83,320.388 1230.69,287.211 1230.69,252.315C1230.69,248.356 1232.38,243.955 1235.77,239.112C1239.15,234.268 1242.36,231.846 1245.38,231.846C1250.8,231.846 1254.65,233.513 1256.94,236.846C1259.23,240.179 1260.38,246.898 1260.38,257.002C1260.38,267.523 1257.25,289.19 1251,322.002C1248.92,332.836 1247.88,339.711 1247.88,342.627C1247.88,344.294 1248.3,345.127 1249.13,345.127C1250.69,345.127 1257.93,332.679 1270.85,307.784C1283.87,282.471 1295.27,264.659 1305.07,254.346C1314.86,244.034 1325.64,238.877 1337.41,238.877C1346.79,238.877 1354.41,243.148 1360.3,251.69C1366.19,260.231 1370.48,275.804 1373.19,298.409C1376.11,324.138 1378.74,340.153 1381.08,346.455C1383.43,352.758 1387.15,355.909 1392.25,355.909C1395.48,355.909 1399.55,354.763 1404.44,352.471C1405.27,352.054 1405.9,351.846 1406.32,351.846C1410.8,351.846 1413.04,354.45 1413.04,359.659C1413.04,364.242 1409.96,369.112 1403.82,374.268C1397.67,379.424 1390.27,382.002 1381.63,382.002C1372.77,382.002 1365.93,378.487 1361.08,371.455C1356.24,364.424 1352.41,345.648 1349.6,315.127C1346.68,284.502 1340.54,269.19 1331.16,269.19Z" />
        <path style="fill-rule:nonzero;"
            d="M1570.69,336.377C1570.69,347.002 1561.29,359.815 1542.49,374.815C1523.69,389.815 1504.29,397.315 1484.29,397.315C1467.51,397.315 1454.57,392.367 1445.46,382.471C1436.34,372.575 1431.79,358.773 1431.79,341.065C1431.79,311.273 1441.84,282.94 1461.94,256.065C1482.05,229.19 1504.02,215.752 1527.88,215.752C1535.69,215.752 1542.07,218.304 1547.02,223.409C1551.97,228.513 1554.44,234.659 1554.44,241.846C1554.44,257.888 1546.58,273.252 1530.85,287.94C1515.12,302.627 1494.08,317.054 1467.72,331.221C1462.31,334.034 1459.6,337.679 1459.6,342.159C1459.6,350.804 1462.1,357.731 1467.1,362.94C1472.1,368.148 1479.49,370.752 1489.29,370.752C1511.68,370.752 1534.55,358.356 1557.88,333.565C1561.32,330.127 1563.92,328.409 1565.69,328.409C1569.02,328.409 1570.69,331.065 1570.69,336.377ZM1462.1,312.002C1506.26,285.752 1528.35,264.659 1528.35,248.721C1528.35,242.471 1525.54,239.346 1519.91,239.346C1510.33,239.346 1499.52,246.377 1487.49,260.44C1475.46,274.502 1466.99,291.69 1462.1,312.002Z" />
        <path style="fill-rule:nonzero;"
            d="M1727.1,285.909C1724.18,286.013 1717.15,298.148 1706,322.315C1696.84,342.211 1687.46,359.945 1677.88,375.518C1668.3,391.091 1661.26,398.877 1656.79,398.877C1643.87,398.877 1631.91,379.685 1620.93,341.299C1609.94,302.914 1604.44,272.002 1604.44,248.565C1604.44,240.961 1606.34,234.659 1610.14,229.659C1613.95,224.659 1618.45,221.95 1623.66,221.534C1624.39,221.429 1625.69,221.455 1627.57,221.612C1629.44,221.768 1631.73,223.487 1634.44,226.768C1637.15,230.049 1638.5,233.252 1638.5,236.377L1638.5,237.002C1638.5,238.252 1637.93,243.461 1636.79,252.627C1635.85,259.398 1635.38,267.679 1635.38,277.471C1635.38,292.992 1638.35,310.127 1644.29,328.877C1650.22,347.627 1655.22,357.002 1659.29,357.002C1662.2,357.002 1671.84,341.169 1688.19,309.502C1698.5,289.398 1705.9,275.544 1710.38,267.94L1715.38,258.565C1722.57,244.815 1729.39,235.336 1735.85,230.127C1744.81,231.273 1749.29,235.752 1749.29,243.565C1749.29,246.169 1749.08,248.356 1748.66,250.127C1748.24,251.898 1748.04,254.086 1748.04,256.69C1748.04,275.961 1753.04,296.143 1763.04,317.237C1773.04,338.33 1780.17,348.877 1784.44,348.877C1787.57,348.877 1792.51,337.836 1799.29,315.752C1808.45,285.752 1816.91,263.252 1824.68,248.252C1832.44,233.252 1838.14,224.346 1841.79,221.534C1845.43,218.721 1849.55,217.315 1854.13,217.315C1856.73,217.315 1858.95,218.435 1860.77,220.674C1862.59,222.914 1863.5,225.336 1863.5,227.94C1863.5,231.794 1862.93,234.45 1861.79,235.909C1848.87,252.888 1836.47,279.398 1824.6,315.44C1814.49,346.377 1807.57,365.804 1803.82,373.721C1800.07,381.638 1796.94,385.596 1794.44,385.596C1781.84,385.596 1771.52,380.987 1763.5,371.768C1755.48,362.549 1744.86,338.044 1731.63,298.252C1730.07,293.565 1728.56,289.45 1727.1,285.909Z" />
        <path style="fill-rule:nonzero;"
            d="M324.051,680.752C324.051,673.981 315.717,666.273 299.051,657.627C277.905,646.794 263.608,638.122 256.16,631.612C248.712,625.101 244.988,617.836 244.988,609.815C244.988,589.086 255.379,571.898 276.16,558.252C296.941,544.606 313.894,537.784 327.019,537.784C335.457,537.784 341.577,539.242 345.379,542.159C349.181,545.075 351.082,550.127 351.082,557.315C351.082,560.544 349.702,563.304 346.941,565.596C344.181,567.888 342.019,569.034 340.457,569.034C339.311,569.034 337.071,568.252 333.738,566.69C330.405,565.231 328.217,564.502 327.176,564.502C321.967,564.502 311.394,568.304 295.457,575.909C279.519,583.513 271.551,592.106 271.551,601.69C271.551,607.523 274.363,612.81 279.988,617.549C285.613,622.289 295.717,628.096 310.301,634.971C322.071,640.596 331.472,646.612 338.504,653.018C345.535,659.424 349.051,666.95 349.051,675.596C349.051,691.534 338.061,704.008 316.082,713.018C294.103,722.028 273.113,726.534 253.113,726.534C236.238,726.534 227.801,720.804 227.801,709.346C227.801,705.388 229.702,702.471 233.504,700.596C237.306,698.721 241.134,697.784 244.988,697.784C246.551,697.784 249.519,698.304 253.894,699.346C258.165,700.388 260.978,700.909 262.332,700.909C273.894,700.909 286.29,698.981 299.519,695.127C312.748,691.273 320.926,686.481 324.051,680.752Z" />
        <path style="fill-rule:nonzero;"
            d="M423.894,725.44C408.269,725.44 396.264,720.961 387.879,712.002C379.493,703.044 375.301,690.492 375.301,674.346C375.301,647.159 386.082,618.487 407.644,588.33C429.207,558.174 449.259,543.096 467.801,543.096C476.238,543.096 483.504,547.653 489.597,556.768C495.691,565.883 498.738,575.544 498.738,585.752C498.738,591.898 497.41,597.185 494.754,601.612C492.097,606.039 489.415,608.252 486.707,608.252C480.665,608.252 476.394,602.159 473.894,589.971C471.082,576.846 467.019,570.284 461.707,570.284C450.873,570.284 438.061,583.148 423.269,608.877C408.478,634.606 401.082,656.325 401.082,674.034C401.082,691.742 411.134,700.596 431.238,700.596C446.551,700.596 464.571,693.409 485.301,679.034C492.592,673.929 497.957,671.377 501.394,671.377C504.936,671.377 506.707,673.409 506.707,677.471C506.707,685.388 497.384,695.362 478.738,707.393C460.092,719.424 441.811,725.44 423.894,725.44Z" />
        <path style="fill-rule:nonzero;"
            d="M589.051,724.346C574.78,724.346 563.009,718.929 553.738,708.096C544.467,697.263 539.832,683.877 539.832,667.94C539.832,641.065 548.868,614.58 566.941,588.487C585.014,562.393 606.655,549.346 631.863,549.346C648.53,549.346 662.045,555.752 672.41,568.565C682.774,581.377 687.957,596.638 687.957,614.346C687.957,641.429 677.254,666.534 655.847,689.659C634.441,712.784 612.176,724.346 589.051,724.346ZM567.332,663.877C567.332,674.398 569.545,682.992 573.972,689.659C578.399,696.325 584.259,699.659 591.551,699.659C607.071,699.659 622.644,691.143 638.269,674.112C653.894,657.08 661.707,638.148 661.707,617.315C661.707,604.502 658.712,594.112 652.722,586.143C646.733,578.174 638.686,574.19 628.582,574.19C611.811,574.19 597.41,584.476 585.379,605.049C573.347,625.622 567.332,645.231 567.332,663.877Z" />
        <path style="fill-rule:nonzero;"
            d="M755.926,654.502C756.967,652.627 758.217,650.023 759.676,646.69C766.759,630.44 773.269,617.705 779.207,608.487C785.144,599.268 791.681,590.44 798.816,582.002C805.952,573.565 812.462,567.159 818.347,562.784C824.233,558.409 829.571,555.362 834.363,553.643C839.155,551.924 843.79,551.065 848.269,551.065C857.332,551.065 864.728,553.799 870.457,559.268C876.186,564.737 879.051,571.117 879.051,578.409C879.051,581.638 878.035,584.554 876.004,587.159C873.972,589.763 870.873,591.065 866.707,591.065C862.332,591.065 858.321,589.138 854.676,585.284C850.926,581.429 847.019,579.502 842.957,579.502C832.123,579.502 817.123,592.627 797.957,618.877C778.79,645.127 767.123,674.034 762.957,705.596C761.915,713.721 759.936,719.086 757.019,721.69C754.103,724.294 749.988,725.596 744.676,725.596C739.571,725.596 735.873,721.794 733.582,714.19C731.29,706.586 730.144,693.773 730.144,675.752C730.144,670.856 730.405,660.075 730.926,643.409C731.551,623.721 732.801,607.836 734.676,595.752C734.988,593.773 735.509,589.138 736.238,581.846C736.967,573.825 737.879,568.252 738.972,565.127C740.066,562.002 742.306,559.086 745.691,556.377C749.077,553.669 752.748,552.315 756.707,552.315C760.561,552.315 763.452,553.539 765.379,555.987C767.306,558.435 768.269,561.065 768.269,563.877C768.269,567.94 767.228,573.669 765.144,581.065C762.748,589.294 761.342,594.971 760.926,598.096C760.613,601.638 760.04,605.336 759.207,609.19C758.165,613.669 757.123,625.44 756.082,644.502L755.926,650.284L755.926,654.502Z" />
        <path style="fill-rule:nonzero;"
            d="M1022.64,663.565C1022.64,674.19 1013.24,687.002 994.441,702.002C975.639,717.002 956.238,724.502 936.238,724.502C919.467,724.502 906.524,719.554 897.41,709.659C888.295,699.763 883.738,685.961 883.738,668.252C883.738,638.461 893.79,610.127 913.894,583.252C933.998,556.377 955.978,542.94 979.832,542.94C987.644,542.94 994.024,545.492 998.972,550.596C1003.92,555.7 1006.39,561.846 1006.39,569.034C1006.39,585.075 998.53,600.44 982.801,615.127C967.071,629.815 946.03,644.242 919.676,658.409C914.259,661.221 911.551,664.867 911.551,669.346C911.551,677.992 914.051,684.919 919.051,690.127C924.051,695.336 931.446,697.94 941.238,697.94C963.634,697.94 986.498,685.544 1009.83,660.752C1013.27,657.315 1015.87,655.596 1017.64,655.596C1020.98,655.596 1022.64,658.252 1022.64,663.565ZM914.051,639.19C958.217,612.94 980.301,591.846 980.301,575.909C980.301,569.659 977.488,566.534 971.863,566.534C962.28,566.534 951.472,573.565 939.441,587.627C927.41,601.69 918.946,618.877 914.051,639.19Z" />
        <path style="fill-rule:nonzero;"
            d="M1237.96,452.002C1245.46,452.002 1249.21,456.794 1249.21,466.377C1249.21,474.919 1244.68,495.231 1235.61,527.315C1229.88,547.523 1225.46,569.815 1222.33,594.19C1219.21,618.565 1217.64,637.679 1217.64,651.534C1217.64,668.721 1218.74,685.804 1220.93,702.784C1221.34,706.013 1221.55,708.356 1221.55,709.815C1221.55,715.023 1219.78,719.502 1216.24,723.252C1212.7,727.002 1208.95,728.877 1204.99,728.877C1199.47,728.877 1195.64,725.44 1193.5,718.565C1191.37,711.69 1190.3,700.596 1190.3,685.284C1190.3,650.388 1194.49,607.159 1202.88,555.596C1211.26,504.034 1217.93,473.877 1222.88,465.127C1227.83,456.377 1232.85,452.002 1237.96,452.002Z" />
        <path style="fill-rule:nonzero;"
            d="M1325.14,507.315C1322.96,507.315 1321.29,504.971 1320.14,500.284C1319.73,498.825 1319.15,497.211 1318.43,495.44C1315.61,488.669 1314.21,482.784 1314.21,477.784C1314.21,473.617 1316.68,469.372 1321.63,465.049C1326.58,460.726 1332.07,458.565 1338.11,458.565C1341.13,458.565 1344.52,459.737 1348.27,462.08C1352.02,464.424 1353.89,466.69 1353.89,468.877C1353.89,472.315 1352.62,478.148 1350.07,486.377C1347.51,494.606 1343.45,500.153 1337.88,503.018C1332.31,505.883 1328.06,507.315 1325.14,507.315ZM1304.68,681.846C1304.68,689.763 1305.77,698.669 1307.96,708.565C1308.37,710.44 1308.58,712.002 1308.58,713.252C1308.58,715.127 1306.86,717.549 1303.43,720.518C1299.99,723.487 1296.34,724.971 1292.49,724.971C1282.38,724.971 1277.33,715.7 1277.33,697.159C1277.33,677.992 1281.29,647.679 1289.21,606.221C1291.91,591.742 1293.27,582.836 1293.27,579.502C1293.27,572.94 1294.47,567.341 1296.86,562.705C1299.26,558.07 1302.64,555.752 1307.02,555.752C1312.33,555.752 1316.52,557.028 1319.6,559.58C1322.67,562.133 1324.21,564.971 1324.21,568.096C1324.21,571.221 1323.48,575.336 1322.02,580.44C1314.21,607.94 1309.36,627.627 1307.49,639.502C1305.61,651.377 1304.68,665.492 1304.68,681.846Z" />
        <path style="fill-rule:nonzero;"
            d="M1473.74,596.377C1468.32,596.377 1462.41,599.919 1456,607.002C1449.6,614.086 1439.83,629.971 1426.71,654.659C1409.41,687.784 1398.24,706.638 1393.19,711.221C1388.14,715.804 1383.95,718.096 1380.61,718.096C1368.32,718.096 1362.18,712.159 1362.18,700.284C1362.18,695.284 1363.01,688.2 1364.68,679.034C1370.4,647.575 1373.27,614.398 1373.27,579.502C1373.27,575.544 1374.96,571.143 1378.35,566.299C1381.73,561.455 1384.94,559.034 1387.96,559.034C1393.37,559.034 1397.23,560.7 1399.52,564.034C1401.81,567.367 1402.96,574.086 1402.96,584.19C1402.96,594.711 1399.83,616.377 1393.58,649.19C1391.5,660.023 1390.46,666.898 1390.46,669.815C1390.46,671.481 1390.87,672.315 1391.71,672.315C1393.27,672.315 1400.51,659.867 1413.43,634.971C1426.45,609.659 1437.85,591.846 1447.64,581.534C1457.44,571.221 1468.22,566.065 1479.99,566.065C1489.36,566.065 1496.99,570.336 1502.88,578.877C1508.76,587.419 1513.06,602.992 1515.77,625.596C1518.69,651.325 1521.32,667.341 1523.66,673.643C1526,679.945 1529.73,683.096 1534.83,683.096C1538.06,683.096 1542.12,681.95 1547.02,679.659C1547.85,679.242 1548.48,679.034 1548.89,679.034C1553.37,679.034 1555.61,681.638 1555.61,686.846C1555.61,691.429 1552.54,696.299 1546.39,701.455C1540.25,706.612 1532.85,709.19 1524.21,709.19C1515.35,709.19 1508.5,705.674 1503.66,698.643C1498.82,691.612 1494.99,672.836 1492.18,642.315C1489.26,611.69 1483.11,596.377 1473.74,596.377Z" />
        <path style="fill-rule:nonzero;"
            d="M1713.27,663.565C1713.27,674.19 1703.87,687.002 1685.07,702.002C1666.26,717.002 1646.86,724.502 1626.86,724.502C1610.09,724.502 1597.15,719.554 1588.04,709.659C1578.92,699.763 1574.36,685.961 1574.36,668.252C1574.36,638.461 1584.41,610.127 1604.52,583.252C1624.62,556.377 1646.6,542.94 1670.46,542.94C1678.27,542.94 1684.65,545.492 1689.6,550.596C1694.55,555.7 1697.02,561.846 1697.02,569.034C1697.02,585.075 1689.15,600.44 1673.43,615.127C1657.7,629.815 1636.65,644.242 1610.3,658.409C1604.88,661.221 1602.18,664.867 1602.18,669.346C1602.18,677.992 1604.68,684.919 1609.68,690.127C1614.68,695.336 1622.07,697.94 1631.86,697.94C1654.26,697.94 1677.12,685.544 1700.46,660.752C1703.89,657.315 1706.5,655.596 1708.27,655.596C1711.6,655.596 1713.27,658.252 1713.27,663.565ZM1604.68,639.19C1648.84,612.94 1670.93,591.846 1670.93,575.909C1670.93,569.659 1668.11,566.534 1662.49,566.534C1652.9,566.534 1642.1,573.565 1630.07,587.627C1618.04,601.69 1609.57,618.877 1604.68,639.19Z" />
    </g>
    <g transform="matrix(0.132051,0,0,0.132051,26.4869,-161.203)">
        <path
            d="M1494.54,1535.56L1497.46,1535.64L1500.38,1535.74L1503.31,1535.86L1506.23,1536L1509.16,1536.15L1512.09,1536.32L1515.03,1536.51L1517.97,1536.71L1520.91,1536.93L1523.86,1537.16L1526.82,1537.41L1529.77,1537.67L1532.73,1537.95L1535.7,1538.24L1538.67,1538.55L1541.64,1538.87L1544.62,1539.2L1547.61,1539.54L1550.6,1539.9L1553.59,1540.27L1556.59,1540.65L1559.6,1541.04L1562.61,1541.44L1565.63,1541.86L1568.65,1542.28L1571.68,1542.72L1574.72,1543.16L1577.77,1543.62L1580.82,1544.08L1583.88,1544.55L1586.94,1545.03L1590.01,1545.52L1593.09,1546.02L1596.18,1546.53L1599.28,1547.04L1605.49,1548.09L1611.74,1549.16L1618.02,1550.26L1624.34,1551.38L1630.69,1552.52L1637.09,1553.67L1649.98,1556.03L1663.06,1558.42L1669.66,1559.63L1676.31,1560.83L1683,1562.04L1689.75,1563.25L1696.54,1564.45L1703.38,1565.65L1710.28,1566.84L1717.23,1568.02L1720.72,1568.6L1724.23,1569.18L1727.75,1569.76L1731.29,1570.34L1734.84,1570.9L1738.41,1571.47L1741.99,1572.03L1745.58,1572.58L1749.19,1573.13L1752.82,1573.67L1756.45,1574.21L1760.11,1574.74L1763.78,1575.26L1767.47,1575.78L1771.17,1576.29L1774.89,1576.79L1778.62,1577.28L1782.37,1577.77L1786.14,1578.25L1789.92,1578.72L1793.72,1579.18L1797.54,1579.63L1801.38,1580.07L1805.23,1580.5L1809.1,1580.92L1812.98,1581.33L1816.89,1581.74L1820.81,1582.13L1824.75,1582.5L1828.71,1582.87L1832.68,1583.23L1836.68,1583.57L1840.69,1583.9L1844.73,1584.22L1848.78,1584.53L1852.85,1584.82L1856.94,1585.1L1861.05,1585.37L1865.18,1585.62L1869.33,1585.86L1873.5,1586.08L1877.68,1586.29L1881.89,1586.48L1886.12,1586.66L1890.37,1586.82L1894.64,1586.97L1898.93,1587.09L1903.25,1587.21L1907.58,1587.3L1911.94,1587.38L1916.31,1587.44L1920.71,1587.49L1925.13,1587.52L1929.57,1587.52L1934.04,1587.51L1938.56,1587.48L1940.31,1587.56L1942.05,1587.81L1943.75,1588.24L1945.4,1588.84L1946.98,1589.6L1948.47,1590.52L1949.86,1591.58L1951.14,1592.78L1952.29,1594.11L1953.31,1595.54L1954.17,1597.07L1954.87,1598.67L1955.4,1600.35L1955.77,1602.06L1955.96,1603.8L1955.97,1605.56L1955.8,1607.3L1955.46,1609.02L1954.95,1610.7L1954.27,1612.32L1953.43,1613.86L1952.43,1615.3L1951.3,1616.64L1950.04,1617.86L1948.66,1618.94L1947.17,1619.88L1945.61,1620.66L1943.97,1621.28L1942.27,1621.73L1940.54,1622.01L1938.79,1622.11L1934.19,1622.14L1929.58,1622.15L1925,1622.14L1920.44,1622.11L1915.89,1622.07L1911.38,1622L1906.88,1621.92L1902.41,1621.82L1897.96,1621.71L1893.53,1621.57L1889.12,1621.42L1884.74,1621.25L1880.37,1621.07L1876.03,1620.87L1871.71,1620.66L1867.41,1620.43L1863.13,1620.18L1858.88,1619.92L1854.64,1619.65L1850.43,1619.36L1846.23,1619.06L1842.06,1618.74L1837.9,1618.41L1833.77,1618.07L1829.66,1617.72L1825.57,1617.35L1821.49,1616.98L1817.44,1616.59L1813.4,1616.18L1809.39,1615.77L1805.4,1615.35L1801.42,1614.92L1797.47,1614.47L1793.53,1614.02L1789.61,1613.56L1785.71,1613.08L1781.83,1612.6L1777.97,1612.11L1774.13,1611.62L1770.3,1611.11L1766.49,1610.6L1762.7,1610.07L1758.93,1609.55L1755.18,1609.01L1751.44,1608.47L1747.73,1607.92L1744.03,1607.37L1740.34,1606.81L1736.68,1606.24L1733.03,1605.67L1729.4,1605.1L1725.78,1604.52L1722.18,1603.94L1718.6,1603.35L1715.04,1602.76L1711.48,1602.16L1704.44,1600.97L1697.46,1599.77L1690.53,1598.56L1683.67,1597.34L1676.87,1596.12L1670.13,1594.9L1663.45,1593.69L1656.83,1592.48L1643.76,1590.09L1630.9,1587.74L1624.56,1586.6L1618.26,1585.47L1612.02,1584.36L1605.82,1583.28L1599.68,1582.22L1593.57,1581.19L1590.55,1580.69L1587.53,1580.2L1584.52,1579.71L1581.53,1579.23L1578.54,1578.76L1575.57,1578.3L1572.61,1577.85L1569.66,1577.41L1566.72,1576.98L1563.79,1576.56L1560.87,1576.15L1557.96,1575.75L1555.06,1575.37L1552.17,1574.99L1549.3,1574.62L1546.43,1574.27L1543.57,1573.93L1540.72,1573.6L1537.88,1573.29L1535.05,1572.98L1532.23,1572.69L1529.42,1572.42L1526.62,1572.15L1523.83,1571.91L1521.05,1571.67L1518.27,1571.45L1515.5,1571.25L1512.75,1571.06L1510,1570.88L1507.25,1570.72L1504.52,1570.58L1501.79,1570.45L1499.08,1570.34L1496.36,1570.25L1493.66,1570.17L1490.91,1570.11L1489.16,1569.98L1487.43,1569.68L1485.75,1569.2L1484.12,1568.56L1482.56,1567.75L1481.09,1566.79L1479.73,1565.68L1478.49,1564.45L1477.37,1563.09L1476.4,1561.63L1475.59,1560.08L1474.93,1558.45L1474.44,1556.77L1474.13,1555.04L1473.99,1553.29L1474.03,1551.54L1474.25,1549.8L1474.64,1548.09L1475.2,1546.43L1475.93,1544.83L1476.81,1543.32L1477.85,1541.9L1479.02,1540.6L1480.32,1539.42L1481.73,1538.38L1483.24,1537.48L1484.83,1536.74L1486.48,1536.17L1488.19,1535.77L1489.93,1535.54L1491.68,1535.49L1494.54,1535.56Z" />
    </g>
    <g transform="matrix(0.0446755,-0.124265,0.124265,0.0446755,-55.0703,196.456)">
        <path
            d="M1980.97,1886.44L1981.2,1887.23L1981.39,1888.03L1981.54,1888.84L1981.65,1889.66L1981.73,1890.48L1981.76,1891.3L1981.76,1892.12L1981.73,1892.97L1981.63,1894.24L1981.48,1895.42L1981.29,1896.53L1981.07,1897.59L1980.83,1898.6L1980.56,1899.57L1980.28,1900.51L1979.98,1901.43L1979.67,1902.33L1979.34,1903.21L1979,1904.09L1978.64,1904.95L1978.28,1905.82L1977.89,1906.68L1977.5,1907.54L1977.1,1908.4L1976.68,1909.26L1976.25,1910.13L1975.81,1911.01L1975.36,1911.88L1974.9,1912.77L1974.42,1913.66L1973.93,1914.58L1972.93,1916.38L1971.89,1918.23L1970.8,1920.11L1969.67,1922.04L1968.51,1923.99L1967.31,1925.98L1966.07,1928L1964.81,1930.05L1963.52,1932.14L1962.2,1934.26L1959.51,1938.56L1953.91,1947.46L1951.05,1952.03L1949.63,1954.32L1948.2,1956.63L1946.77,1958.95L1945.35,1961.27L1943.94,1963.59L1942.55,1965.92L1941.16,1968.25L1939.8,1970.57L1938.46,1972.88L1937.14,1975.18L1935.85,1977.47L1934.58,1979.75L1933.35,1982.03L1932.75,1983.13L1932.16,1984.25L1931.58,1985.36L1931.01,1986.46L1930.44,1987.56L1929.89,1988.65L1929.35,1989.73L1928.82,1990.8L1928.31,1991.87L1927.8,1992.92L1927.31,1993.97L1926.83,1995L1926.37,1996.03L1925.91,1997.04L1925.48,1998.05L1925.05,1999.04L1924.64,2000.01L1924.25,2000.98L1923.87,2001.93L1923.51,2002.87L1923.16,2003.79L1922.83,2004.69L1922.52,2005.58L1922.22,2006.45L1921.94,2007.3L1921.68,2008.13L1921.43,2008.95L1921.21,2009.74L1921,2010.51L1920.8,2011.26L1920.63,2011.98L1920.47,2012.68L1920.33,2013.36L1920.21,2014L1920.1,2014.62L1920.01,2015.21L1919.94,2015.77L1919.88,2016.3L1919.84,2016.79L1919.81,2017.25L1919.79,2017.67L1919.78,2018.3L1919.75,2019.12L1919.68,2019.94L1919.58,2020.76L1919.43,2021.57L1919.24,2022.37L1919.02,2023.16L1918.76,2023.95L1918.46,2024.72L1918.12,2025.47L1917.75,2026.2L1917.35,2026.92L1916.91,2027.62L1916.44,2028.3L1915.94,2028.95L1915.4,2029.58L1914.84,2030.18L1914.25,2030.75L1913.63,2031.3L1912.99,2031.82L1912.33,2032.3L1911.64,2032.75L1910.93,2033.17L1910.2,2033.56L1909.45,2033.91L1908.69,2034.22L1907.92,2034.5L1907.13,2034.74L1906.33,2034.94L1905.52,2035.11L1904.71,2035.23L1903.89,2035.32L1903.07,2035.37L1902.24,2035.38L1901.42,2035.35L1900.6,2035.28L1899.78,2035.17L1898.97,2035.02L1898.17,2034.84L1897.38,2034.61L1896.59,2034.35L1895.83,2034.05L1895.07,2033.72L1894.34,2033.35L1893.62,2032.94L1892.92,2032.5L1892.24,2032.03L1891.59,2031.53L1890.96,2031L1890.36,2030.43L1889.79,2029.85L1889.24,2029.23L1888.72,2028.59L1888.24,2027.92L1887.79,2027.23L1887.37,2026.52L1886.98,2025.79L1886.63,2025.05L1886.32,2024.29L1886.04,2023.51L1885.8,2022.72L1885.6,2021.92L1885.43,2021.12L1885.31,2020.3L1885.22,2019.48L1885.17,2018.66L1885.16,2017.84L1885.18,2016.77L1885.23,2015.47L1885.31,2014.19L1885.42,2012.91L1885.56,2011.63L1885.73,2010.37L1885.92,2009.11L1886.13,2007.86L1886.37,2006.6L1886.63,2005.36L1886.91,2004.11L1887.21,2002.87L1887.53,2001.63L1887.87,2000.39L1888.22,1999.16L1888.59,1997.92L1888.98,1996.69L1889.39,1995.45L1889.81,1994.22L1890.25,1992.98L1890.7,1991.75L1891.16,1990.51L1891.64,1989.27L1892.14,1988.04L1892.64,1986.8L1893.16,1985.56L1893.69,1984.32L1894.23,1983.07L1894.79,1981.83L1895.35,1980.58L1895.93,1979.34L1896.51,1978.09L1897.11,1976.84L1897.72,1975.59L1898.33,1974.34L1898.96,1973.09L1899.59,1971.84L1900.23,1970.59L1900.88,1969.34L1901.54,1968.09L1902.2,1966.83L1902.88,1965.57L1904.24,1963.08L1905.62,1960.58L1907.03,1958.08L1908.46,1955.59L1909.9,1953.1L1911.36,1950.63L1912.82,1948.16L1914.3,1945.71L1915.77,1943.27L1917.25,1940.85L1918.73,1938.44L1920.21,1936.06L1921.68,1933.7L1924.58,1929.06L1930.18,1920.15L1932.83,1915.91L1934.11,1913.87L1935.35,1911.87L1936.54,1909.92L1937.7,1908.03L1938.81,1906.19L1939.87,1904.41L1940.87,1902.7L1941.82,1901.05L1942.71,1899.49L1943.54,1897.98L1943.91,1897.28L1944.28,1896.6L1944.63,1895.93L1944.96,1895.29L1945.27,1894.67L1945.56,1894.09L1945.83,1893.53L1946.08,1893L1946.3,1892.5L1946.51,1892.04L1946.69,1891.62L1946.85,1891.23L1946.98,1890.89L1947.09,1890.6L1947.17,1890.35L1947.19,1890.29L1947.27,1889.49L1947.39,1888.67L1947.56,1887.86L1947.75,1887.06L1947.99,1886.28L1948.26,1885.5L1948.57,1884.73L1948.92,1883.99L1949.3,1883.26L1949.72,1882.54L1950.16,1881.85L1950.64,1881.18L1951.16,1880.54L1951.7,1879.92L1952.27,1879.33L1952.87,1878.76L1953.5,1878.22L1954.15,1877.72L1954.82,1877.24L1955.52,1876.8L1956.23,1876.39L1956.97,1876.02L1957.72,1875.68L1958.48,1875.38L1959.26,1875.11L1960.06,1874.88L1960.86,1874.69L1961.67,1874.54L1962.48,1874.43L1963.3,1874.35L1964.13,1874.32L1964.95,1874.32L1965.77,1874.37L1966.59,1874.45L1967.41,1874.57L1968.22,1874.73L1969.02,1874.93L1969.81,1875.16L1970.58,1875.44L1971.35,1875.75L1972.1,1876.09L1972.83,1876.47L1973.54,1876.89L1974.23,1877.34L1974.9,1877.82L1975.54,1878.33L1976.16,1878.87L1976.76,1879.45L1977.32,1880.05L1977.86,1880.67L1978.36,1881.32L1978.84,1881.99L1979.28,1882.69L1979.69,1883.4L1980.06,1884.14L1980.4,1884.89L1980.7,1885.66L1980.97,1886.44ZM1947.15,1891.07L1947.15,1891.13L1947.15,1891.02L1947.15,1891.07Z" />
    </g>
    <g transform="matrix(0.0446755,-0.124265,0.124265,0.0446755,-55.0703,196.456)">
        <path
            d="M1924.03,2028.03L1924.26,2028.88L1924.44,2029.74L1924.59,2030.6L1924.68,2031.48L1924.73,2032.35L1924.74,2033.23L1924.7,2034.1L1924.62,2034.98L1924.5,2035.85L1924.33,2036.71L1924.12,2037.56L1923.86,2038.4L1923.57,2039.22L1923.23,2040.03L1922.85,2040.82L1922.43,2041.59L1921.97,2042.34L1921.48,2043.07L1920.94,2043.76L1920.38,2044.43L1919.78,2045.08L1919.15,2045.68L1918.49,2046.26L1917.8,2046.81L1917.09,2047.31L1916.35,2047.78L1915.58,2048.22L1914.8,2048.61L1914,2048.96L1913.17,2049.27L1912.34,2049.54L1911.49,2049.77L1910.64,2049.95L1909.77,2050.1L1908.9,2050.19L1908.02,2050.24L1907.14,2050.25L1906.27,2050.22L1905.4,2050.13L1904.53,2050.01L1903.67,2049.84L1902.82,2049.63L1901.98,2049.37L1901.15,2049.07L1900.34,2048.74L1899.55,2048.36L1898.78,2047.94L1898.03,2047.48L1897.31,2046.99L1896.61,2046.45L1895.94,2045.89L1895.3,2045.29L1894.89,2044.89L1894.55,2044.57L1894.18,2044.22L1893.77,2043.86L1893.33,2043.48L1892.86,2043.08L1892.36,2042.66L1891.83,2042.23L1891.27,2041.79L1890.68,2041.33L1890.06,2040.86L1889.42,2040.38L1888.75,2039.89L1888.05,2039.39L1887.34,2038.88L1886.59,2038.36L1885.83,2037.84L1885.04,2037.31L1884.23,2036.76L1883.39,2036.22L1882.54,2035.66L1881.67,2035.1L1880.78,2034.54L1879.87,2033.97L1878.94,2033.39L1877.99,2032.81L1877.02,2032.22L1876.06,2031.65L1874.02,2030.45L1871.94,2029.25L1869.81,2028.03L1867.62,2026.81L1865.37,2025.58L1863.08,2024.35L1860.74,2023.11L1858.36,2021.88L1855.94,2020.64L1853.49,2019.4L1851.01,2018.17L1848.5,2016.94L1845.96,2015.71L1843.4,2014.5L1840.82,2013.29L1838.23,2012.1L1835.62,2010.91L1833.01,2009.75L1830.39,2008.59L1827.76,2007.46L1825.14,2006.34L1822.52,2005.24L1819.91,2004.16L1817.31,2003.11L1814.73,2002.07L1812.15,2001.07L1809.61,2000.09L1807.08,1999.14L1804.58,1998.22L1802.12,1997.34L1799.68,1996.48L1797.29,1995.66L1794.92,1994.87L1793.77,1994.5L1792.63,1994.13L1791.49,1993.77L1790.37,1993.42L1789.26,1993.08L1788.16,1992.75L1787.08,1992.44L1786.02,1992.13L1784.97,1991.83L1783.94,1991.55L1782.92,1991.27L1781.92,1991.01L1780.94,1990.76L1779.98,1990.52L1779.03,1990.29L1778.11,1990.07L1777.21,1989.87L1776.33,1989.67L1775.47,1989.5L1774.64,1989.33L1773.83,1989.17L1773.05,1989.03L1772.29,1988.9L1771.56,1988.79L1770.86,1988.68L1770.19,1988.59L1769.55,1988.51L1768.95,1988.44L1768.38,1988.39L1767.84,1988.35L1767.35,1988.31L1766.9,1988.29L1766.49,1988.28L1765.93,1988.27L1765.06,1988.24L1764.18,1988.16L1763.32,1988.05L1762.45,1987.88L1761.6,1987.67L1760.76,1987.42L1759.93,1987.13L1759.12,1986.8L1758.33,1986.42L1757.56,1986.01L1756.81,1985.56L1756.08,1985.07L1755.38,1984.54L1754.7,1983.98L1754.06,1983.38L1753.44,1982.76L1752.86,1982.1L1752.32,1981.41L1751.81,1980.7L1751.33,1979.96L1750.89,1979.2L1750.5,1978.42L1750.14,1977.62L1749.82,1976.8L1749.55,1975.97L1749.31,1975.12L1749.12,1974.27L1748.98,1973.4L1748.88,1972.53L1748.82,1971.66L1748.81,1970.78L1748.84,1969.9L1748.91,1969.03L1749.03,1968.16L1749.2,1967.3L1749.4,1966.45L1749.65,1965.61L1749.95,1964.78L1750.28,1963.97L1750.66,1963.17L1751.07,1962.4L1751.52,1961.65L1752.01,1960.92L1752.54,1960.22L1753.1,1959.55L1753.7,1958.9L1754.32,1958.29L1754.98,1957.71L1755.66,1957.16L1756.38,1956.65L1757.12,1956.17L1757.88,1955.74L1758.66,1955.34L1759.46,1954.98L1760.28,1954.66L1761.11,1954.39L1761.95,1954.16L1762.81,1953.97L1763.68,1953.82L1764.55,1953.72L1765.42,1953.66L1766.3,1953.65L1767.18,1953.66L1768.25,1953.69L1769.31,1953.74L1770.38,1953.81L1771.44,1953.9L1772.51,1954L1773.59,1954.12L1774.67,1954.26L1775.75,1954.4L1776.85,1954.57L1777.95,1954.74L1779.05,1954.93L1780.17,1955.13L1781.3,1955.35L1782.43,1955.58L1783.58,1955.82L1784.73,1956.07L1785.89,1956.33L1787.06,1956.61L1788.24,1956.89L1789.43,1957.19L1790.63,1957.5L1791.84,1957.82L1793.06,1958.14L1794.29,1958.49L1795.53,1958.84L1796.77,1959.19L1798.03,1959.57L1799.29,1959.94L1800.57,1960.33L1801.85,1960.73L1803.14,1961.14L1804.43,1961.56L1805.76,1961.99L1808.37,1962.86L1811.03,1963.77L1813.71,1964.71L1816.42,1965.68L1819.15,1966.69L1821.9,1967.72L1824.66,1968.78L1827.44,1969.87L1830.23,1970.98L1833.02,1972.11L1835.83,1973.27L1838.63,1974.45L1841.44,1975.64L1844.25,1976.86L1847.05,1978.1L1849.84,1979.35L1852.63,1980.61L1855.4,1981.89L1858.16,1983.18L1860.9,1984.48L1863.62,1985.79L1866.32,1987.11L1868.99,1988.44L1871.64,1989.77L1874.25,1991.11L1876.83,1992.46L1879.38,1993.8L1881.88,1995.15L1884.35,1996.5L1886.77,1997.85L1889.15,1999.2L1891.48,2000.55L1893.75,2001.88L1894.88,2002.56L1895.99,2003.23L1897.09,2003.9L1898.17,2004.57L1899.23,2005.24L1900.29,2005.91L1901.33,2006.57L1902.35,2007.24L1903.36,2007.9L1904.35,2008.57L1905.33,2009.23L1906.3,2009.89L1907.25,2010.56L1908.18,2011.22L1909.1,2011.88L1910,2012.54L1910.89,2013.2L1911.76,2013.87L1912.62,2014.53L1913.46,2015.2L1914.29,2015.87L1915.1,2016.54L1915.9,2017.22L1916.68,2017.9L1917.45,2018.59L1918.21,2019.28L1918.95,2019.99L1919.57,2020.59L1920.18,2021.22L1920.75,2021.88L1921.3,2022.57L1921.8,2023.29L1922.27,2024.03L1922.71,2024.79L1923.1,2025.58L1923.45,2026.38L1923.76,2027.2L1924.03,2028.03Z" />
    </g>
</svg>
