<?xml version="1.0" encoding="UTF-8" standalone="no"?><!DOCTYPE svg PUBLIC "-//W3C//DTD SVG 1.1//EN"
    "http://www.w3.org/Graphics/SVG/1.1/DTD/svg11.dtd">
<svg style="fill-rule:evenodd;clip-rule:evenodd;stroke-linejoin:round;stroke-miterlimit:1.41421;"
    height="100%" version="1.1" viewBox="0 0 273 80" width="100%" xmlns="http://www.w3.org/2000/svg"
    xml:space="preserve">
    <g transform="matrix(0.125755,0,0,0.125755,25.224,-153.517)">
        <path
            d="M1494.54,1535.56L1497.46,1535.64L1500.38,1535.74L1503.31,1535.86L1506.23,1536L1509.16,1536.15L1512.09,1536.32L1515.03,1536.51L1517.97,1536.71L1520.91,1536.93L1523.86,1537.16L1526.82,1537.41L1529.77,1537.67L1532.73,1537.95L1535.7,1538.24L1538.67,1538.55L1541.64,1538.87L1544.62,1539.2L1547.61,1539.54L1550.6,1539.9L1553.59,1540.27L1556.59,1540.65L1559.6,1541.04L1562.61,1541.44L1565.63,1541.86L1568.65,1542.28L1571.68,1542.72L1574.72,1543.16L1577.77,1543.62L1580.82,1544.08L1583.88,1544.55L1586.94,1545.03L1590.01,1545.52L1593.09,1546.02L1596.18,1546.53L1599.28,1547.04L1605.49,1548.09L1611.74,1549.16L1618.02,1550.26L1624.34,1551.38L1630.69,1552.52L1637.09,1553.67L1649.98,1556.03L1663.06,1558.42L1669.66,1559.63L1676.31,1560.83L1683,1562.04L1689.75,1563.25L1696.54,1564.45L1703.38,1565.65L1710.28,1566.84L1717.23,1568.02L1724.24,1569.19L1727.75,1569.76L1731.29,1570.34L1734.84,1570.9L1738.41,1571.47L1741.99,1572.03L1745.58,1572.58L1749.19,1573.13L1752.82,1573.67L1756.45,1574.21L1760.11,1574.74L1763.78,1575.26L1767.47,1575.78L1771.17,1576.29L1774.89,1576.79L1778.62,1577.28L1782.37,1577.77L1786.14,1578.25L1789.92,1578.72L1793.72,1579.18L1797.54,1579.63L1801.38,1580.07L1805.23,1580.5L1809.1,1580.92L1812.98,1581.33L1816.89,1581.74L1820.81,1582.13L1824.75,1582.5L1828.71,1582.87L1832.68,1583.23L1836.68,1583.57L1840.69,1583.9L1844.73,1584.22L1848.78,1584.53L1852.85,1584.82L1856.94,1585.1L1861.05,1585.37L1865.18,1585.62L1869.33,1585.86L1873.5,1586.08L1877.68,1586.29L1881.89,1586.48L1886.12,1586.66L1890.37,1586.82L1894.64,1586.97L1898.93,1587.09L1903.25,1587.21L1907.58,1587.3L1911.94,1587.38L1916.31,1587.44L1920.71,1587.49L1925.13,1587.52L1929.57,1587.52L1934.04,1587.51L1938.56,1587.48L1940.31,1587.56L1942.05,1587.81L1943.75,1588.24L1945.4,1588.84L1946.98,1589.6L1948.47,1590.52L1949.86,1591.58L1951.14,1592.78L1952.29,1594.11L1953.31,1595.54L1954.17,1597.07L1954.87,1598.67L1955.4,1600.35L1955.77,1602.06L1955.96,1603.8L1955.97,1605.56L1955.8,1607.3L1955.46,1609.02L1954.95,1610.7L1954.27,1612.32L1953.43,1613.86L1952.43,1615.3L1951.3,1616.64L1950.04,1617.86L1948.66,1618.94L1947.17,1619.88L1945.61,1620.66L1943.97,1621.28L1942.27,1621.73L1940.54,1622.01L1938.79,1622.11L1934.19,1622.14L1929.58,1622.15L1925,1622.14L1920.44,1622.11L1915.89,1622.07L1911.38,1622L1906.88,1621.92L1902.41,1621.82L1897.96,1621.71L1893.53,1621.57L1889.12,1621.42L1884.74,1621.25L1880.37,1621.07L1876.03,1620.87L1871.71,1620.66L1867.41,1620.43L1863.13,1620.18L1858.88,1619.92L1854.64,1619.65L1850.43,1619.36L1846.23,1619.06L1842.06,1618.74L1837.9,1618.41L1833.77,1618.07L1829.66,1617.72L1825.57,1617.35L1821.49,1616.98L1817.44,1616.59L1813.4,1616.18L1809.39,1615.77L1805.4,1615.35L1801.42,1614.92L1797.47,1614.47L1793.53,1614.02L1789.61,1613.56L1785.71,1613.08L1781.83,1612.6L1777.97,1612.11L1774.13,1611.62L1770.3,1611.11L1766.49,1610.6L1762.7,1610.07L1758.93,1609.55L1755.18,1609.01L1751.44,1608.47L1747.73,1607.92L1744.03,1607.37L1740.34,1606.81L1736.68,1606.24L1733.03,1605.67L1729.4,1605.1L1725.78,1604.52L1722.18,1603.94L1718.6,1603.35L1711.49,1602.17L1704.44,1600.97L1697.46,1599.77L1690.53,1598.56L1683.67,1597.34L1676.87,1596.12L1670.13,1594.9L1663.45,1593.69L1656.83,1592.48L1643.76,1590.09L1630.9,1587.74L1624.56,1586.6L1618.26,1585.47L1612.02,1584.36L1605.82,1583.28L1599.68,1582.22L1593.57,1581.19L1590.55,1580.69L1587.53,1580.2L1584.52,1579.71L1581.53,1579.23L1578.54,1578.76L1575.57,1578.3L1572.61,1577.85L1569.66,1577.41L1566.72,1576.98L1563.79,1576.56L1560.87,1576.15L1557.96,1575.75L1555.06,1575.37L1552.17,1574.99L1549.3,1574.62L1546.43,1574.27L1543.57,1573.93L1540.72,1573.6L1537.88,1573.29L1535.05,1572.98L1532.23,1572.69L1529.42,1572.42L1526.62,1572.15L1523.83,1571.91L1521.05,1571.67L1518.27,1571.45L1515.5,1571.25L1512.75,1571.06L1510,1570.88L1507.25,1570.72L1504.52,1570.58L1501.79,1570.45L1499.08,1570.34L1496.36,1570.25L1493.66,1570.17L1490.91,1570.11L1489.16,1569.98L1487.43,1569.68L1485.75,1569.2L1484.12,1568.56L1482.56,1567.75L1481.09,1566.79L1479.73,1565.68L1478.49,1564.45L1477.37,1563.09L1476.4,1561.63L1475.59,1560.08L1474.93,1558.45L1474.44,1556.77L1474.13,1555.04L1473.99,1553.29L1474.03,1551.54L1474.25,1549.8L1474.64,1548.09L1475.2,1546.43L1475.93,1544.83L1476.81,1543.32L1477.85,1541.9L1479.02,1540.6L1480.32,1539.42L1481.73,1538.38L1483.24,1537.48L1484.83,1536.74L1486.48,1536.17L1488.19,1535.77L1489.93,1535.54L1491.68,1535.49L1494.54,1535.56Z" />
    </g>
    <g transform="matrix(0.0425454,-0.11834,0.11834,0.0425454,-52.4446,187.089)">
        <path
            d="M1980.97,1886.44L1981.2,1887.23L1981.39,1888.03L1981.54,1888.84L1981.65,1889.66L1981.73,1890.48L1981.76,1891.3L1981.76,1892.12L1981.73,1892.97L1981.63,1894.24L1981.48,1895.42L1981.29,1896.53L1981.07,1897.59L1980.83,1898.6L1980.56,1899.57L1980.28,1900.51L1979.98,1901.43L1979.67,1902.33L1979.34,1903.21L1979,1904.09L1978.64,1904.95L1978.28,1905.82L1977.89,1906.68L1977.5,1907.54L1977.1,1908.4L1976.68,1909.26L1976.25,1910.13L1975.81,1911.01L1975.36,1911.88L1974.88,1912.79L1973.94,1914.55L1972.93,1916.38L1971.89,1918.23L1970.8,1920.11L1969.67,1922.04L1968.51,1923.99L1967.31,1925.98L1966.07,1928L1964.81,1930.05L1963.52,1932.14L1962.2,1934.26L1959.51,1938.56L1953.91,1947.46L1951.05,1952.03L1949.63,1954.32L1948.2,1956.63L1946.77,1958.95L1945.35,1961.27L1943.94,1963.59L1942.55,1965.92L1941.16,1968.25L1939.8,1970.57L1938.46,1972.88L1937.14,1975.18L1935.85,1977.47L1934.58,1979.75L1933.35,1982.01L1932.15,1984.26L1931.58,1985.36L1931.01,1986.46L1930.44,1987.56L1929.89,1988.65L1929.35,1989.73L1928.82,1990.8L1928.31,1991.87L1927.8,1992.92L1927.31,1993.97L1926.83,1995L1926.37,1996.03L1925.91,1997.04L1925.48,1998.05L1925.05,1999.04L1924.64,2000.01L1924.25,2000.98L1923.87,2001.93L1923.51,2002.87L1923.16,2003.79L1922.83,2004.69L1922.52,2005.58L1922.22,2006.45L1921.94,2007.3L1921.68,2008.13L1921.43,2008.95L1921.21,2009.74L1921,2010.51L1920.8,2011.26L1920.63,2011.98L1920.47,2012.68L1920.33,2013.36L1920.21,2014L1920.1,2014.62L1920.01,2015.21L1919.94,2015.77L1919.88,2016.3L1919.84,2016.79L1919.81,2017.25L1919.79,2017.67L1919.78,2018.3L1919.75,2019.12L1919.68,2019.94L1919.58,2020.76L1919.43,2021.57L1919.24,2022.37L1919.02,2023.16L1918.76,2023.95L1918.46,2024.72L1918.12,2025.47L1917.75,2026.2L1917.35,2026.92L1916.91,2027.62L1916.44,2028.3L1915.94,2028.95L1915.4,2029.58L1914.84,2030.18L1914.25,2030.75L1913.63,2031.3L1912.99,2031.82L1912.33,2032.3L1911.64,2032.75L1910.93,2033.17L1910.2,2033.56L1909.45,2033.91L1908.69,2034.22L1907.92,2034.5L1907.13,2034.74L1906.33,2034.94L1905.52,2035.11L1904.71,2035.23L1903.89,2035.32L1903.07,2035.37L1902.24,2035.38L1901.42,2035.35L1900.6,2035.28L1899.78,2035.17L1898.97,2035.02L1898.17,2034.84L1897.38,2034.61L1896.59,2034.35L1895.83,2034.05L1895.07,2033.72L1894.34,2033.35L1893.62,2032.94L1892.92,2032.5L1892.24,2032.03L1891.59,2031.53L1890.96,2031L1890.36,2030.43L1889.79,2029.85L1889.24,2029.23L1888.72,2028.59L1888.24,2027.92L1887.79,2027.23L1887.37,2026.52L1886.98,2025.79L1886.63,2025.05L1886.32,2024.29L1886.04,2023.51L1885.8,2022.72L1885.6,2021.92L1885.43,2021.12L1885.31,2020.3L1885.22,2019.48L1885.17,2018.66L1885.16,2017.84L1885.18,2016.77L1885.23,2015.47L1885.31,2014.19L1885.42,2012.91L1885.56,2011.63L1885.73,2010.37L1885.92,2009.11L1886.13,2007.86L1886.37,2006.6L1886.63,2005.36L1886.91,2004.11L1887.21,2002.87L1887.53,2001.63L1887.87,2000.39L1888.22,1999.16L1888.59,1997.92L1888.98,1996.69L1889.39,1995.45L1889.81,1994.22L1890.25,1992.98L1890.7,1991.75L1891.16,1990.51L1891.64,1989.27L1892.14,1988.04L1892.64,1986.8L1893.16,1985.56L1893.69,1984.32L1894.23,1983.07L1894.79,1981.83L1895.35,1980.58L1895.93,1979.34L1896.51,1978.09L1897.11,1976.84L1897.72,1975.59L1898.33,1974.34L1898.96,1973.09L1899.59,1971.84L1900.23,1970.59L1900.88,1969.34L1901.55,1968.07L1902.87,1965.58L1904.24,1963.08L1905.62,1960.58L1907.03,1958.08L1908.46,1955.59L1909.9,1953.1L1911.36,1950.63L1912.82,1948.16L1914.3,1945.71L1915.77,1943.27L1917.25,1940.85L1918.73,1938.44L1920.21,1936.06L1921.68,1933.7L1924.58,1929.06L1930.18,1920.15L1932.83,1915.91L1934.11,1913.87L1935.35,1911.87L1936.54,1909.92L1937.7,1908.03L1938.81,1906.19L1939.87,1904.41L1940.87,1902.7L1941.82,1901.05L1942.71,1899.49L1943.53,1898L1944.3,1896.57L1944.63,1895.93L1944.96,1895.29L1945.27,1894.67L1945.56,1894.09L1945.83,1893.53L1946.08,1893L1946.3,1892.5L1946.51,1892.04L1946.69,1891.62L1946.85,1891.23L1946.98,1890.89L1947.09,1890.6L1947.17,1890.35L1947.19,1890.29L1947.27,1889.49L1947.39,1888.67L1947.56,1887.86L1947.75,1887.06L1947.99,1886.28L1948.26,1885.5L1948.57,1884.73L1948.92,1883.99L1949.3,1883.26L1949.72,1882.54L1950.16,1881.85L1950.64,1881.18L1951.16,1880.54L1951.7,1879.92L1952.27,1879.33L1952.87,1878.76L1953.5,1878.22L1954.15,1877.72L1954.82,1877.24L1955.52,1876.8L1956.23,1876.39L1956.97,1876.02L1957.72,1875.68L1958.48,1875.38L1959.26,1875.11L1960.06,1874.88L1960.86,1874.69L1961.67,1874.54L1962.48,1874.43L1963.3,1874.35L1964.13,1874.32L1964.95,1874.32L1965.77,1874.37L1966.59,1874.45L1967.41,1874.57L1968.22,1874.73L1969.02,1874.93L1969.81,1875.16L1970.58,1875.44L1971.35,1875.75L1972.1,1876.09L1972.83,1876.47L1973.54,1876.89L1974.23,1877.34L1974.9,1877.82L1975.54,1878.33L1976.16,1878.87L1976.76,1879.45L1977.32,1880.05L1977.86,1880.67L1978.36,1881.32L1978.84,1881.99L1979.28,1882.69L1979.69,1883.4L1980.06,1884.14L1980.4,1884.89L1980.7,1885.66L1980.97,1886.44ZM1947.15,1891.07L1947.15,1891.13L1947.15,1891.02L1947.15,1891.07Z" />
    </g>
    <g transform="matrix(0.0425454,-0.11834,0.11834,0.0425454,-52.4446,187.089)">
        <path
            d="M1924.03,2028.03L1924.26,2028.88L1924.44,2029.74L1924.59,2030.6L1924.68,2031.48L1924.73,2032.35L1924.74,2033.23L1924.7,2034.1L1924.62,2034.98L1924.5,2035.85L1924.33,2036.71L1924.12,2037.56L1923.86,2038.4L1923.57,2039.22L1923.23,2040.03L1922.85,2040.82L1922.43,2041.59L1921.97,2042.34L1921.48,2043.07L1920.94,2043.76L1920.38,2044.43L1919.78,2045.08L1919.15,2045.68L1918.49,2046.26L1917.8,2046.81L1917.09,2047.31L1916.35,2047.78L1915.58,2048.22L1914.8,2048.61L1914,2048.96L1913.17,2049.27L1912.34,2049.54L1911.49,2049.77L1910.64,2049.95L1909.77,2050.1L1908.9,2050.19L1908.02,2050.24L1907.14,2050.25L1906.27,2050.22L1905.4,2050.13L1904.53,2050.01L1903.67,2049.84L1902.82,2049.63L1901.98,2049.37L1901.15,2049.07L1900.34,2048.74L1899.55,2048.36L1898.78,2047.94L1898.03,2047.48L1897.31,2046.99L1896.61,2046.45L1895.94,2045.89L1895.3,2045.29L1894.89,2044.89L1894.55,2044.57L1894.18,2044.22L1893.77,2043.86L1893.33,2043.48L1892.86,2043.08L1892.36,2042.66L1891.83,2042.23L1891.27,2041.79L1890.68,2041.33L1890.06,2040.86L1889.42,2040.38L1888.75,2039.89L1888.05,2039.39L1887.34,2038.88L1886.59,2038.36L1885.83,2037.84L1885.04,2037.31L1884.23,2036.76L1883.39,2036.22L1882.54,2035.66L1881.67,2035.1L1880.78,2034.54L1879.87,2033.97L1878.94,2033.39L1878.01,2032.82L1876.04,2031.63L1874.02,2030.45L1871.94,2029.25L1869.81,2028.03L1867.62,2026.81L1865.37,2025.58L1863.08,2024.35L1860.74,2023.11L1858.36,2021.88L1855.94,2020.64L1853.49,2019.4L1851.01,2018.17L1848.5,2016.94L1845.96,2015.71L1843.4,2014.5L1840.82,2013.29L1838.23,2012.1L1835.62,2010.91L1833.01,2009.75L1830.39,2008.59L1827.76,2007.46L1825.14,2006.34L1822.52,2005.24L1819.91,2004.16L1817.31,2003.11L1814.73,2002.07L1812.15,2001.07L1809.61,2000.09L1807.08,1999.14L1804.58,1998.22L1802.12,1997.34L1799.68,1996.48L1797.29,1995.66L1794.93,1994.88L1792.61,1994.12L1791.49,1993.77L1790.37,1993.42L1789.26,1993.08L1788.16,1992.75L1787.08,1992.44L1786.02,1992.13L1784.97,1991.83L1783.94,1991.55L1782.92,1991.27L1781.92,1991.01L1780.94,1990.76L1779.98,1990.52L1779.03,1990.29L1778.11,1990.07L1777.21,1989.87L1776.33,1989.67L1775.47,1989.5L1774.64,1989.33L1773.83,1989.17L1773.05,1989.03L1772.29,1988.9L1771.56,1988.79L1770.86,1988.68L1770.19,1988.59L1769.55,1988.51L1768.95,1988.44L1768.38,1988.39L1767.84,1988.35L1767.35,1988.31L1766.9,1988.29L1766.49,1988.28L1765.93,1988.27L1765.06,1988.24L1764.18,1988.16L1763.32,1988.05L1762.45,1987.88L1761.6,1987.67L1760.76,1987.42L1759.93,1987.13L1759.12,1986.8L1758.33,1986.42L1757.56,1986.01L1756.81,1985.56L1756.08,1985.07L1755.38,1984.54L1754.7,1983.98L1754.06,1983.38L1753.44,1982.76L1752.86,1982.1L1752.32,1981.41L1751.81,1980.7L1751.33,1979.96L1750.89,1979.2L1750.5,1978.42L1750.14,1977.62L1749.82,1976.8L1749.55,1975.97L1749.31,1975.12L1749.12,1974.27L1748.98,1973.4L1748.88,1972.53L1748.82,1971.66L1748.81,1970.78L1748.84,1969.9L1748.91,1969.03L1749.03,1968.16L1749.2,1967.3L1749.4,1966.45L1749.65,1965.61L1749.95,1964.78L1750.28,1963.97L1750.66,1963.17L1751.07,1962.4L1751.52,1961.65L1752.01,1960.92L1752.54,1960.22L1753.1,1959.55L1753.7,1958.9L1754.32,1958.29L1754.98,1957.71L1755.66,1957.16L1756.38,1956.65L1757.12,1956.17L1757.88,1955.74L1758.66,1955.34L1759.46,1954.98L1760.28,1954.66L1761.11,1954.39L1761.95,1954.16L1762.81,1953.97L1763.68,1953.82L1764.55,1953.72L1765.42,1953.66L1766.3,1953.65L1767.18,1953.66L1768.25,1953.69L1769.31,1953.74L1770.38,1953.81L1771.44,1953.9L1772.51,1954L1773.59,1954.12L1774.67,1954.26L1775.75,1954.4L1776.85,1954.57L1777.95,1954.74L1779.05,1954.93L1780.17,1955.13L1781.3,1955.35L1782.43,1955.58L1783.58,1955.82L1784.73,1956.07L1785.89,1956.33L1787.06,1956.61L1788.24,1956.89L1789.43,1957.19L1790.63,1957.5L1791.84,1957.82L1793.06,1958.14L1794.29,1958.49L1795.53,1958.84L1796.77,1959.19L1798.03,1959.57L1799.29,1959.94L1800.57,1960.33L1801.85,1960.73L1803.16,1961.14L1805.74,1961.98L1808.37,1962.86L1811.03,1963.77L1813.71,1964.71L1816.42,1965.68L1819.15,1966.69L1821.9,1967.72L1824.66,1968.78L1827.44,1969.87L1830.23,1970.98L1833.02,1972.11L1835.83,1973.27L1838.63,1974.45L1841.44,1975.64L1844.25,1976.86L1847.05,1978.1L1849.84,1979.35L1852.63,1980.61L1855.4,1981.89L1858.16,1983.18L1860.9,1984.48L1863.62,1985.79L1866.32,1987.11L1868.99,1988.44L1871.64,1989.77L1874.25,1991.11L1876.83,1992.46L1879.38,1993.8L1881.88,1995.15L1884.35,1996.5L1886.77,1997.85L1889.15,1999.2L1891.48,2000.55L1893.76,2001.89L1895.97,2003.22L1897.09,2003.9L1898.17,2004.57L1899.23,2005.24L1900.29,2005.91L1901.33,2006.57L1902.35,2007.24L1903.36,2007.9L1904.35,2008.57L1905.33,2009.23L1906.3,2009.89L1907.25,2010.56L1908.18,2011.22L1909.1,2011.88L1910,2012.54L1910.89,2013.2L1911.76,2013.87L1912.62,2014.53L1913.46,2015.2L1914.29,2015.87L1915.1,2016.54L1915.9,2017.22L1916.68,2017.9L1917.45,2018.59L1918.21,2019.28L1918.95,2019.99L1919.57,2020.59L1920.18,2021.22L1920.75,2021.88L1921.3,2022.57L1921.8,2023.29L1922.27,2024.03L1922.71,2024.79L1923.1,2025.58L1923.45,2026.38L1923.76,2027.2L1924.03,2028.03Z" />
    </g>
    <g transform="matrix(0.11286,0,0,0.11286,-5.13965,-12.0981)">
        <path style="fill-rule:nonzero;"
            d="M259.179,351.722C265.179,328.311 271.057,299.515 276.811,265.334C282.565,231.152 285.442,207.274 285.442,193.7C285.442,186.52 286.008,181.65 287.139,179.093C288.27,176.536 290.631,174.322 294.221,172.453C297.812,170.585 301.722,169.65 305.951,169.65C308.705,169.65 311.066,171.617 313.033,175.552C315.001,179.486 315.984,184.159 315.984,189.569C315.984,193.798 314.411,201.274 311.263,211.996C305.066,236.39 298.967,265.334 292.967,298.827C286.967,332.32 283.967,351.673 283.967,356.886C283.967,367.411 284.114,374.05 284.409,376.805C284.803,381.92 283.155,385.953 279.467,388.903C275.778,391.854 270.934,393.33 264.933,393.33C261.392,393.33 259.007,392.863 257.777,391.928C256.548,390.994 253.99,388.362 250.105,384.034C246.22,379.706 243.785,375.526 242.802,371.493C242.015,367.755 239.015,362.837 233.801,356.738C205.472,320.54 179.996,280.998 157.372,238.111C150.979,260.834 145.028,292.359 139.519,332.688L135.831,357.329C135.437,359.788 135.265,364.73 135.314,372.157C135.363,379.583 134.97,384.575 134.134,387.133C133.298,389.69 131.331,392.617 128.232,395.912C125.134,399.207 122.158,400.855 119.306,400.855C112.715,400.855 108.83,398.027 107.649,392.371C106.469,386.715 105.879,382.362 105.879,379.313C105.879,372.132 108.043,360.427 112.371,344.197C116.699,328.065 122.035,303.228 128.38,269.686C134.724,236.144 137.896,214.848 137.896,205.799L137.749,197.684C137.847,194.831 138.413,192.298 139.446,190.085C140.478,187.872 142.446,185.979 145.347,184.405C148.249,182.831 151.126,182.044 153.979,182.044C156.635,182.044 159.094,182.61 161.356,183.741C163.618,184.872 165.241,186.593 166.225,188.905C167.209,191.216 168.389,195.52 169.766,201.815C173.701,220.898 185.873,246.399 206.284,278.318C226.694,310.237 244.326,334.705 259.179,351.722Z" />
        <path style="fill-rule:nonzero;"
            d="M475.334,339.328C475.334,349.361 466.457,361.46 448.702,375.624C430.947,389.789 412.627,396.871 393.741,396.871C377.904,396.871 365.683,392.199 357.076,382.854C348.469,373.509 344.166,360.476 344.166,343.754C344.166,315.622 353.658,288.867 372.642,263.489C391.626,238.111 412.381,225.422 434.906,225.422C442.284,225.422 448.309,227.832 452.981,232.652C457.653,237.472 459.989,243.276 459.989,250.063C459.989,265.211 452.563,279.719 437.71,293.589C422.857,307.458 402.987,321.081 378.101,334.459C372.986,337.115 370.429,340.558 370.429,344.787C370.429,352.951 372.79,359.493 377.511,364.411C382.232,369.329 389.216,371.788 398.463,371.788C419.611,371.788 441.202,360.083 463.235,336.672C466.481,333.426 468.94,331.803 470.613,331.803C473.76,331.803 475.334,334.311 475.334,339.328ZM372.79,316.311C414.496,291.523 435.349,271.604 435.349,256.555C435.349,250.653 432.693,247.702 427.382,247.702C418.332,247.702 408.127,254.341 396.766,267.621C385.405,280.9 377.413,297.13 372.79,316.311Z" />
        <path style="fill-rule:nonzero;"
            d="M610.339,325.164C597.748,346.312 584.862,362.689 571.682,374.296C558.501,385.903 546.254,391.707 534.943,391.707C528.451,391.707 521.836,387.92 515.098,380.346C508.36,372.772 504.991,361.116 504.991,345.377C504.991,332.492 508.089,313.507 514.286,288.425C519.499,267.473 522.106,252.768 522.106,244.308C524.959,238.407 529.434,235.456 535.533,235.456C539.664,235.456 542.959,236.906 545.418,239.808C547.877,242.71 549.107,245.735 549.107,248.882C549.107,255.768 546.697,265.555 541.877,278.244C532.729,302.933 528.155,324.131 528.155,341.836C528.155,357.968 531.893,366.034 539.369,366.034C548.91,366.034 561.058,357.919 575.813,341.689C590.567,325.459 603.207,302.835 613.732,273.818C617.863,262.211 621.232,254.661 623.839,251.169C626.446,247.677 629.962,245.931 634.389,245.931C641.077,245.931 644.422,250.358 644.422,259.211C644.422,260.293 643.487,263.883 641.618,269.981C635.717,291.523 632.766,311.884 632.766,331.065C632.766,354.083 636.553,368.985 644.127,375.772C648.061,379.411 650.028,382.362 650.028,384.625C650.028,387.379 648.037,389.887 644.053,392.149C640.069,394.412 636.454,395.543 633.208,395.543C626.323,395.543 620.765,390.428 616.536,380.198C612.306,369.968 610.191,354.869 610.191,334.902L610.191,330.033C610.191,328.459 610.24,326.836 610.339,325.164Z" />
        <path style="fill-rule:nonzero;"
            d="M816.755,339.328C816.755,349.361 807.878,361.46 790.123,375.624C772.369,389.789 754.048,396.871 735.163,396.871C719.326,396.871 707.104,392.199 698.497,382.854C689.891,373.509 685.587,360.476 685.587,343.754C685.587,315.622 695.079,288.867 714.063,263.489C733.048,238.111 753.803,225.422 776.328,225.422C783.705,225.422 789.73,227.832 794.402,232.652C799.075,237.472 801.411,243.276 801.411,250.063C801.411,265.211 793.984,279.719 779.131,293.589C764.278,307.458 744.409,321.081 719.523,334.459C714.408,337.115 711.85,340.558 711.85,344.787C711.85,352.951 714.211,359.493 718.932,364.411C723.654,369.329 730.638,371.788 739.884,371.788C761.032,371.788 782.623,360.083 804.657,336.672C807.903,333.426 810.362,331.803 812.034,331.803C815.182,331.803 816.755,334.311 816.755,339.328ZM714.211,316.311C755.917,291.523 776.771,271.604 776.771,256.555C776.771,250.653 774.115,247.702 768.803,247.702C759.754,247.702 749.548,254.341 738.187,267.621C726.826,280.9 718.834,297.13 714.211,316.311Z" />
        <path style="fill-rule:nonzero;"
            d="M1013.73,180.864C1042.65,176.142 1063.75,173.781 1077.03,173.781C1097.78,173.781 1114.36,178.7 1126.75,188.536C1139.14,198.372 1145.34,210.717 1145.34,225.57C1145.34,240.423 1138.78,254.415 1125.64,267.547C1112.51,280.678 1096.01,290.982 1076.14,298.458C1073.68,299.441 1072.45,300.474 1072.45,301.556C1072.45,303.228 1082.61,311.909 1102.92,327.598C1123.23,343.287 1141.9,356.394 1158.91,366.919C1163.73,369.87 1166.14,373.755 1166.14,378.575C1166.14,381.723 1164.5,384.846 1161.2,387.944C1157.91,391.043 1154.83,392.592 1151.98,392.592C1146.18,392.592 1136.91,387.772 1124.17,378.133C1111.43,368.493 1098.22,357.87 1084.55,346.263C1054.94,321.377 1038.42,308.835 1034.98,308.638C1028.29,308.442 1023.57,307.507 1020.81,305.835C1018.06,304.163 1016.68,301.163 1016.68,296.835C1016.68,293.097 1018.45,289.826 1021.99,287.023C1025.53,284.22 1029.71,282.818 1034.53,282.818C1036.21,282.818 1038.86,283.064 1042.5,283.556C1046.14,284.146 1048.85,284.441 1050.62,284.441C1058.49,284.441 1071.94,278.588 1090.97,266.883C1110,255.178 1119.52,241.407 1119.52,225.57C1119.52,217.209 1115.27,210.029 1106.76,204.028C1098.25,198.028 1087.4,195.028 1074.22,195.028C1064.39,195.028 1054.55,195.717 1044.71,197.094C1034.88,198.471 1028.61,199.651 1025.9,200.635C1023.2,201.618 1021.01,204.151 1019.34,208.233C1017.66,212.315 1014.86,225.324 1010.93,247.259C1006.99,269.194 1003.92,289.9 1001.7,309.376C999.491,328.852 998.385,343.164 998.385,352.312C998.385,359.394 998.876,365.542 999.86,370.755C1000.75,375.969 1001.19,380.149 1001.19,383.297C1001.19,386.248 999.639,389.297 996.54,392.445C993.442,395.592 990.073,397.166 986.433,397.166C976.105,397.166 970.941,388.805 970.941,372.083C970.941,332.639 977.876,280.162 991.745,214.652C992.434,211.209 992.778,209.192 992.778,208.602C992.778,208.012 992.434,207.127 991.745,205.946C987.81,199.749 985.843,195.618 985.843,193.553C985.843,189.815 987.663,186.569 991.302,183.814C994.942,181.06 998.237,179.683 1001.19,179.683L1013.73,180.864Z" />
        <path style="fill-rule:nonzero;"
            d="M1292.89,325.164C1280.3,346.312 1267.41,362.689 1254.23,374.296C1241.05,385.903 1228.8,391.707 1217.49,391.707C1211,391.707 1204.38,387.92 1197.64,380.346C1190.91,372.772 1187.54,361.116 1187.54,345.377C1187.54,332.492 1190.64,313.507 1196.83,288.425C1202.05,267.473 1204.65,252.768 1204.65,244.308C1207.51,238.407 1211.98,235.456 1218.08,235.456C1222.21,235.456 1225.51,236.906 1227.97,239.808C1230.42,242.71 1231.65,245.735 1231.65,248.882C1231.65,255.768 1229.25,265.555 1224.42,278.244C1215.28,302.933 1210.7,324.131 1210.7,341.836C1210.7,357.968 1214.44,366.034 1221.92,366.034C1231.46,366.034 1243.61,357.919 1258.36,341.689C1273.12,325.459 1285.76,302.835 1296.28,273.818C1300.41,262.211 1303.78,254.661 1306.39,251.169C1308.99,247.677 1312.51,245.931 1316.94,245.931C1323.63,245.931 1326.97,250.358 1326.97,259.211C1326.97,260.293 1326.04,263.883 1324.17,269.981C1318.26,291.523 1315.31,311.884 1315.31,331.065C1315.31,354.083 1319.1,368.985 1326.67,375.772C1330.61,379.411 1332.58,382.362 1332.58,384.625C1332.58,387.379 1330.58,389.887 1326.6,392.149C1322.62,394.412 1319,395.543 1315.76,395.543C1308.87,395.543 1303.31,390.428 1299.08,380.198C1294.85,369.968 1292.74,354.869 1292.74,334.902L1292.74,330.033C1292.74,328.459 1292.79,326.836 1292.89,325.164Z" />
        <path style="fill-rule:nonzero;"
            d="M1473.48,275.883C1468.37,275.883 1462.79,279.228 1456.74,285.916C1450.69,292.605 1441.46,307.606 1429.07,330.918C1412.74,362.198 1402.19,380.002 1397.42,384.33C1392.65,388.658 1388.69,390.822 1385.55,390.822C1373.94,390.822 1368.13,385.215 1368.13,374.001C1368.13,369.28 1368.92,362.591 1370.5,353.935C1375.91,324.229 1378.61,292.9 1378.61,259.948C1378.61,256.21 1380.21,252.055 1383.41,247.481C1386.6,242.907 1389.63,240.62 1392.48,240.62C1397.6,240.62 1401.23,242.194 1403.4,245.341C1405.56,248.489 1406.64,254.833 1406.64,264.375C1406.64,274.309 1403.69,294.769 1397.79,325.754C1395.82,335.984 1394.84,342.476 1394.84,345.23C1394.84,346.804 1395.23,347.591 1396.02,347.591C1397.5,347.591 1404.33,335.836 1416.53,312.327C1428.83,288.425 1439.6,271.604 1448.84,261.866C1458.09,252.128 1468.27,247.259 1479.38,247.259C1488.24,247.259 1495.44,251.292 1501,259.358C1506.56,267.424 1510.62,282.129 1513.17,303.474C1515.93,327.77 1518.41,342.894 1520.62,348.845C1522.84,354.796 1526.35,357.771 1531.17,357.771C1534.22,357.771 1538.06,356.689 1542.68,354.525C1543.47,354.132 1544.06,353.935 1544.45,353.935C1548.68,353.935 1550.8,356.394 1550.8,361.312C1550.8,365.64 1547.89,370.239 1542.09,375.108C1536.29,379.977 1529.3,382.411 1521.14,382.411C1512.78,382.411 1506.31,379.092 1501.74,372.452C1497.16,365.812 1493.55,348.082 1490.89,319.262C1488.14,290.343 1482.34,275.883 1473.48,275.883Z" />
        <path style="fill-rule:nonzero;"
            d="M1679.16,328.262C1665.98,349.41 1652.01,365.714 1637.26,377.174C1622.5,388.633 1608.93,394.363 1596.54,394.363C1587,394.363 1579.44,390.699 1573.89,383.37C1568.33,376.042 1565.55,366.28 1565.55,354.083C1565.55,329.196 1575.66,303.671 1595.87,277.506C1616.09,251.341 1637.9,238.259 1661.31,238.259C1671.54,238.259 1681.03,242.636 1689.79,251.391L1710.44,154.895C1711.92,148.305 1714.65,143.879 1718.63,141.616C1722.61,139.354 1725.74,138.223 1728,138.223C1734.88,138.223 1738.33,144.321 1738.33,156.518C1738.33,158.682 1736.07,166.748 1731.54,180.716C1724.36,202.356 1717.55,228.939 1711.11,260.465C1704.66,291.99 1701.44,317.294 1701.44,336.377C1701.44,356.05 1705.72,365.886 1714.28,365.886C1719.79,365.886 1725.49,364.067 1731.39,360.427C1733.85,358.657 1736.16,357.771 1738.33,357.771C1741.48,357.771 1743.05,359.837 1743.05,363.968C1743.05,368.985 1738.65,374.788 1729.84,381.379C1721.04,387.969 1712.02,391.264 1702.77,391.264C1686.54,391.264 1678.42,375.624 1678.42,344.345C1678.42,339.033 1678.67,333.672 1679.16,328.262ZM1659.83,259.211C1643.9,259.211 1628.11,270.006 1612.47,291.597C1596.83,313.188 1589.01,333.131 1589.01,351.427C1589.01,363.722 1593.09,369.87 1601.26,369.87C1608.93,369.87 1618.25,365.837 1629.22,357.771C1640.18,349.705 1651.47,336.844 1663.08,319.188C1674.69,301.532 1680.49,288.277 1680.49,279.424C1680.49,275.096 1678.5,270.645 1674.51,266.071C1670.53,261.497 1665.64,259.211 1659.83,259.211Z" />
        <path style="fill-rule:nonzero;"
            d="M1899.45,339.328C1899.45,349.361 1890.57,361.46 1872.82,375.624C1855.06,389.789 1836.74,396.871 1817.86,396.871C1802.02,396.871 1789.8,392.199 1781.19,382.854C1772.58,373.509 1768.28,360.476 1768.28,343.754C1768.28,315.622 1777.77,288.867 1796.76,263.489C1815.74,238.111 1836.5,225.422 1859.02,225.422C1866.4,225.422 1872.42,227.832 1877.1,232.652C1881.77,237.472 1884.1,243.276 1884.1,250.063C1884.1,265.211 1876.68,279.719 1861.82,293.589C1846.97,307.458 1827.1,321.081 1802.22,334.459C1797.1,337.115 1794.54,340.558 1794.54,344.787C1794.54,352.951 1796.9,359.493 1801.63,364.411C1806.35,369.329 1813.33,371.788 1822.58,371.788C1843.73,371.788 1865.32,360.083 1887.35,336.672C1890.6,333.426 1893.05,331.803 1894.73,331.803C1897.87,331.803 1899.45,334.311 1899.45,339.328ZM1796.9,316.311C1838.61,291.523 1859.46,271.604 1859.46,256.555C1859.46,250.653 1856.81,247.702 1851.5,247.702C1842.45,247.702 1832.24,254.341 1820.88,267.621C1809.52,280.9 1801.53,297.13 1796.9,316.311Z" />
        <path style="fill-rule:nonzero;"
            d="M129.044,654.044C165.635,586.468 195.784,552.68 219.489,552.68C225.785,552.68 230.899,556.27 234.834,563.45C238.769,570.631 241.965,586.566 244.425,611.255C246.884,637.518 252.441,656.503 261.097,668.208C265.524,674.208 267.737,678.635 267.737,681.487C267.737,684.045 266.261,686.405 263.31,688.569C260.359,690.733 257.212,691.815 253.867,691.815C246.195,691.815 239.408,687.512 233.506,678.905C227.604,670.298 223.817,655.175 222.145,633.535C220.473,613.075 218.702,599.698 216.833,593.402C214.965,587.107 211.866,583.959 207.538,583.959C197.21,583.959 176.406,610.96 145.126,664.962C135.781,681.094 128.896,691.643 124.47,696.611C120.043,701.578 116.01,704.062 112.371,704.062C108.043,704.062 104.403,702.783 101.452,700.226C98.502,697.668 97.026,694.52 97.026,690.783C97.026,688.028 97.813,682.717 99.387,674.848C111.486,612.386 121.027,550.614 128.011,489.53C129.585,475.267 132.117,465.775 135.609,461.053C139.101,456.332 142.028,453.971 144.388,453.971C148.618,453.971 152.454,455.693 155.897,459.135C159.34,462.578 161.061,467.349 161.061,473.447C161.061,491.546 156.635,516.383 147.782,547.958C143.454,563.598 138.88,583.467 134.06,607.567C129.24,631.666 126.83,646.568 126.83,652.273C126.83,653.453 127.371,654.044 128.453,654.044L129.044,654.044Z" />
        <path style="fill-rule:nonzero;"
            d="M341.51,500.743C339.444,500.743 337.87,498.53 336.788,494.104C336.395,492.727 335.854,491.202 335.165,489.53C332.509,483.136 331.182,477.579 331.182,472.857C331.182,468.923 333.518,464.914 338.19,460.832C342.862,456.75 348.051,454.709 353.756,454.709C356.609,454.709 359.805,455.816 363.347,458.029C366.888,460.242 368.658,462.381 368.658,464.447C368.658,467.693 367.453,473.201 365.043,480.972C362.633,488.743 358.797,493.981 353.535,496.686C348.272,499.391 344.264,500.743 341.51,500.743ZM322.181,665.552C322.181,673.028 323.214,681.438 325.28,690.783C325.673,692.553 325.87,694.029 325.87,695.209C325.87,696.98 324.247,699.266 321.001,702.07C317.755,704.873 314.312,706.275 310.673,706.275C301.131,706.275 296.361,697.521 296.361,680.012C296.361,661.913 300.099,633.289 307.574,594.14C310.132,580.467 311.41,572.057 311.41,568.91C311.41,562.713 312.542,557.426 314.804,553.048C317.066,548.671 320.263,546.483 324.394,546.483C329.411,546.483 333.37,547.688 336.272,550.097C339.174,552.507 340.625,555.188 340.625,558.139C340.625,561.09 339.936,564.975 338.559,569.795C331.182,595.763 326.608,614.354 324.837,625.567C323.067,636.781 322.181,650.109 322.181,665.552Z" />
        <path style="fill-rule:nonzero;"
            d="M481.826,584.845C476.711,584.845 471.129,588.189 465.08,594.878C459.03,601.566 449.809,616.567 437.415,639.879C421.086,671.159 410.537,688.963 405.766,693.291C400.995,697.619 397.036,699.783 393.889,699.783C382.282,699.783 376.478,694.176 376.478,682.963C376.478,678.241 377.265,671.552 378.839,662.896C384.249,633.19 386.954,601.862 386.954,568.91C386.954,565.172 388.552,561.016 391.749,556.442C394.946,551.868 397.971,549.581 400.823,549.581C405.938,549.581 409.578,551.155 411.742,554.303C413.906,557.45 414.988,563.795 414.988,573.336C414.988,583.271 412.037,603.73 406.135,634.715C404.168,644.945 403.184,651.437 403.184,654.191C403.184,655.765 403.577,656.552 404.364,656.552C405.84,656.552 412.676,644.797 424.873,621.288C437.169,597.386 447.94,580.566 457.186,570.828C466.432,561.09 476.613,556.221 487.728,556.221C496.581,556.221 503.786,560.254 509.343,568.319C514.901,576.385 518.958,591.091 521.516,612.436C524.27,636.732 526.754,651.855 528.967,657.806C531.18,663.757 534.697,666.733 539.517,666.733C542.566,666.733 546.402,665.651 551.025,663.487C551.812,663.093 552.402,662.896 552.796,662.896C557.025,662.896 559.14,665.355 559.14,670.274C559.14,674.602 556.238,679.2 550.435,684.069C544.631,688.938 537.648,691.373 529.483,691.373C521.122,691.373 514.655,688.053 510.081,681.413C505.507,674.774 501.892,657.044 499.236,628.223C496.482,599.304 490.679,584.845 481.826,584.845Z" />
        <path style="fill-rule:nonzero;"
            d="M706.981,696.684C704.424,695.602 701.965,694.422 699.604,693.143C690.948,688.815 679.243,686.651 664.488,686.651C655.93,686.651 641.668,688.299 621.7,691.594C601.732,694.889 588.108,699.93 580.829,706.718C575.813,711.144 570.55,713.357 565.042,713.357C561.993,713.357 558.575,712.472 554.788,710.701C551.001,708.931 549.009,706.521 548.812,703.472C553.435,698.357 559.829,691.668 567.993,683.405C612.355,638.355 646.094,600.976 669.209,571.27C668.816,570.385 667.242,569.942 664.488,569.942C659.275,569.942 648.16,571.172 631.143,573.631C623.47,574.811 615.503,575.402 607.24,575.402C587.076,575.402 576.993,570.09 576.993,559.467C576.993,551.401 581.469,547.368 590.42,547.368C590.912,547.368 591.846,547.614 593.223,548.106C600.305,551.057 608.863,552.532 618.896,552.532C632.175,552.532 647.176,551.45 663.898,549.286C665.57,548.991 667.537,548.696 669.8,548.401C671.964,548.204 674.472,547.81 677.325,547.22C683.03,546.237 687.554,545.745 690.899,545.745C694.243,545.745 697.661,546.63 701.153,548.401C704.645,550.171 706.145,553.024 705.653,556.958L705.506,557.549C703.342,566.106 677.325,596.992 627.454,650.207C615.454,663.093 609.011,670.716 608.125,673.077C608.519,674.061 609.503,674.553 611.076,674.553C612.453,674.553 619.339,673.225 631.733,670.569C654.947,665.552 672.554,663.044 684.554,663.044C703.342,663.044 712.736,668.749 712.736,680.159C712.736,687.34 710.817,692.848 706.981,696.684Z" />
        <path style="fill-rule:nonzero;"
            d="M837.707,634.125C825.116,655.273 812.231,671.651 799.05,683.258C785.869,694.865 773.623,700.668 762.311,700.668C755.819,700.668 749.204,696.881 742.466,689.307C735.728,681.733 732.359,670.077 732.359,654.339C732.359,641.453 735.458,622.469 741.655,597.386C746.868,576.434 749.474,561.729 749.474,553.27C752.327,547.368 756.803,544.417 762.901,544.417C767.032,544.417 770.328,545.868 772.787,548.77C775.246,551.671 776.475,554.696 776.475,557.844C776.475,564.729 774.065,574.516 769.246,587.205C760.098,611.895 755.524,633.092 755.524,650.798C755.524,666.929 759.262,674.995 766.737,674.995C776.279,674.995 788.427,666.88 803.181,650.65C817.936,634.42 830.576,611.796 841.101,582.779C845.232,571.172 848.601,563.623 851.207,560.131C853.814,556.639 857.331,554.893 861.757,554.893C868.446,554.893 871.79,559.319 871.79,568.172C871.79,569.254 870.856,572.844 868.987,578.943C863.085,600.484 860.134,620.846 860.134,640.027C860.134,663.044 863.921,677.946 871.495,684.733C875.43,688.373 877.397,691.324 877.397,693.586C877.397,696.34 875.405,698.848 871.421,701.111C867.438,703.373 863.823,704.504 860.577,704.504C853.691,704.504 848.134,699.389 843.904,689.16C839.674,678.93 837.559,663.831 837.559,643.863L837.559,638.994C837.559,637.42 837.609,635.797 837.707,634.125Z" />
        <path style="fill-rule:nonzero;"
            d="M947.186,705.095C946.498,707.554 944.629,709.619 941.579,711.291C938.53,712.964 935.481,713.8 932.432,713.8C922.398,713.8 917.382,706.472 917.382,691.815C917.382,684.832 919.693,665.06 924.317,632.502C927.169,612.534 928.595,597.386 928.595,587.058C928.595,585.287 926.53,582.976 922.398,580.123C918.169,577.369 916.054,574.664 916.054,572.008C916.054,567.778 919.251,563.204 925.644,558.286C930.563,554.45 933.587,550.171 934.719,545.45C935.85,540.728 937.153,534.187 938.628,525.826C943.645,495.333 951.49,473.349 962.162,459.873C972.835,446.397 986.433,439.659 1002.96,439.659C1011.71,439.659 1019.14,442.635 1025.24,448.586C1031.34,454.537 1034.39,461.939 1034.39,470.791C1034.39,477.972 1032.69,486.112 1029.3,495.21C1025.9,504.309 1022.04,508.858 1017.71,508.858C1014.47,508.858 1012.84,507.235 1012.84,503.989L1013.88,489.677C1013.88,470.693 1008.57,461.201 997.942,461.201C986.433,461.201 976.892,472.488 969.318,495.063C961.744,517.637 957.957,536.007 957.957,550.171C957.957,554.696 960.908,556.958 966.81,556.958C992.483,556.958 1007.61,556.86 1012.18,556.663C1016.75,556.467 1019.04,558.385 1019.04,562.418C1019.04,566.45 1016.56,569.524 1011.59,571.639C1006.62,573.754 995.778,575.648 979.056,577.32C964.793,578.795 956.727,580.025 954.859,581.008C948.268,617.6 944.973,650.207 944.973,678.831C944.973,687.389 945.366,693.733 946.153,697.865C946.842,701.701 947.186,704.111 947.186,705.095Z" />
        <path style="fill-rule:nonzero;"
            d="M1134.57,634.125C1121.98,655.273 1109.09,671.651 1095.91,683.258C1082.73,694.865 1070.49,700.668 1059.17,700.668C1052.68,700.668 1046.07,696.881 1039.33,689.307C1032.59,681.733 1029.22,670.077 1029.22,654.339C1029.22,641.453 1032.32,622.469 1038.52,597.386C1043.73,576.434 1046.34,561.729 1046.34,553.27C1049.19,547.368 1053.66,544.417 1059.76,544.417C1063.89,544.417 1067.19,545.868 1069.65,548.77C1072.11,551.671 1073.34,554.696 1073.34,557.844C1073.34,564.729 1070.93,574.516 1066.11,587.205C1056.96,611.895 1052.39,633.092 1052.39,650.798C1052.39,666.929 1056.12,674.995 1063.6,674.995C1073.14,674.995 1085.29,666.88 1100.04,650.65C1114.8,634.42 1127.44,611.796 1137.96,582.779C1142.09,571.172 1145.46,563.623 1148.07,560.131C1150.68,556.639 1154.19,554.893 1158.62,554.893C1165.31,554.893 1168.65,559.319 1168.65,568.172C1168.65,569.254 1167.72,572.844 1165.85,578.943C1159.95,600.484 1157,620.846 1157,640.027C1157,663.044 1160.78,677.946 1168.36,684.733C1172.29,688.373 1174.26,691.324 1174.26,693.586C1174.26,696.34 1172.27,698.848 1168.28,701.111C1164.3,703.373 1160.68,704.504 1157.44,704.504C1150.55,704.504 1145,699.389 1140.77,689.16C1136.54,678.93 1134.42,663.831 1134.42,643.863L1134.42,638.994C1134.42,637.42 1134.47,635.797 1134.57,634.125ZM1143.13,515.35C1139.39,515.35 1136.22,514.047 1133.61,511.44C1131,508.834 1129.7,505.711 1129.7,502.071C1129.7,498.235 1130.61,495.432 1132.43,493.661C1134.25,491.891 1139.05,490.071 1146.82,488.202L1149.03,487.612C1151.78,486.825 1154.17,487.513 1156.18,489.677C1158.2,491.841 1159.21,494.94 1159.21,498.973C1159.21,509.891 1153.85,515.35 1143.13,515.35ZM1087.8,519.334C1085.54,519.334 1082.27,518.596 1077.99,517.121C1073.71,515.645 1071.57,513.777 1071.57,511.514C1071.57,499.219 1074.96,493.071 1081.75,493.071C1088.04,493.071 1093.09,494.792 1096.87,498.235C1100.66,501.678 1102.55,506.498 1102.55,512.695C1102.55,517.121 1097.63,519.334 1087.8,519.334Z" />
        <path style="fill-rule:nonzero;"
            d="M1319,644.896C1317.82,644.01 1314.53,646.765 1309.12,653.158C1300.16,663.683 1288.73,673.028 1274.81,681.192C1260.89,689.356 1247.98,693.438 1236.08,693.438C1227.23,693.438 1220.29,690.66 1215.28,685.102C1210.26,679.544 1207.75,671.848 1207.75,662.011C1207.75,646.765 1213.51,629.772 1225.02,611.034C1236.52,592.296 1252.63,575.943 1273.34,561.975C1294.04,548.007 1312.17,541.023 1327.71,541.023C1335.87,541.023 1343.05,543.384 1349.25,548.106C1350.72,549.286 1352,550.27 1353.09,551.057C1354.86,552.335 1356.53,554.917 1358.1,558.803C1359.68,562.688 1360.46,565.811 1360.46,568.172C1360.46,569.647 1359.92,571.91 1358.84,574.959C1352.84,591.287 1348.76,604.812 1346.59,615.534C1344.43,626.256 1342.07,644.306 1339.51,669.683C1337.15,692.504 1334.59,710.062 1331.84,722.357C1329.08,734.653 1324.12,746.555 1316.94,758.064C1309.76,769.572 1301.15,778.204 1291.12,783.958C1281.08,789.712 1270.76,792.589 1260.13,792.589C1241.74,792.589 1223.59,786.245 1205.69,773.556C1187.78,760.867 1178.83,750.686 1178.83,743.014C1178.83,738.194 1180.65,735.784 1184.29,735.784C1186.06,735.784 1191.33,738.686 1200.08,744.489C1223.2,759.932 1244,767.654 1262.49,767.654C1278.62,767.654 1290.89,759.047 1299.31,741.833C1307.71,724.62 1313.44,698.898 1316.49,664.667C1317.18,656.896 1318.02,650.306 1319,644.896ZM1318.71,563.893C1310.35,563.893 1299.89,568.221 1287.35,576.877C1274.81,585.533 1262.64,598.222 1250.84,614.944C1239.03,631.666 1233.13,645.683 1233.13,656.995C1233.13,660.831 1234.34,663.855 1236.75,666.069C1239.15,668.282 1241.84,669.388 1244.79,669.388C1253.54,669.388 1264.98,664.864 1279.09,655.814C1293.21,646.765 1305.35,634.199 1315.54,618.116C1325.71,602.034 1330.81,589.418 1330.81,580.271C1330.81,569.352 1326.77,563.893 1318.71,563.893Z" />
        <path style="fill-rule:nonzero;"
            d="M1514.5,648.289C1514.5,658.322 1505.62,670.421 1487.87,684.586C1470.11,698.75 1451.79,705.832 1432.91,705.832C1417.07,705.832 1404.85,701.16 1396.24,691.815C1387.64,682.471 1383.33,669.438 1383.33,652.716C1383.33,624.584 1392.82,597.829 1411.81,572.451C1430.79,547.073 1451.55,534.384 1474.07,534.384C1481.45,534.384 1487.48,536.794 1492.15,541.614C1496.82,546.433 1499.16,552.237 1499.16,559.024C1499.16,574.172 1491.73,588.681 1476.88,602.55C1462.02,616.419 1442.15,630.043 1417.27,643.42C1412.15,646.076 1409.6,649.519 1409.6,653.749C1409.6,661.913 1411.96,668.454 1416.68,673.372C1421.4,678.29 1428.38,680.749 1437.63,680.749C1458.78,680.749 1480.37,669.044 1502.4,645.633C1505.65,642.387 1508.11,640.764 1509.78,640.764C1512.93,640.764 1514.5,643.273 1514.5,648.289ZM1411.96,625.272C1453.66,600.484 1474.52,580.566 1474.52,565.516C1474.52,559.614 1471.86,556.663 1466.55,556.663C1457.5,556.663 1447.29,563.303 1435.93,576.582C1424.57,589.861 1416.58,606.091 1411.96,625.272Z" />
        <path style="fill-rule:nonzero;"
            d="M1645.82,584.845C1640.7,584.845 1635.12,588.189 1629.07,594.878C1623.02,601.566 1613.8,616.567 1601.4,639.879C1585.08,671.159 1574.53,688.963 1569.76,693.291C1564.99,697.619 1561.03,699.783 1557.88,699.783C1546.27,699.783 1540.47,694.176 1540.47,682.963C1540.47,678.241 1541.26,671.552 1542.83,662.896C1548.24,633.19 1550.94,601.862 1550.94,568.91C1550.94,565.172 1552.54,561.016 1555.74,556.442C1558.94,551.868 1561.96,549.581 1564.81,549.581C1569.93,549.581 1573.57,551.155 1575.73,554.303C1577.9,557.45 1578.98,563.795 1578.98,573.336C1578.98,583.271 1576.03,603.73 1570.13,634.715C1568.16,644.945 1567.17,651.437 1567.17,654.191C1567.17,655.765 1567.57,656.552 1568.36,656.552C1569.83,656.552 1576.67,644.797 1588.86,621.288C1601.16,597.386 1611.93,580.566 1621.18,570.828C1630.42,561.09 1640.6,556.221 1651.72,556.221C1660.57,556.221 1667.78,560.254 1673.33,568.319C1678.89,576.385 1682.95,591.091 1685.51,612.436C1688.26,636.732 1690.74,651.855 1692.96,657.806C1695.17,663.757 1698.69,666.733 1703.51,666.733C1706.56,666.733 1710.39,665.651 1715.02,663.487C1715.8,663.093 1716.39,662.896 1716.79,662.896C1721.02,662.896 1723.13,665.355 1723.13,670.274C1723.13,674.602 1720.23,679.2 1714.42,684.069C1708.62,688.938 1701.64,691.373 1693.47,691.373C1685.11,691.373 1678.64,688.053 1674.07,681.413C1669.5,674.774 1665.88,657.044 1663.23,628.223C1660.47,599.304 1654.67,584.845 1645.82,584.845Z" />
    </g>
</svg>
