<?xml version="1.0" encoding="UTF-8" standalone="no"?><!DOCTYPE svg PUBLIC "-//W3C//DTD SVG 1.1//EN"
    "http://www.w3.org/Graphics/SVG/1.1/DTD/svg11.dtd">
<svg style="fill-rule:evenodd;clip-rule:evenodd;stroke-linejoin:round;stroke-miterlimit:1.41421;" height="100%" version="1.1" viewBox="0 0 192 192" width="100%"  xmlns="http://www.w3.org/2000/svg"  xml:space="preserve">
    <g transform="matrix(9.64077,0,0,8.53448,-1486.7,-606.483)">
        <ellipse style="fill:rgb(255,84,53);" cx="164.156" cy="82.311" rx="9.156" ry="10.311"/>
    </g>
    <g transform="matrix(9.64077,0,0,8.53448,-1486.7,-606.483)">
        <ellipse style="fill:rgb(255,84,53);" cx="164.156" cy="82.311" rx="9.156" ry="10.311"/>
    </g>
    <path d="M95.8,35.378C84.753,58.475 48.246,76.528 47.203,107.733C46.607,125.572 71.381,142.515 90.09,126.805C89.797,137.972 85.387,147.542 78.077,156.892L113.741,156.935C107.366,148.218 102.93,138.239 101.709,126.805C107.128,135.149 143.676,137.422 144.362,106.752C144.957,80.14 110.917,60.785 95.8,35.378Z"/>
</svg>
