<?xml version="1.0" encoding="UTF-8" standalone="no"?><!DOCTYPE svg PUBLIC "-//W3C//DTD SVG 1.1//EN"
    "http://www.w3.org/Graphics/SVG/1.1/DTD/svg11.dtd">
<svg style="fill-rule:evenodd;clip-rule:evenodd;stroke-linejoin:round;stroke-miterlimit:1.41421;" height="100%" version="1.1" viewBox="0 0 24 24" width="100%"  xmlns="http://www.w3.org/2000/svg"  xml:space="preserve">
    <path style="fill:white;fill-rule:nonzero;" d="M1.647,22.351C1.554,22.256 1.502,22.126 1.504,21.993C1.508,21.741 1.577,19.498 2.76,18.313C3.306,17.767 4.45,17.175 6.132,16.333C7.927,15.436 8.923,14.901 9.382,14.467L10.393,13.51L9.514,12.43C8.13,10.729 7.336,8.851 7.336,7.278C7.336,6.064 7.336,4.688 7.91,3.551C8.597,2.19 9.974,1.5 12.002,1.5C14.029,1.5 15.406,2.19 16.093,3.551C16.667,4.689 16.667,6.064 16.667,7.278C16.667,8.851 15.873,10.729 14.488,12.431L13.609,13.511L14.621,14.468C14.851,14.684 15.215,14.927 15.746,15.227L15.746,13.5L15.807,13.5C15.747,13.457 15.689,13.414 15.651,13.378C17.243,11.421 18.166,9.212 18.166,7.278C18.166,5.965 18.166,4.332 17.432,2.875C16.77,1.563 15.29,0 12.002,0C8.713,0 7.233,1.563 6.571,2.875C5.836,4.332 5.836,5.965 5.836,7.278C5.836,9.212 6.759,11.421 8.351,13.378C7.971,13.737 6.403,14.521 5.462,14.991C3.594,15.926 2.408,16.544 1.7,17.253C0.131,18.822 0.012,21.457 0.004,21.97C-0.004,22.504 0.202,23.021 0.579,23.404C0.954,23.784 1.468,24 2.003,24L15.746,24L15.746,22.5L2.003,22.5C1.87,22.5 1.74,22.446 1.647,22.351ZM21.746,16.5L15.746,16.5C14.505,16.5 13.496,17.509 13.496,18.75C13.496,19.991 14.505,21 15.746,21L21.746,21C22.987,21 23.996,19.991 23.996,18.75C23.996,17.509 22.987,16.5 21.746,16.5ZM21.746,19.5L15.746,19.5C15.332,19.5 14.996,19.165 14.996,18.75C14.996,18.335 15.332,18 15.746,18L21.746,18C22.16,18 22.496,18.335 22.496,18.75C22.496,19.165 22.16,19.5 21.746,19.5Z"/>
</svg>
