<?xml version="1.0" encoding="UTF-8" standalone="no"?>
<!DOCTYPE svg PUBLIC "-//W3C//DTD SVG 1.1//EN" "http://www.w3.org/Graphics/SVG/1.1/DTD/svg11.dtd">
<svg width="100%" height="100%" viewBox="0 0 875 657" version="1.1" xmlns="http://www.w3.org/2000/svg" xmlns:xlink="http://www.w3.org/1999/xlink" xml:space="preserve" xmlns:serif="http://www.serif.com/" style="fill-rule:evenodd;clip-rule:evenodd;stroke-miterlimit:10;">
    <g>
        <g>
            <g id="Umrandete-Elemente" serif:id="Umrandete Elemente">
                <rect x="169" y="26.672" width="352" height="295.248" style="fill:rgb(248,248,248);"/>
                <g transform="matrix(1,0,0,1,-163.165,-121.472)">
                    <path d="M775.665,630.472C775.665,630.472 783.665,659.472 783.665,663.472C783.665,667.472 796.665,666.472 796.665,666.472L806.665,650.472C806.665,650.472 798.665,634.472 796.665,626.472C794.665,618.472 775.665,630.472 775.665,630.472Z" style="fill:rgb(251,190,190);fill-rule:nonzero;"/>
                </g>
                <g transform="matrix(1,0,0,1,-163.165,-121.472)">
                    <path d="M790.665,657.472C790.665,657.472 802.665,660.472 802.665,651.472C802.665,642.472 807.665,646.472 807.665,646.472C807.665,646.472 819.665,653.472 814.665,660.472C809.665,667.472 800.665,675.472 797.665,682.472C794.665,689.472 785.665,708.472 775.665,704.472C765.665,700.472 772.665,691.472 772.665,691.472C772.665,691.472 780.665,679.472 778.665,669.472C776.665,659.472 775.665,654.472 778.665,654.472C781.665,654.472 786.665,651.472 786.665,655.472C786.665,659.472 790.665,657.472 790.665,657.472Z" style="fill:rgb(47,46,65);fill-rule:nonzero;"/>
                </g>
                <circle cx="627" cy="126.5" r="38" style="fill:rgb(47,46,65);"/>
                <circle cx="623" cy="94.5" r="34" style="fill:rgb(47,46,65);"/>
                <path d="M605,295.5L585,293.5L576.835,273.528L578,255.5L605,255.5L605,295.5Z" style="fill:rgb(63,61,86);fill-rule:nonzero;"/>
                <path d="M605,295.5L585,293.5L576.835,273.528L578,255.5L605,255.5L605,295.5Z" style="fill-opacity:0.1;fill-rule:nonzero;"/>
                <g transform="matrix(1,0,0,1,-163.165,-121.472)">
                    <path d="M769.665,273.472C769.665,273.472 768.665,298.472 764.665,301.472C760.665,304.472 770.665,316.472 770.665,316.472L786.665,312.472L798.665,301.472L793.665,300.472C793.665,300.472 793.665,286.472 796.665,282.472C799.665,278.472 769.665,273.472 769.665,273.472Z" style="fill:rgb(251,190,190);fill-rule:nonzero;"/>
                </g>
                <g transform="matrix(1,0,0,1,-163.165,-121.472)">
                    <path d="M769.665,273.472C769.665,273.472 768.665,298.472 764.665,301.472C760.665,304.472 770.665,316.472 770.665,316.472L786.665,312.472L798.665,301.472L793.665,300.472C793.665,300.472 793.665,286.472 796.665,282.472C799.665,278.472 769.665,273.472 769.665,273.472Z" style="fill-opacity:0.1;fill-rule:nonzero;"/>
                </g>
                <g transform="matrix(1,0,0,1,-163.165,-121.472)">
                    <path d="M741.665,371.472C741.665,371.472 751.665,397.472 749.665,419.472C747.665,441.472 794.665,422.472 794.665,422.472L808.665,413.472C808.665,413.472 812.665,386.472 808.665,380.472C804.665,374.472 796.665,353.472 796.665,353.472L775.665,350.472L741.665,371.472Z" style="fill:rgb(251,190,190);fill-rule:nonzero;"/>
                </g>
                <g transform="matrix(1,0,0,1,-163.165,-121.472)">
                    <path d="M909.807,486.263C909.807,486.263 926.86,467.414 929.712,465.601C932.564,463.788 925.959,454.972 925.959,454.972L910.018,455.093C910.018,455.093 902.235,468.05 897.437,473.102C892.639,478.154 909.807,486.263 909.807,486.263Z" style="fill:rgb(251,190,190);fill-rule:nonzero;"/>
                </g>
                <g transform="matrix(1,0,0,1,-163.165,-121.472)">
                    <path d="M922.261,463.329C922.261,463.329 918.961,453.413 912.544,457.492C906.126,461.571 906.712,456.193 906.712,456.193C906.712,456.193 906.265,444.464 913.522,444.856C920.78,445.249 930.563,448.04 936.914,447.007C943.266,445.973 960.893,443.779 962.573,452.722C964.253,461.666 954.663,460.754 954.663,460.754C954.663,460.754 942.48,460.488 936.256,466.447C930.032,472.405 926.92,475.385 925.561,473.246C924.201,471.106 919.796,468.901 922.648,467.088C925.5,465.275 922.261,463.329 922.261,463.329Z" style="fill:rgb(47,46,65);fill-rule:nonzero;"/>
                </g>
                <g transform="matrix(1,0,0,1,-163.165,-121.472)">
                    <path d="M758.665,291.472C758.665,291.472 746.665,284.472 743.665,264.472C740.665,244.472 719.665,174.472 719.665,174.472C719.665,174.472 705.665,126.472 700.665,142.472C695.665,158.472 706.665,176.472 706.665,176.472L720.665,241.472C720.665,241.472 732.665,325.472 738.665,329.472C744.665,333.472 758.665,291.472 758.665,291.472Z" style="fill:rgb(251,190,190);fill-rule:nonzero;"/>
                </g>
                <g transform="matrix(1,0,0,1,-163.165,-121.472)">
                    <path d="M807.361,295.356C807.361,295.356 821.253,295.205 833.749,279.304C846.246,263.403 899.11,212.941 899.11,212.941C899.11,212.941 935.012,178.141 931.447,194.521C927.882,210.901 909.421,221.108 909.421,221.108L865.113,270.684C865.113,270.684 813.15,337.765 805.957,338.275C798.764,338.785 807.361,295.356 807.361,295.356Z" style="fill:rgb(251,190,190);fill-rule:nonzero;"/>
                </g>
                <circle cx="623.5" cy="143" r="25" style="fill:rgb(251,190,190);"/>
                <g transform="matrix(1,0,0,1,-163.165,-121.472)">
                    <path d="M810.443,397.736C810.443,397.736 775.665,422.472 762.665,418.472C749.665,414.472 747.665,411.472 747.665,411.472C747.665,411.472 735.665,493.472 744.665,525.472C744.665,525.472 745.665,557.472 754.665,569.472L775.665,638.472C775.665,638.472 798.665,637.472 798.665,629.472C798.665,629.472 795.665,612.472 795.665,600.472C795.665,588.472 779.665,558.472 779.665,558.472L790.665,474.472C790.665,474.472 832.665,558.472 849.665,552.472C866.665,546.472 914.665,483.472 914.665,483.472L899.665,469.472C899.665,469.472 857.665,494.472 852.665,507.472C852.665,507.472 819.221,404.999 810.443,397.736Z" style="fill:rgb(47,46,65);fill-rule:nonzero;"/>
                </g>
                <g transform="matrix(1,0,0,1,-163.165,-121.472)">
                    <path d="M783.665,304.472C783.665,304.472 796.665,294.472 798.665,294.472L811.665,294.472C811.665,294.472 821.665,318.472 817.665,328.472C817.665,328.472 812.665,354.472 811.665,356.472C810.665,358.472 811.665,364.472 813.665,370.472C815.665,376.472 821.665,389.472 818.665,392.472C815.665,395.472 812.665,403.472 810.665,403.472C808.665,403.472 792.665,388.472 789.665,378.472C786.665,368.472 786.665,365.472 779.665,369.472C772.665,373.472 741.665,371.472 743.665,387.472C744.567,395.538 745.903,403.549 747.665,411.472C749.428,419.394 735.665,415.472 733.665,396.472C731.665,377.472 729.665,376.472 735.665,369.472C741.665,362.472 733.665,333.472 733.665,333.472C733.665,333.472 743.665,316.472 745.665,307.472C747.665,298.472 755.665,289.472 755.665,289.472C755.665,289.472 760.665,286.472 763.665,288.472C766.665,290.472 768.27,289.472 768.27,289.472C768.27,289.472 762.665,303.472 768.665,303.472C774.665,303.472 783.665,304.472 783.665,304.472Z" style="fill:rgb(63,61,86);fill-rule:nonzero;"/>
                </g>
                <ellipse cx="605.5" cy="288.5" rx="1.5" ry="3" style="fill-opacity:0.1;"/>
                <ellipse cx="626" cy="120.5" rx="30" ry="19" style="fill:rgb(47,46,65);"/>
                <ellipse cx="113" cy="192.5" rx="42" ry="57" style="fill:rgb(47,46,65);"/>
                <g transform="matrix(1,0,0,1,-163.165,-121.472)">
                    <path d="M286.696,350.07C286.696,350.07 303.665,333.472 305.665,327.472C307.665,321.472 331.665,219.472 331.665,219.472C331.665,219.472 351.665,162.472 360.665,176.472C369.665,190.472 345.665,223.472 345.665,223.472C345.665,223.472 339.665,286.472 335.665,301.472C331.665,316.472 317.665,372.472 308.665,378.472L299.665,396.472L289.665,398.472L280.665,373.472L281.665,363.472L286.696,350.07Z" style="fill:rgb(160,97,106);fill-rule:nonzero;"/>
                </g>
                <g transform="matrix(1,0,0,1,-163.165,-121.472)">
                    <path d="M336.665,615.472C336.665,615.472 360.665,622.472 363.665,618.472C366.665,614.472 377.665,638.472 377.665,638.472L377.665,647.472L367.665,649.472C367.665,649.472 337.665,636.472 332.665,636.472C327.665,636.472 336.665,615.472 336.665,615.472Z" style="fill:rgb(160,97,106);fill-rule:nonzero;"/>
                </g>
                <g transform="matrix(1,0,0,1,-163.165,-121.472)">
                    <path d="M367.665,630.472C367.665,630.472 353.665,618.472 356.665,616.472C359.665,614.472 371.665,600.472 377.665,608.472C383.665,616.472 410.665,660.472 403.665,670.472C396.665,680.472 391.665,674.472 391.665,674.472C391.665,674.472 373.067,649.472 365.866,649.472C365.866,649.472 375.665,638.472 367.665,630.472Z" style="fill:rgb(47,46,65);fill-rule:nonzero;"/>
                </g>
                <g transform="matrix(1,0,0,1,-163.165,-121.472)">
                    <path d="M267.665,705.472C267.665,705.472 268.665,738.472 259.665,748.472C250.665,758.472 271.665,756.472 271.665,756.472L293.665,741.472C293.665,741.472 287.665,725.472 289.665,710.472L267.665,705.472Z" style="fill:rgb(160,97,106);fill-rule:nonzero;"/>
                </g>
                <g transform="matrix(1,0,0,1,-163.165,-121.472)">
                    <path d="M293.665,733.472C293.665,733.472 291.665,731.472 286.665,737.472C281.665,743.472 271.665,750.472 265.665,744.472C259.665,738.472 259.665,743.472 259.665,743.472C259.665,743.472 246.665,764.472 235.665,767.472C224.665,770.472 232.665,780.472 242.665,776.472C252.665,772.472 301.665,755.472 301.665,755.472C301.665,755.472 300.665,741.472 293.665,733.472Z" style="fill:rgb(47,46,65);fill-rule:nonzero;"/>
                </g>
                <g transform="matrix(1,0,0,1,-163.165,-121.472)">
                    <path d="M220.665,467.472L205.665,490.472C205.665,490.472 168.665,519.472 187.665,522.472C206.665,525.472 217.665,495.472 217.665,495.472L230.665,479.472L220.665,467.472Z" style="fill:rgb(160,97,106);fill-rule:nonzero;"/>
                </g>
                <g transform="matrix(1,0,0,1,-163.165,-121.472)">
                    <path d="M215.665,463.472C215.665,463.472 232.665,488.472 240.665,490.472C248.665,492.472 245.665,471.472 245.665,471.472L215.665,463.472Z" style="fill:rgb(213,0,0);fill-rule:nonzero;"/>
                </g>
                <g transform="matrix(1,0,0,1,-163.165,-121.472)">
                    <path d="M215.665,463.472C215.665,463.472 232.665,488.472 240.665,490.472C248.665,492.472 245.665,471.472 245.665,471.472L215.665,463.472Z" style="fill-opacity:0.1;fill-rule:nonzero;"/>
                </g>
                <g transform="matrix(1,0,0,1,-163.165,-121.472)">
                    <path d="M237.665,461.472L240.665,513.472C240.665,513.472 229.665,590.472 246.665,608.472C246.665,608.472 256.665,635.472 256.665,645.472C256.665,655.472 263.665,715.472 263.665,715.472L292.665,715.472C292.665,715.472 298.665,632.472 282.665,606.472L282.665,464.472L237.665,461.472Z" style="fill:rgb(47,46,65);fill-rule:nonzero;"/>
                </g>
                <g transform="matrix(1,0,0,1,-163.165,-121.472)">
                    <path d="M237.173,564.523C237.315,582.864 239.51,600.895 246.665,608.472C246.665,608.472 256.665,635.472 256.665,645.472C256.665,655.472 263.665,715.472 263.665,715.472L292.665,715.472C292.665,715.472 298.665,632.472 282.665,606.472L282.665,569.342" style="fill-opacity:0.1;fill-rule:nonzero;"/>
                </g>
                <g transform="matrix(1,0,0,1,-163.165,-121.472)">
                    <path d="M268.665,473.472L238.665,552.472C238.665,552.472 220.665,620.472 242.665,627.472C264.665,634.472 321.665,632.472 330.665,639.472C339.665,646.472 344.665,618.472 341.665,615.472C338.665,612.472 290.665,596.472 270.665,596.472C270.665,596.472 323.665,524.472 310.665,508.472C297.665,492.472 279.665,472.472 268.665,473.472Z" style="fill:rgb(47,46,65);fill-rule:nonzero;"/>
                </g>
                <g transform="matrix(1,0,0,1,-163.165,-121.472)">
                    <path d="M261.665,321.472C261.665,321.472 262.665,348.472 257.665,349.472C253.562,350.473 249.549,351.811 245.665,353.472L245.665,368.472L253.665,373.472L273.665,361.472L289.665,347.472C289.665,347.472 284.665,333.472 289.665,324.472L261.665,321.472Z" style="fill:rgb(160,97,106);fill-rule:nonzero;"/>
                </g>
                <g transform="matrix(1,0,0,1,-163.165,-121.472)">
                    <path d="M261.665,321.472C261.665,321.472 262.665,348.472 257.665,349.472C253.562,350.473 249.549,351.811 245.665,353.472L245.665,368.472L253.665,373.472L273.665,361.472L289.665,347.472C289.665,347.472 284.665,333.472 289.665,324.472L261.665,321.472Z" style="fill-opacity:0.1;fill-rule:nonzero;"/>
                </g>
                <g transform="matrix(1,0,0,1,-163.165,-121.472)">
                    <path d="M257.665,364.472C257.665,364.472 274.665,348.472 278.665,349.472C282.665,350.472 294.165,342.972 294.165,342.972C291.94,350.649 290.434,358.516 289.665,366.472C289.124,372.972 290.343,376.538 291.573,378.441C293.001,380.585 294.16,382.897 295.025,385.323C296.68,390.161 299.746,396.005 303.665,389.472C303.665,389.472 301.665,400.472 299.665,432.472C297.665,464.472 308.665,486.472 308.665,486.472C308.665,486.472 317.665,510.472 313.665,515.472C313.665,515.472 282.665,495.472 284.665,486.472C284.665,486.472 212.665,476.472 212.665,463.472C212.627,455.875 216.382,448.74 222.665,444.472C223.334,438.343 224.676,432.307 226.665,426.472C228.655,420.637 215.665,403.472 225.665,384.472C225.665,384.472 216.665,358.472 228.665,352.472C240.665,346.472 255.665,349.472 255.665,349.472C255.665,349.472 241.665,358.472 250.665,363.472L257.665,364.472Z" style="fill:rgb(213,0,0);fill-rule:nonzero;"/>
                </g>
                <circle cx="113.5" cy="187" r="25" style="fill:rgb(160,97,106);"/>
                <ellipse cx="115.5" cy="172" rx="27.5" ry="14.5" style="fill:rgb(47,46,65);"/>
                <circle cx="83" cy="145.5" r="8" style="fill:rgb(47,46,65);"/>
                <circle cx="143" cy="145.5" r="8" style="fill:rgb(47,46,65);"/>
                <path d="M0,656.5L851.223,656.5" style="fill:none;fill-rule:nonzero;stroke:rgb(63,61,86);stroke-width:1px;"/>
                <g transform="matrix(1,0,0,1,-163.165,-121.472)">
                    <path d="M969.806,653.785C972.086,654.613 974.492,655.037 976.917,655.037C988.335,655.037 997.73,645.642 997.73,634.225C997.73,622.807 988.335,613.412 976.917,613.412C975.459,613.412 974.004,613.566 972.578,613.87L973.099,624.582L968.031,615.401C963.059,617.738 959.213,621.957 957.347,627.124C956.684,628.935 956.281,630.83 956.15,632.754C955.495,642 961.093,650.622 969.806,653.785Z" style="fill:rgb(87,184,148);fill-rule:nonzero;"/>
                </g>
                <g transform="matrix(1,0,0,1,-163.165,-121.472)">
                    <path d="M994.884,778.028C993.095,768.918 1000.85,760.841 1008.5,755.592C1016.16,750.342 1025.11,745.184 1027.72,736.275C1031.48,723.471 1020.29,711.745 1011.59,701.633C1005.13,694.129 999.581,685.886 995.063,677.076C993.252,673.543 991.588,669.851 991.111,665.91C990.424,660.234 992.248,654.586 994.085,649.173C1000.2,631.138 1006.75,613.255 1013.71,595.523" style="fill:none;fill-rule:nonzero;stroke:rgb(63,61,86);stroke-width:1px;"/>
                </g>
                <g transform="matrix(1,0,0,1,-163.165,-121.472)">
                    <path d="M970.663,651.027C972.943,651.855 975.349,652.279 977.774,652.279C989.192,652.279 998.587,642.884 998.587,631.467C998.587,620.049 989.192,610.654 977.774,610.654C976.316,610.654 974.861,610.808 973.435,611.112L973.956,621.824L968.888,612.643C963.916,614.98 960.07,619.199 958.204,624.366C957.541,626.177 957.138,628.072 957.007,629.996C956.352,639.242 961.95,647.864 970.663,651.027Z" style="fill:none;fill-rule:nonzero;stroke:rgb(63,61,86);stroke-width:1px;"/>
                </g>
                <g transform="matrix(1,0,0,1,-163.165,-121.472)">
                    <path d="M992.34,591.823C994.753,585.164 1000.41,580.181 1007.32,578.626L1009.03,588.81L1012.21,578.114C1023.51,578.281 1032.71,587.622 1032.71,598.922C1032.71,610.338 1023.32,619.732 1011.9,619.732C1000.49,619.732 991.092,610.338 991.092,598.922C991.092,596.501 991.514,594.099 992.34,591.823L992.34,591.823Z" style="fill:rgb(87,184,148);fill-rule:nonzero;"/>
                </g>
                <g transform="matrix(1,0,0,1,-163.165,-121.472)">
                    <path d="M993.483,588.146C995.896,581.487 1001.55,576.504 1008.46,574.949L1010.18,585.132L1013.35,574.437C1024.65,574.604 1033.86,583.945 1033.86,595.244C1033.86,606.66 1024.46,616.054 1013.05,616.054C1001.63,616.054 992.235,606.66 992.235,595.244C992.235,592.824 992.657,590.422 993.483,588.146L993.483,588.146Z" style="fill:none;fill-rule:nonzero;stroke:rgb(63,61,86);stroke-width:1px;"/>
                </g>
                <g transform="matrix(1,0,0,1,-163.165,-121.472)">
                    <path d="M1007.93,701.84C1010.21,702.665 1012.61,703.087 1015.03,703.087C1026.44,703.087 1035.84,693.693 1035.84,682.277C1035.84,675.232 1032.26,668.65 1026.35,664.817L1023.91,673.036L1022.18,662.732C1022.16,662.724 1022.14,662.718 1022.13,662.712C1019.85,661.887 1017.45,661.465 1015.03,661.465C1003.61,661.465 994.219,670.859 994.219,682.276C994.219,691.012 999.72,698.86 1007.93,701.84L1007.93,701.84Z" style="fill:rgb(87,184,148);fill-rule:nonzero;"/>
                </g>
                <g transform="matrix(1,0,0,1,-163.165,-121.472)">
                    <path d="M1008.92,698.115C1011.2,698.94 1013.6,699.362 1016.02,699.362C1027.44,699.362 1036.83,689.968 1036.83,678.552C1036.83,671.508 1033.25,664.925 1027.34,661.092L1024.9,669.311L1023.17,659.008C1023.15,659 1023.13,658.993 1023.12,658.988C1020.84,658.162 1018.44,657.74 1016.02,657.74C1004.6,657.74 995.209,667.135 995.209,678.551C995.209,687.288 1000.71,695.136 1008.92,698.115L1008.92,698.115Z" style="fill:none;fill-rule:nonzero;stroke:rgb(63,61,86);stroke-width:1px;"/>
                </g>
                <g transform="matrix(1,0,0,1,-163.165,-121.472)">
                    <path d="M986.266,736.402C988.007,746.308 996.696,753.603 1006.75,753.603C1018.17,753.603 1027.56,744.213 1027.56,732.802C1027.56,721.39 1018.17,712 1006.75,712C1000.31,712 994.212,714.998 990.277,720.105L999.55,734.061L986.88,726.654C985.897,729.807 985.687,733.151 986.266,736.402Z" style="fill:rgb(87,184,148);fill-rule:nonzero;"/>
                </g>
                <g transform="matrix(1,0,0,1,-163.165,-121.472)">
                    <path d="M987.124,733.644C988.864,743.55 997.553,750.845 1007.61,750.845C1019.02,750.845 1028.41,741.455 1028.41,730.044C1028.41,718.633 1019.02,709.242 1007.61,709.242C1001.16,709.242 995.069,712.24 991.134,717.347L1000.41,731.303L987.737,723.896C986.754,727.049 986.544,730.393 987.124,733.644Z" style="fill:none;fill-rule:nonzero;stroke:rgb(63,61,86);stroke-width:1px;"/>
                </g>
                <rect x="191" y="0.5" width="352" height="295.248" style="fill:none;stroke:rgb(63,61,86);stroke-width:1px;"/>
            </g>
            <g>
                <rect x="169" y="26.672" width="352" height="295.248" style="fill:rgb(248,248,248);"/>
                <g transform="matrix(1,0,0,1,-163.165,-121.472)">
                    <path d="M775.665,630.472C775.665,630.472 783.665,659.472 783.665,663.472C783.665,667.472 796.665,666.472 796.665,666.472L806.665,650.472C806.665,650.472 798.665,634.472 796.665,626.472C794.665,618.472 775.665,630.472 775.665,630.472Z" style="fill:rgb(251,190,190);fill-rule:nonzero;"/>
                </g>
                <g transform="matrix(1,0,0,1,-163.165,-121.472)">
                    <path d="M790.665,657.472C790.665,657.472 802.665,660.472 802.665,651.472C802.665,642.472 807.665,646.472 807.665,646.472C807.665,646.472 819.665,653.472 814.665,660.472C809.665,667.472 800.665,675.472 797.665,682.472C794.665,689.472 785.665,708.472 775.665,704.472C765.665,700.472 772.665,691.472 772.665,691.472C772.665,691.472 780.665,679.472 778.665,669.472C776.665,659.472 775.665,654.472 778.665,654.472C781.665,654.472 786.665,651.472 786.665,655.472C786.665,659.472 790.665,657.472 790.665,657.472Z" style="fill:rgb(47,46,65);fill-rule:nonzero;"/>
                </g>
                <circle cx="627" cy="126.5" r="38" style="fill:rgb(47,46,65);"/>
                <circle cx="623" cy="94.5" r="34" style="fill:rgb(47,46,65);"/>
                <path d="M605,295.5L585,293.5L576.835,273.528L578,255.5L605,255.5L605,295.5Z" style="fill:rgb(63,61,86);fill-rule:nonzero;"/>
                <path d="M605,295.5L585,293.5L576.835,273.528L578,255.5L605,255.5L605,295.5Z" style="fill-opacity:0.1;fill-rule:nonzero;"/>
                <g transform="matrix(1,0,0,1,-163.165,-121.472)">
                    <path d="M769.665,273.472C769.665,273.472 768.665,298.472 764.665,301.472C760.665,304.472 770.665,316.472 770.665,316.472L786.665,312.472L798.665,301.472L793.665,300.472C793.665,300.472 793.665,286.472 796.665,282.472C799.665,278.472 769.665,273.472 769.665,273.472Z" style="fill:rgb(251,190,190);fill-rule:nonzero;"/>
                </g>
                <g transform="matrix(1,0,0,1,-163.165,-121.472)">
                    <path d="M769.665,273.472C769.665,273.472 768.665,298.472 764.665,301.472C760.665,304.472 770.665,316.472 770.665,316.472L786.665,312.472L798.665,301.472L793.665,300.472C793.665,300.472 793.665,286.472 796.665,282.472C799.665,278.472 769.665,273.472 769.665,273.472Z" style="fill-opacity:0.1;fill-rule:nonzero;"/>
                </g>
                <g transform="matrix(1,0,0,1,-163.165,-121.472)">
                    <path d="M741.665,371.472C741.665,371.472 751.665,397.472 749.665,419.472C747.665,441.472 794.665,422.472 794.665,422.472L808.665,413.472C808.665,413.472 812.665,386.472 808.665,380.472C804.665,374.472 796.665,353.472 796.665,353.472L775.665,350.472L741.665,371.472Z" style="fill:rgb(251,190,190);fill-rule:nonzero;"/>
                </g>
                <g transform="matrix(1,0,0,1,-163.165,-121.472)">
                    <path d="M909.807,486.263C909.807,486.263 926.86,467.414 929.712,465.601C932.564,463.788 925.959,454.972 925.959,454.972L910.018,455.093C910.018,455.093 902.235,468.05 897.437,473.102C892.639,478.154 909.807,486.263 909.807,486.263Z" style="fill:rgb(251,190,190);fill-rule:nonzero;"/>
                </g>
                <g transform="matrix(1,0,0,1,-163.165,-121.472)">
                    <path d="M922.261,463.329C922.261,463.329 918.961,453.413 912.544,457.492C906.126,461.571 906.712,456.193 906.712,456.193C906.712,456.193 906.265,444.464 913.522,444.856C920.78,445.249 930.563,448.04 936.914,447.007C943.266,445.973 960.893,443.779 962.573,452.722C964.253,461.666 954.663,460.754 954.663,460.754C954.663,460.754 942.48,460.488 936.256,466.447C930.032,472.405 926.92,475.385 925.561,473.246C924.201,471.106 919.796,468.901 922.648,467.088C925.5,465.275 922.261,463.329 922.261,463.329Z" style="fill:rgb(47,46,65);fill-rule:nonzero;"/>
                </g>
                <g transform="matrix(1,0,0,1,-163.165,-121.472)">
                    <path d="M758.665,291.472C758.665,291.472 746.665,284.472 743.665,264.472C740.665,244.472 719.665,174.472 719.665,174.472C719.665,174.472 705.665,126.472 700.665,142.472C695.665,158.472 706.665,176.472 706.665,176.472L720.665,241.472C720.665,241.472 732.665,325.472 738.665,329.472C744.665,333.472 758.665,291.472 758.665,291.472Z" style="fill:rgb(251,190,190);fill-rule:nonzero;"/>
                </g>
                <g transform="matrix(1,0,0,1,-163.165,-121.472)">
                    <path d="M807.361,295.356C807.361,295.356 821.253,295.205 833.749,279.304C846.246,263.403 899.11,212.941 899.11,212.941C899.11,212.941 935.012,178.141 931.447,194.521C927.882,210.901 909.421,221.108 909.421,221.108L865.113,270.684C865.113,270.684 813.15,337.765 805.957,338.275C798.764,338.785 807.361,295.356 807.361,295.356Z" style="fill:rgb(251,190,190);fill-rule:nonzero;"/>
                </g>
                <circle cx="623.5" cy="143" r="25" style="fill:rgb(251,190,190);"/>
                <g transform="matrix(1,0,0,1,-163.165,-121.472)">
                    <path d="M810.443,397.736C810.443,397.736 775.665,422.472 762.665,418.472C749.665,414.472 747.665,411.472 747.665,411.472C747.665,411.472 735.665,493.472 744.665,525.472C744.665,525.472 745.665,557.472 754.665,569.472L775.665,638.472C775.665,638.472 798.665,637.472 798.665,629.472C798.665,629.472 795.665,612.472 795.665,600.472C795.665,588.472 779.665,558.472 779.665,558.472L790.665,474.472C790.665,474.472 832.665,558.472 849.665,552.472C866.665,546.472 914.665,483.472 914.665,483.472L899.665,469.472C899.665,469.472 857.665,494.472 852.665,507.472C852.665,507.472 819.221,404.999 810.443,397.736Z" style="fill:rgb(47,46,65);fill-rule:nonzero;"/>
                </g>
                <g transform="matrix(1,0,0,1,-163.165,-121.472)">
                    <path d="M783.665,304.472C783.665,304.472 796.665,294.472 798.665,294.472L811.665,294.472C811.665,294.472 821.665,318.472 817.665,328.472C817.665,328.472 812.665,354.472 811.665,356.472C810.665,358.472 811.665,364.472 813.665,370.472C815.665,376.472 821.665,389.472 818.665,392.472C815.665,395.472 812.665,403.472 810.665,403.472C808.665,403.472 792.665,388.472 789.665,378.472C786.665,368.472 786.665,365.472 779.665,369.472C772.665,373.472 741.665,371.472 743.665,387.472C744.567,395.538 745.903,403.549 747.665,411.472C749.428,419.394 735.665,415.472 733.665,396.472C731.665,377.472 729.665,376.472 735.665,369.472C741.665,362.472 733.665,333.472 733.665,333.472C733.665,333.472 743.665,316.472 745.665,307.472C747.665,298.472 755.665,289.472 755.665,289.472C755.665,289.472 760.665,286.472 763.665,288.472C766.665,290.472 768.27,289.472 768.27,289.472C768.27,289.472 762.665,303.472 768.665,303.472C774.665,303.472 783.665,304.472 783.665,304.472Z" style="fill:rgb(63,61,86);fill-rule:nonzero;"/>
                </g>
                <ellipse cx="605.5" cy="288.5" rx="1.5" ry="3" style="fill-opacity:0.1;"/>
                <ellipse cx="626" cy="120.5" rx="30" ry="19" style="fill:rgb(47,46,65);"/>
                <ellipse cx="113" cy="192.5" rx="42" ry="57" style="fill:rgb(47,46,65);"/>
                <g transform="matrix(1,0,0,1,-163.165,-121.472)">
                    <path d="M286.696,350.07C286.696,350.07 303.665,333.472 305.665,327.472C307.665,321.472 331.665,219.472 331.665,219.472C331.665,219.472 351.665,162.472 360.665,176.472C369.665,190.472 345.665,223.472 345.665,223.472C345.665,223.472 339.665,286.472 335.665,301.472C331.665,316.472 317.665,372.472 308.665,378.472L299.665,396.472L289.665,398.472L280.665,373.472L281.665,363.472L286.696,350.07Z" style="fill:rgb(160,97,106);fill-rule:nonzero;"/>
                </g>
                <g transform="matrix(1,0,0,1,-163.165,-121.472)">
                    <path d="M336.665,615.472C336.665,615.472 360.665,622.472 363.665,618.472C366.665,614.472 377.665,638.472 377.665,638.472L377.665,647.472L367.665,649.472C367.665,649.472 337.665,636.472 332.665,636.472C327.665,636.472 336.665,615.472 336.665,615.472Z" style="fill:rgb(160,97,106);fill-rule:nonzero;"/>
                </g>
                <g transform="matrix(1,0,0,1,-163.165,-121.472)">
                    <path d="M367.665,630.472C367.665,630.472 353.665,618.472 356.665,616.472C359.665,614.472 371.665,600.472 377.665,608.472C383.665,616.472 410.665,660.472 403.665,670.472C396.665,680.472 391.665,674.472 391.665,674.472C391.665,674.472 373.067,649.472 365.866,649.472C365.866,649.472 375.665,638.472 367.665,630.472Z" style="fill:rgb(47,46,65);fill-rule:nonzero;"/>
                </g>
                <g transform="matrix(1,0,0,1,-163.165,-121.472)">
                    <path d="M267.665,705.472C267.665,705.472 268.665,738.472 259.665,748.472C250.665,758.472 271.665,756.472 271.665,756.472L293.665,741.472C293.665,741.472 287.665,725.472 289.665,710.472L267.665,705.472Z" style="fill:rgb(160,97,106);fill-rule:nonzero;"/>
                </g>
                <g transform="matrix(1,0,0,1,-163.165,-121.472)">
                    <path d="M293.665,733.472C293.665,733.472 291.665,731.472 286.665,737.472C281.665,743.472 271.665,750.472 265.665,744.472C259.665,738.472 259.665,743.472 259.665,743.472C259.665,743.472 246.665,764.472 235.665,767.472C224.665,770.472 232.665,780.472 242.665,776.472C252.665,772.472 301.665,755.472 301.665,755.472C301.665,755.472 300.665,741.472 293.665,733.472Z" style="fill:rgb(47,46,65);fill-rule:nonzero;"/>
                </g>
                <g transform="matrix(1,0,0,1,-163.165,-121.472)">
                    <path d="M220.665,467.472L205.665,490.472C205.665,490.472 168.665,519.472 187.665,522.472C206.665,525.472 217.665,495.472 217.665,495.472L230.665,479.472L220.665,467.472Z" style="fill:rgb(160,97,106);fill-rule:nonzero;"/>
                </g>
                <g transform="matrix(1,0,0,1,-163.165,-121.472)">
                    <path d="M215.665,463.472C215.665,463.472 232.665,488.472 240.665,490.472C248.665,492.472 245.665,471.472 245.665,471.472L215.665,463.472Z" style="fill:rgb(213,0,0);fill-rule:nonzero;"/>
                </g>
                <g transform="matrix(1,0,0,1,-163.165,-121.472)">
                    <path d="M215.665,463.472C215.665,463.472 232.665,488.472 240.665,490.472C248.665,492.472 245.665,471.472 245.665,471.472L215.665,463.472Z" style="fill-opacity:0.1;fill-rule:nonzero;"/>
                </g>
                <g transform="matrix(1,0,0,1,-163.165,-121.472)">
                    <path d="M237.665,461.472L240.665,513.472C240.665,513.472 229.665,590.472 246.665,608.472C246.665,608.472 256.665,635.472 256.665,645.472C256.665,655.472 263.665,715.472 263.665,715.472L292.665,715.472C292.665,715.472 298.665,632.472 282.665,606.472L282.665,464.472L237.665,461.472Z" style="fill:rgb(47,46,65);fill-rule:nonzero;"/>
                </g>
                <g transform="matrix(1,0,0,1,-163.165,-121.472)">
                    <path d="M237.173,564.523C237.315,582.864 239.51,600.895 246.665,608.472C246.665,608.472 256.665,635.472 256.665,645.472C256.665,655.472 263.665,715.472 263.665,715.472L292.665,715.472C292.665,715.472 298.665,632.472 282.665,606.472L282.665,569.342" style="fill-opacity:0.1;fill-rule:nonzero;"/>
                </g>
                <g transform="matrix(1,0,0,1,-163.165,-121.472)">
                    <path d="M268.665,473.472L238.665,552.472C238.665,552.472 220.665,620.472 242.665,627.472C264.665,634.472 321.665,632.472 330.665,639.472C339.665,646.472 344.665,618.472 341.665,615.472C338.665,612.472 290.665,596.472 270.665,596.472C270.665,596.472 323.665,524.472 310.665,508.472C297.665,492.472 279.665,472.472 268.665,473.472Z" style="fill:rgb(47,46,65);fill-rule:nonzero;"/>
                </g>
                <g transform="matrix(1,0,0,1,-163.165,-121.472)">
                    <path d="M261.665,321.472C261.665,321.472 262.665,348.472 257.665,349.472C253.562,350.473 249.549,351.811 245.665,353.472L245.665,368.472L253.665,373.472L273.665,361.472L289.665,347.472C289.665,347.472 284.665,333.472 289.665,324.472L261.665,321.472Z" style="fill:rgb(160,97,106);fill-rule:nonzero;"/>
                </g>
                <g transform="matrix(1,0,0,1,-163.165,-121.472)">
                    <path d="M261.665,321.472C261.665,321.472 262.665,348.472 257.665,349.472C253.562,350.473 249.549,351.811 245.665,353.472L245.665,368.472L253.665,373.472L273.665,361.472L289.665,347.472C289.665,347.472 284.665,333.472 289.665,324.472L261.665,321.472Z" style="fill-opacity:0.1;fill-rule:nonzero;"/>
                </g>
                <g transform="matrix(1,0,0,1,-163.165,-121.472)">
                    <path d="M257.665,364.472C257.665,364.472 274.665,348.472 278.665,349.472C282.665,350.472 294.165,342.972 294.165,342.972C291.94,350.649 290.434,358.516 289.665,366.472C289.124,372.972 290.343,376.538 291.573,378.441C293.001,380.585 294.16,382.897 295.025,385.323C296.68,390.161 299.746,396.005 303.665,389.472C303.665,389.472 301.665,400.472 299.665,432.472C297.665,464.472 308.665,486.472 308.665,486.472C308.665,486.472 317.665,510.472 313.665,515.472C313.665,515.472 282.665,495.472 284.665,486.472C284.665,486.472 212.665,476.472 212.665,463.472C212.627,455.875 216.382,448.74 222.665,444.472C223.334,438.343 224.676,432.307 226.665,426.472C228.655,420.637 215.665,403.472 225.665,384.472C225.665,384.472 216.665,358.472 228.665,352.472C240.665,346.472 255.665,349.472 255.665,349.472C255.665,349.472 241.665,358.472 250.665,363.472L257.665,364.472Z" style="fill:rgb(213,0,0);fill-rule:nonzero;"/>
                </g>
                <circle cx="113.5" cy="187" r="25" style="fill:rgb(160,97,106);"/>
                <ellipse cx="115.5" cy="172" rx="27.5" ry="14.5" style="fill:rgb(47,46,65);"/>
                <circle cx="83" cy="145.5" r="8" style="fill:rgb(47,46,65);"/>
                <circle cx="143" cy="145.5" r="8" style="fill:rgb(47,46,65);"/>
                <path d="M0,656.5L851.223,656.5" style="fill:none;fill-rule:nonzero;stroke:rgb(63,61,86);stroke-width:1px;"/>
                <g transform="matrix(1,0,0,1,-163.165,-121.472)">
                    <path d="M969.806,653.785C972.086,654.613 974.492,655.037 976.917,655.037C988.335,655.037 997.73,645.642 997.73,634.225C997.73,622.807 988.335,613.412 976.917,613.412C975.459,613.412 974.004,613.566 972.578,613.87L973.099,624.582L968.031,615.401C963.059,617.738 959.213,621.957 957.347,627.124C956.684,628.935 956.281,630.83 956.15,632.754C955.495,642 961.093,650.622 969.806,653.785Z" style="fill:rgb(87,184,148);fill-rule:nonzero;"/>
                </g>
                <g transform="matrix(1,0,0,1,-163.165,-121.472)">
                    <path d="M994.884,778.028C993.095,768.918 1000.85,760.841 1008.5,755.592C1016.16,750.342 1025.11,745.184 1027.72,736.275C1031.48,723.471 1020.29,711.745 1011.59,701.633C1005.13,694.129 999.581,685.886 995.063,677.076C993.252,673.543 991.588,669.851 991.111,665.91C990.424,660.234 992.248,654.586 994.085,649.173C1000.2,631.138 1006.75,613.255 1013.71,595.523" style="fill:none;fill-rule:nonzero;stroke:rgb(63,61,86);stroke-width:1px;"/>
                </g>
                <g transform="matrix(1,0,0,1,-163.165,-121.472)">
                    <path d="M970.663,651.027C972.943,651.855 975.349,652.279 977.774,652.279C989.192,652.279 998.587,642.884 998.587,631.467C998.587,620.049 989.192,610.654 977.774,610.654C976.316,610.654 974.861,610.808 973.435,611.112L973.956,621.824L968.888,612.643C963.916,614.98 960.07,619.199 958.204,624.366C957.541,626.177 957.138,628.072 957.007,629.996C956.352,639.242 961.95,647.864 970.663,651.027Z" style="fill:none;fill-rule:nonzero;stroke:rgb(63,61,86);stroke-width:1px;"/>
                </g>
                <g transform="matrix(1,0,0,1,-163.165,-121.472)">
                    <path d="M992.34,591.823C994.753,585.164 1000.41,580.181 1007.32,578.626L1009.03,588.81L1012.21,578.114C1023.51,578.281 1032.71,587.622 1032.71,598.922C1032.71,610.338 1023.32,619.732 1011.9,619.732C1000.49,619.732 991.092,610.338 991.092,598.922C991.092,596.501 991.514,594.099 992.34,591.823L992.34,591.823Z" style="fill:rgb(87,184,148);fill-rule:nonzero;"/>
                </g>
                <g transform="matrix(1,0,0,1,-163.165,-121.472)">
                    <path d="M993.483,588.146C995.896,581.487 1001.55,576.504 1008.46,574.949L1010.18,585.132L1013.35,574.437C1024.65,574.604 1033.86,583.945 1033.86,595.244C1033.86,606.66 1024.46,616.054 1013.05,616.054C1001.63,616.054 992.235,606.66 992.235,595.244C992.235,592.824 992.657,590.422 993.483,588.146L993.483,588.146Z" style="fill:none;fill-rule:nonzero;stroke:rgb(63,61,86);stroke-width:1px;"/>
                </g>
                <g transform="matrix(1,0,0,1,-163.165,-121.472)">
                    <path d="M1007.93,701.84C1010.21,702.665 1012.61,703.087 1015.03,703.087C1026.44,703.087 1035.84,693.693 1035.84,682.277C1035.84,675.232 1032.26,668.65 1026.35,664.817L1023.91,673.036L1022.18,662.732C1022.16,662.724 1022.14,662.718 1022.13,662.712C1019.85,661.887 1017.45,661.465 1015.03,661.465C1003.61,661.465 994.219,670.859 994.219,682.276C994.219,691.012 999.72,698.86 1007.93,701.84L1007.93,701.84Z" style="fill:rgb(87,184,148);fill-rule:nonzero;"/>
                </g>
                <g transform="matrix(1,0,0,1,-163.165,-121.472)">
                    <path d="M1008.92,698.115C1011.2,698.94 1013.6,699.362 1016.02,699.362C1027.44,699.362 1036.83,689.968 1036.83,678.552C1036.83,671.508 1033.25,664.925 1027.34,661.092L1024.9,669.311L1023.17,659.008C1023.15,659 1023.13,658.993 1023.12,658.988C1020.84,658.162 1018.44,657.74 1016.02,657.74C1004.6,657.74 995.209,667.135 995.209,678.551C995.209,687.288 1000.71,695.136 1008.92,698.115L1008.92,698.115Z" style="fill:none;fill-rule:nonzero;stroke:rgb(63,61,86);stroke-width:1px;"/>
                </g>
                <g transform="matrix(1,0,0,1,-163.165,-121.472)">
                    <path d="M986.266,736.402C988.007,746.308 996.696,753.603 1006.75,753.603C1018.17,753.603 1027.56,744.213 1027.56,732.802C1027.56,721.39 1018.17,712 1006.75,712C1000.31,712 994.212,714.998 990.277,720.105L999.55,734.061L986.88,726.654C985.897,729.807 985.687,733.151 986.266,736.402Z" style="fill:rgb(87,184,148);fill-rule:nonzero;"/>
                </g>
                <g transform="matrix(1,0,0,1,-163.165,-121.472)">
                    <path d="M987.124,733.644C988.864,743.55 997.553,750.845 1007.61,750.845C1019.02,750.845 1028.41,741.455 1028.41,730.044C1028.41,718.633 1019.02,709.242 1007.61,709.242C1001.16,709.242 995.069,712.24 991.134,717.347L1000.41,731.303L987.737,723.896C986.754,727.049 986.544,730.393 987.124,733.644Z" style="fill:none;fill-rule:nonzero;stroke:rgb(63,61,86);stroke-width:1px;"/>
                </g>
                <rect x="191" y="0.5" width="352" height="295.248" style="fill:none;stroke:rgb(63,61,86);stroke-width:1px;"/>
            </g>
            <g>
                <rect x="169" y="26.672" width="352" height="295.248" style="fill:rgb(248,248,248);"/>
                <g transform="matrix(1,0,0,1,-163.165,-121.472)">
                    <path d="M775.665,630.472C775.665,630.472 783.665,659.472 783.665,663.472C783.665,667.472 796.665,666.472 796.665,666.472L806.665,650.472C806.665,650.472 798.665,634.472 796.665,626.472C794.665,618.472 775.665,630.472 775.665,630.472Z" style="fill:rgb(251,190,190);fill-rule:nonzero;"/>
                </g>
                <g transform="matrix(1,0,0,1,-163.165,-121.472)">
                    <path d="M790.665,657.472C790.665,657.472 802.665,660.472 802.665,651.472C802.665,642.472 807.665,646.472 807.665,646.472C807.665,646.472 819.665,653.472 814.665,660.472C809.665,667.472 800.665,675.472 797.665,682.472C794.665,689.472 785.665,708.472 775.665,704.472C765.665,700.472 772.665,691.472 772.665,691.472C772.665,691.472 780.665,679.472 778.665,669.472C776.665,659.472 775.665,654.472 778.665,654.472C781.665,654.472 786.665,651.472 786.665,655.472C786.665,659.472 790.665,657.472 790.665,657.472Z" style="fill:rgb(47,46,65);fill-rule:nonzero;"/>
                </g>
                <circle cx="627" cy="126.5" r="38" style="fill:rgb(47,46,65);"/>
                <circle cx="623" cy="94.5" r="34" style="fill:rgb(47,46,65);"/>
                <path d="M605,295.5L585,293.5L576.835,273.528L578,255.5L605,255.5L605,295.5Z" style="fill:rgb(63,61,86);fill-rule:nonzero;"/>
                <path d="M605,295.5L585,293.5L576.835,273.528L578,255.5L605,255.5L605,295.5Z" style="fill-opacity:0.1;fill-rule:nonzero;"/>
                <g transform="matrix(1,0,0,1,-163.165,-121.472)">
                    <path d="M769.665,273.472C769.665,273.472 768.665,298.472 764.665,301.472C760.665,304.472 770.665,316.472 770.665,316.472L786.665,312.472L798.665,301.472L793.665,300.472C793.665,300.472 793.665,286.472 796.665,282.472C799.665,278.472 769.665,273.472 769.665,273.472Z" style="fill:rgb(251,190,190);fill-rule:nonzero;"/>
                </g>
                <g transform="matrix(1,0,0,1,-163.165,-121.472)">
                    <path d="M769.665,273.472C769.665,273.472 768.665,298.472 764.665,301.472C760.665,304.472 770.665,316.472 770.665,316.472L786.665,312.472L798.665,301.472L793.665,300.472C793.665,300.472 793.665,286.472 796.665,282.472C799.665,278.472 769.665,273.472 769.665,273.472Z" style="fill-opacity:0.1;fill-rule:nonzero;"/>
                </g>
                <g transform="matrix(1,0,0,1,-163.165,-121.472)">
                    <path d="M741.665,371.472C741.665,371.472 751.665,397.472 749.665,419.472C747.665,441.472 794.665,422.472 794.665,422.472L808.665,413.472C808.665,413.472 812.665,386.472 808.665,380.472C804.665,374.472 796.665,353.472 796.665,353.472L775.665,350.472L741.665,371.472Z" style="fill:rgb(251,190,190);fill-rule:nonzero;"/>
                </g>
                <g transform="matrix(1,0,0,1,-163.165,-121.472)">
                    <path d="M909.807,486.263C909.807,486.263 926.86,467.414 929.712,465.601C932.564,463.788 925.959,454.972 925.959,454.972L910.018,455.093C910.018,455.093 902.235,468.05 897.437,473.102C892.639,478.154 909.807,486.263 909.807,486.263Z" style="fill:rgb(251,190,190);fill-rule:nonzero;"/>
                </g>
                <g transform="matrix(1,0,0,1,-163.165,-121.472)">
                    <path d="M922.261,463.329C922.261,463.329 918.961,453.413 912.544,457.492C906.126,461.571 906.712,456.193 906.712,456.193C906.712,456.193 906.265,444.464 913.522,444.856C920.78,445.249 930.563,448.04 936.914,447.007C943.266,445.973 960.893,443.779 962.573,452.722C964.253,461.666 954.663,460.754 954.663,460.754C954.663,460.754 942.48,460.488 936.256,466.447C930.032,472.405 926.92,475.385 925.561,473.246C924.201,471.106 919.796,468.901 922.648,467.088C925.5,465.275 922.261,463.329 922.261,463.329Z" style="fill:rgb(47,46,65);fill-rule:nonzero;"/>
                </g>
                <g transform="matrix(1,0,0,1,-163.165,-121.472)">
                    <path d="M758.665,291.472C758.665,291.472 746.665,284.472 743.665,264.472C740.665,244.472 719.665,174.472 719.665,174.472C719.665,174.472 705.665,126.472 700.665,142.472C695.665,158.472 706.665,176.472 706.665,176.472L720.665,241.472C720.665,241.472 732.665,325.472 738.665,329.472C744.665,333.472 758.665,291.472 758.665,291.472Z" style="fill:rgb(251,190,190);fill-rule:nonzero;"/>
                </g>
                <g transform="matrix(1,0,0,1,-163.165,-121.472)">
                    <path d="M807.361,295.356C807.361,295.356 821.253,295.205 833.749,279.304C846.246,263.403 899.11,212.941 899.11,212.941C899.11,212.941 935.012,178.141 931.447,194.521C927.882,210.901 909.421,221.108 909.421,221.108L865.113,270.684C865.113,270.684 813.15,337.765 805.957,338.275C798.764,338.785 807.361,295.356 807.361,295.356Z" style="fill:rgb(251,190,190);fill-rule:nonzero;"/>
                </g>
                <circle cx="623.5" cy="143" r="25" style="fill:rgb(251,190,190);"/>
                <g transform="matrix(1,0,0,1,-163.165,-121.472)">
                    <path d="M810.443,397.736C810.443,397.736 775.665,422.472 762.665,418.472C749.665,414.472 747.665,411.472 747.665,411.472C747.665,411.472 735.665,493.472 744.665,525.472C744.665,525.472 745.665,557.472 754.665,569.472L775.665,638.472C775.665,638.472 798.665,637.472 798.665,629.472C798.665,629.472 795.665,612.472 795.665,600.472C795.665,588.472 779.665,558.472 779.665,558.472L790.665,474.472C790.665,474.472 832.665,558.472 849.665,552.472C866.665,546.472 914.665,483.472 914.665,483.472L899.665,469.472C899.665,469.472 857.665,494.472 852.665,507.472C852.665,507.472 819.221,404.999 810.443,397.736Z" style="fill:rgb(47,46,65);fill-rule:nonzero;"/>
                </g>
                <g transform="matrix(1,0,0,1,-163.165,-121.472)">
                    <path d="M783.665,304.472C783.665,304.472 796.665,294.472 798.665,294.472L811.665,294.472C811.665,294.472 821.665,318.472 817.665,328.472C817.665,328.472 812.665,354.472 811.665,356.472C810.665,358.472 811.665,364.472 813.665,370.472C815.665,376.472 821.665,389.472 818.665,392.472C815.665,395.472 812.665,403.472 810.665,403.472C808.665,403.472 792.665,388.472 789.665,378.472C786.665,368.472 786.665,365.472 779.665,369.472C772.665,373.472 741.665,371.472 743.665,387.472C744.567,395.538 745.903,403.549 747.665,411.472C749.428,419.394 735.665,415.472 733.665,396.472C731.665,377.472 729.665,376.472 735.665,369.472C741.665,362.472 733.665,333.472 733.665,333.472C733.665,333.472 743.665,316.472 745.665,307.472C747.665,298.472 755.665,289.472 755.665,289.472C755.665,289.472 760.665,286.472 763.665,288.472C766.665,290.472 768.27,289.472 768.27,289.472C768.27,289.472 762.665,303.472 768.665,303.472C774.665,303.472 783.665,304.472 783.665,304.472Z" style="fill:rgb(63,61,86);fill-rule:nonzero;"/>
                </g>
                <ellipse cx="605.5" cy="288.5" rx="1.5" ry="3" style="fill-opacity:0.1;"/>
                <ellipse cx="626" cy="120.5" rx="30" ry="19" style="fill:rgb(47,46,65);"/>
                <ellipse cx="113" cy="192.5" rx="42" ry="57" style="fill:rgb(47,46,65);"/>
                <g transform="matrix(1,0,0,1,-163.165,-121.472)">
                    <path d="M286.696,350.07C286.696,350.07 303.665,333.472 305.665,327.472C307.665,321.472 331.665,219.472 331.665,219.472C331.665,219.472 351.665,162.472 360.665,176.472C369.665,190.472 345.665,223.472 345.665,223.472C345.665,223.472 339.665,286.472 335.665,301.472C331.665,316.472 317.665,372.472 308.665,378.472L299.665,396.472L289.665,398.472L280.665,373.472L281.665,363.472L286.696,350.07Z" style="fill:rgb(160,97,106);fill-rule:nonzero;"/>
                </g>
                <g transform="matrix(1,0,0,1,-163.165,-121.472)">
                    <path d="M336.665,615.472C336.665,615.472 360.665,622.472 363.665,618.472C366.665,614.472 377.665,638.472 377.665,638.472L377.665,647.472L367.665,649.472C367.665,649.472 337.665,636.472 332.665,636.472C327.665,636.472 336.665,615.472 336.665,615.472Z" style="fill:rgb(160,97,106);fill-rule:nonzero;"/>
                </g>
                <g transform="matrix(1,0,0,1,-163.165,-121.472)">
                    <path d="M367.665,630.472C367.665,630.472 353.665,618.472 356.665,616.472C359.665,614.472 371.665,600.472 377.665,608.472C383.665,616.472 410.665,660.472 403.665,670.472C396.665,680.472 391.665,674.472 391.665,674.472C391.665,674.472 373.067,649.472 365.866,649.472C365.866,649.472 375.665,638.472 367.665,630.472Z" style="fill:rgb(47,46,65);fill-rule:nonzero;"/>
                </g>
                <g transform="matrix(1,0,0,1,-163.165,-121.472)">
                    <path d="M267.665,705.472C267.665,705.472 268.665,738.472 259.665,748.472C250.665,758.472 271.665,756.472 271.665,756.472L293.665,741.472C293.665,741.472 287.665,725.472 289.665,710.472L267.665,705.472Z" style="fill:rgb(160,97,106);fill-rule:nonzero;"/>
                </g>
                <g transform="matrix(1,0,0,1,-163.165,-121.472)">
                    <path d="M293.665,733.472C293.665,733.472 291.665,731.472 286.665,737.472C281.665,743.472 271.665,750.472 265.665,744.472C259.665,738.472 259.665,743.472 259.665,743.472C259.665,743.472 246.665,764.472 235.665,767.472C224.665,770.472 232.665,780.472 242.665,776.472C252.665,772.472 301.665,755.472 301.665,755.472C301.665,755.472 300.665,741.472 293.665,733.472Z" style="fill:rgb(47,46,65);fill-rule:nonzero;"/>
                </g>
                <g transform="matrix(1,0,0,1,-163.165,-121.472)">
                    <path d="M220.665,467.472L205.665,490.472C205.665,490.472 168.665,519.472 187.665,522.472C206.665,525.472 217.665,495.472 217.665,495.472L230.665,479.472L220.665,467.472Z" style="fill:rgb(160,97,106);fill-rule:nonzero;"/>
                </g>
                <g transform="matrix(1,0,0,1,-163.165,-121.472)">
                    <path d="M215.665,463.472C215.665,463.472 232.665,488.472 240.665,490.472C248.665,492.472 245.665,471.472 245.665,471.472L215.665,463.472Z" style="fill:rgb(213,0,0);fill-rule:nonzero;"/>
                </g>
                <g transform="matrix(1,0,0,1,-163.165,-121.472)">
                    <path d="M215.665,463.472C215.665,463.472 232.665,488.472 240.665,490.472C248.665,492.472 245.665,471.472 245.665,471.472L215.665,463.472Z" style="fill-opacity:0.1;fill-rule:nonzero;"/>
                </g>
                <g transform="matrix(1,0,0,1,-163.165,-121.472)">
                    <path d="M237.665,461.472L240.665,513.472C240.665,513.472 229.665,590.472 246.665,608.472C246.665,608.472 256.665,635.472 256.665,645.472C256.665,655.472 263.665,715.472 263.665,715.472L292.665,715.472C292.665,715.472 298.665,632.472 282.665,606.472L282.665,464.472L237.665,461.472Z" style="fill:rgb(47,46,65);fill-rule:nonzero;"/>
                </g>
                <g transform="matrix(1,0,0,1,-163.165,-121.472)">
                    <path d="M237.173,564.523C237.315,582.864 239.51,600.895 246.665,608.472C246.665,608.472 256.665,635.472 256.665,645.472C256.665,655.472 263.665,715.472 263.665,715.472L292.665,715.472C292.665,715.472 298.665,632.472 282.665,606.472L282.665,569.342" style="fill-opacity:0.1;fill-rule:nonzero;"/>
                </g>
                <g transform="matrix(1,0,0,1,-163.165,-121.472)">
                    <path d="M268.665,473.472L238.665,552.472C238.665,552.472 220.665,620.472 242.665,627.472C264.665,634.472 321.665,632.472 330.665,639.472C339.665,646.472 344.665,618.472 341.665,615.472C338.665,612.472 290.665,596.472 270.665,596.472C270.665,596.472 323.665,524.472 310.665,508.472C297.665,492.472 279.665,472.472 268.665,473.472Z" style="fill:rgb(47,46,65);fill-rule:nonzero;"/>
                </g>
                <g transform="matrix(1,0,0,1,-163.165,-121.472)">
                    <path d="M261.665,321.472C261.665,321.472 262.665,348.472 257.665,349.472C253.562,350.473 249.549,351.811 245.665,353.472L245.665,368.472L253.665,373.472L273.665,361.472L289.665,347.472C289.665,347.472 284.665,333.472 289.665,324.472L261.665,321.472Z" style="fill:rgb(160,97,106);fill-rule:nonzero;"/>
                </g>
                <g transform="matrix(1,0,0,1,-163.165,-121.472)">
                    <path d="M261.665,321.472C261.665,321.472 262.665,348.472 257.665,349.472C253.562,350.473 249.549,351.811 245.665,353.472L245.665,368.472L253.665,373.472L273.665,361.472L289.665,347.472C289.665,347.472 284.665,333.472 289.665,324.472L261.665,321.472Z" style="fill-opacity:0.1;fill-rule:nonzero;"/>
                </g>
                <g transform="matrix(1,0,0,1,-163.165,-121.472)">
                    <path d="M257.665,364.472C257.665,364.472 274.665,348.472 278.665,349.472C282.665,350.472 294.165,342.972 294.165,342.972C291.94,350.649 290.434,358.516 289.665,366.472C289.124,372.972 290.343,376.538 291.573,378.441C293.001,380.585 294.16,382.897 295.025,385.323C296.68,390.161 299.746,396.005 303.665,389.472C303.665,389.472 301.665,400.472 299.665,432.472C297.665,464.472 308.665,486.472 308.665,486.472C308.665,486.472 317.665,510.472 313.665,515.472C313.665,515.472 282.665,495.472 284.665,486.472C284.665,486.472 212.665,476.472 212.665,463.472C212.627,455.875 216.382,448.74 222.665,444.472C223.334,438.343 224.676,432.307 226.665,426.472C228.655,420.637 215.665,403.472 225.665,384.472C225.665,384.472 216.665,358.472 228.665,352.472C240.665,346.472 255.665,349.472 255.665,349.472C255.665,349.472 241.665,358.472 250.665,363.472L257.665,364.472Z" style="fill:rgb(213,0,0);fill-rule:nonzero;"/>
                </g>
                <circle cx="113.5" cy="187" r="25" style="fill:rgb(160,97,106);"/>
                <ellipse cx="115.5" cy="172" rx="27.5" ry="14.5" style="fill:rgb(47,46,65);"/>
                <circle cx="83" cy="145.5" r="8" style="fill:rgb(47,46,65);"/>
                <circle cx="143" cy="145.5" r="8" style="fill:rgb(47,46,65);"/>
                <path d="M0,656.5L851.223,656.5" style="fill:none;fill-rule:nonzero;stroke:rgb(63,61,86);stroke-width:1px;"/>
                <g transform="matrix(1,0,0,1,-163.165,-121.472)">
                    <path d="M969.806,653.785C972.086,654.613 974.492,655.037 976.917,655.037C988.335,655.037 997.73,645.642 997.73,634.225C997.73,622.807 988.335,613.412 976.917,613.412C975.459,613.412 974.004,613.566 972.578,613.87L973.099,624.582L968.031,615.401C963.059,617.738 959.213,621.957 957.347,627.124C956.684,628.935 956.281,630.83 956.15,632.754C955.495,642 961.093,650.622 969.806,653.785Z" style="fill:rgb(87,184,148);fill-rule:nonzero;"/>
                </g>
                <g transform="matrix(1,0,0,1,-163.165,-121.472)">
                    <path d="M994.884,778.028C993.095,768.918 1000.85,760.841 1008.5,755.592C1016.16,750.342 1025.11,745.184 1027.72,736.275C1031.48,723.471 1020.29,711.745 1011.59,701.633C1005.13,694.129 999.581,685.886 995.063,677.076C993.252,673.543 991.588,669.851 991.111,665.91C990.424,660.234 992.248,654.586 994.085,649.173C1000.2,631.138 1006.75,613.255 1013.71,595.523" style="fill:none;fill-rule:nonzero;stroke:rgb(63,61,86);stroke-width:1px;"/>
                </g>
                <g transform="matrix(1,0,0,1,-163.165,-121.472)">
                    <path d="M970.663,651.027C972.943,651.855 975.349,652.279 977.774,652.279C989.192,652.279 998.587,642.884 998.587,631.467C998.587,620.049 989.192,610.654 977.774,610.654C976.316,610.654 974.861,610.808 973.435,611.112L973.956,621.824L968.888,612.643C963.916,614.98 960.07,619.199 958.204,624.366C957.541,626.177 957.138,628.072 957.007,629.996C956.352,639.242 961.95,647.864 970.663,651.027Z" style="fill:none;fill-rule:nonzero;stroke:rgb(63,61,86);stroke-width:1px;"/>
                </g>
                <g transform="matrix(1,0,0,1,-163.165,-121.472)">
                    <path d="M992.34,591.823C994.753,585.164 1000.41,580.181 1007.32,578.626L1009.03,588.81L1012.21,578.114C1023.51,578.281 1032.71,587.622 1032.71,598.922C1032.71,610.338 1023.32,619.732 1011.9,619.732C1000.49,619.732 991.092,610.338 991.092,598.922C991.092,596.501 991.514,594.099 992.34,591.823L992.34,591.823Z" style="fill:rgb(87,184,148);fill-rule:nonzero;"/>
                </g>
                <g transform="matrix(1,0,0,1,-163.165,-121.472)">
                    <path d="M993.483,588.146C995.896,581.487 1001.55,576.504 1008.46,574.949L1010.18,585.132L1013.35,574.437C1024.65,574.604 1033.86,583.945 1033.86,595.244C1033.86,606.66 1024.46,616.054 1013.05,616.054C1001.63,616.054 992.235,606.66 992.235,595.244C992.235,592.824 992.657,590.422 993.483,588.146L993.483,588.146Z" style="fill:none;fill-rule:nonzero;stroke:rgb(63,61,86);stroke-width:1px;"/>
                </g>
                <g transform="matrix(1,0,0,1,-163.165,-121.472)">
                    <path d="M1007.93,701.84C1010.21,702.665 1012.61,703.087 1015.03,703.087C1026.44,703.087 1035.84,693.693 1035.84,682.277C1035.84,675.232 1032.26,668.65 1026.35,664.817L1023.91,673.036L1022.18,662.732C1022.16,662.724 1022.14,662.718 1022.13,662.712C1019.85,661.887 1017.45,661.465 1015.03,661.465C1003.61,661.465 994.219,670.859 994.219,682.276C994.219,691.012 999.72,698.86 1007.93,701.84L1007.93,701.84Z" style="fill:rgb(87,184,148);fill-rule:nonzero;"/>
                </g>
                <g transform="matrix(1,0,0,1,-163.165,-121.472)">
                    <path d="M1008.92,698.115C1011.2,698.94 1013.6,699.362 1016.02,699.362C1027.44,699.362 1036.83,689.968 1036.83,678.552C1036.83,671.508 1033.25,664.925 1027.34,661.092L1024.9,669.311L1023.17,659.008C1023.15,659 1023.13,658.993 1023.12,658.988C1020.84,658.162 1018.44,657.74 1016.02,657.74C1004.6,657.74 995.209,667.135 995.209,678.551C995.209,687.288 1000.71,695.136 1008.92,698.115L1008.92,698.115Z" style="fill:none;fill-rule:nonzero;stroke:rgb(63,61,86);stroke-width:1px;"/>
                </g>
                <g transform="matrix(1,0,0,1,-163.165,-121.472)">
                    <path d="M986.266,736.402C988.007,746.308 996.696,753.603 1006.75,753.603C1018.17,753.603 1027.56,744.213 1027.56,732.802C1027.56,721.39 1018.17,712 1006.75,712C1000.31,712 994.212,714.998 990.277,720.105L999.55,734.061L986.88,726.654C985.897,729.807 985.687,733.151 986.266,736.402Z" style="fill:rgb(87,184,148);fill-rule:nonzero;"/>
                </g>
                <g transform="matrix(1,0,0,1,-163.165,-121.472)">
                    <path d="M987.124,733.644C988.864,743.55 997.553,750.845 1007.61,750.845C1019.02,750.845 1028.41,741.455 1028.41,730.044C1028.41,718.633 1019.02,709.242 1007.61,709.242C1001.16,709.242 995.069,712.24 991.134,717.347L1000.41,731.303L987.737,723.896C986.754,727.049 986.544,730.393 987.124,733.644Z" style="fill:none;fill-rule:nonzero;stroke:rgb(63,61,86);stroke-width:1px;"/>
                </g>
                <rect x="191" y="0.5" width="352" height="295.248" style="fill:none;stroke:rgb(63,61,86);stroke-width:1px;"/>
            </g>
        </g>
        <g transform="matrix(1,0,0,1,-163.165,-121.472)">
            <path d="M530.165,219.235L530.165,200.351L505.435,225.53L530.165,250.711L530.165,231.825C550.567,231.825 567.261,248.822 567.261,269.595C567.261,275.733 565.776,281.781 562.932,287.221L571.898,296.35C576.955,288.344 579.636,279.065 579.626,269.595C579.626,241.898 557.368,219.235 530.165,219.235ZM530.165,307.366C509.763,307.366 493.07,290.368 493.07,269.595C493.07,263.457 494.555,257.409 497.398,251.969L488.433,242.842C483.334,250.828 480.65,260.12 480.705,269.595C480.705,297.293 502.963,319.956 530.165,319.956L530.165,338.84L554.896,313.661L530.165,288.48L530.165,307.366Z" style="fill:rgb(213,0,0);fill-rule:nonzero;"/>
        </g>
    </g>
</svg>
